<svg width="150" height="128" viewBox="0 0 150 128" fill="none" xmlns="http://www.w3.org/2000/svg">
<path d="M138.092 65.7266C136.686 147.845 14.555 147.823 13.1641 65.7266C14.5673 -16.3825 136.703 -16.3702 138.092 65.7266Z" fill="#D4CBFF"/>
<path d="M143.746 106.786C143.134 106.218 11.1831 107.874 11.2833 106.209C11.1497 104.546 143.178 106.209 143.746 105.636C144.45 105.63 144.515 106.796 143.746 106.786Z" fill="#2E0F07"/>
<path d="M30.1278 74.4954H27.4901C26.3243 63.4472 9.70729 63.4543 8.54322 74.4954C-1.25817 73.1009 -1.9 84.5412 5.9056 85.1355H30.1278C31.522 85.1102 32.8505 84.5385 33.8276 83.5436C34.8046 82.5486 35.352 81.2099 35.352 79.8154C35.352 78.421 34.8046 77.0823 33.8276 76.0873C32.8505 75.0924 31.522 74.5207 30.1278 74.4954Z" fill="#DBF6F6"/>
<path d="M28.6622 75.7884H26.3393C25.3142 66.0731 10.7018 66.0784 9.68012 75.7884C1.06389 74.5575 0.497685 84.6209 7.35374 85.1431H28.6622C29.9027 85.1431 31.0924 84.6503 31.9696 83.7731C32.8468 82.896 33.3396 81.7063 33.3396 80.4657C33.3396 79.2252 32.8468 78.0355 31.9696 77.1583C31.0924 76.2811 29.9027 75.7884 28.6622 75.7884Z" fill="#B7EDEC"/>
<path d="M30.1269 85.707H5.89069C4.32865 85.7052 2.83114 85.0837 1.72678 83.979C0.622412 82.8743 0.00139606 81.3766 0 79.8146C0.0756118 75.3412 4.00918 73.4439 8.03947 73.9239C9.73282 62.86 26.2883 62.8652 27.9799 73.9239C37.4102 72.5418 39.1001 84.8735 30.1269 85.707ZM5.89069 75.0669C4.63151 75.0669 3.42391 75.5671 2.53354 76.4574C1.64317 77.3478 1.14297 78.5554 1.14297 79.8146C1.14297 81.0738 1.64317 82.2814 2.53354 83.1717C3.42391 84.0621 4.63151 84.5623 5.89069 84.5623H30.1269C36.3605 84.4515 36.3728 75.1777 30.1269 75.0669H27.4893C27.3489 75.0669 27.2135 75.0153 27.1087 74.9219C27.004 74.8285 26.9373 74.6999 26.9213 74.5604C26.6627 72.3802 25.6133 70.3706 23.9719 68.9124C22.3306 67.4542 20.2113 66.6488 18.0158 66.6488C15.8203 66.6488 13.7011 67.4542 12.0597 68.9124C10.4183 70.3706 9.36894 72.3802 9.11034 74.5604C9.09436 74.6999 9.02765 74.8285 8.9229 74.9219C8.81816 75.0153 8.68271 75.0669 8.54237 75.0669H5.89069Z" fill="#2E0F07"/>
<path d="M141.345 70.8728H137.332C135.574 54.1292 110.379 54.138 108.616 70.8728C93.7587 68.7627 92.7898 86.0989 104.608 86.9992H141.345C142.414 87.015 143.475 86.8181 144.467 86.4199C145.459 86.0218 146.362 85.4304 147.124 84.6801C147.885 83.9298 148.49 83.0356 148.903 82.0495C149.315 81.0633 149.528 80.005 149.528 78.936C149.528 77.867 149.315 76.8086 148.903 75.8225C148.49 74.8364 147.885 73.9422 147.124 73.1919C146.362 72.4416 145.459 71.8501 144.467 71.452C143.475 71.0539 142.414 70.857 141.345 70.8728Z" fill="#DBF6F6"/>
<path d="M138.316 71.9629H134.58C132.932 56.3517 109.448 56.3605 107.804 71.9629C93.9514 69.9935 93.0476 86.1603 104.068 86.9991H138.316C140.29 86.9689 142.173 86.1636 143.558 84.7569C144.944 83.3503 145.72 81.4553 145.72 79.481C145.72 77.5068 144.944 75.6117 143.558 74.2051C142.173 72.7985 140.29 71.9931 138.316 71.9629Z" fill="#B7EDEC"/>
<path d="M141.346 87.5695H104.614C102.325 87.5667 100.131 86.6561 98.5123 85.0376C96.8938 83.419 95.9833 81.2246 95.9805 78.9356C96.1563 72.0884 102.051 69.6161 108.114 70.3001C110.424 53.5336 135.522 53.5424 137.831 70.3001C152.302 68.19 154.36 86.4265 141.346 87.5695ZM104.614 71.4448C102.647 71.4749 100.771 72.2775 99.3906 73.6792C98.0102 75.0809 97.2365 76.9692 97.2365 78.9365C97.2365 80.9038 98.0102 82.7922 99.3906 84.1939C100.771 85.5955 102.647 86.3981 104.614 86.4282H141.346C151.182 86.2524 151.193 71.6224 141.346 71.4448H137.333C137.193 71.4448 137.057 71.3933 136.953 71.2999C136.848 71.2065 136.781 71.0778 136.765 70.9384C136.356 67.5686 134.728 64.4651 132.187 62.2139C129.646 59.9628 126.369 58.7199 122.975 58.7199C119.58 58.7199 116.303 59.9628 113.762 62.2139C111.222 64.4651 109.593 67.5686 109.184 70.9384C109.168 71.0778 109.102 71.2065 108.997 71.2999C108.892 71.3933 108.757 71.4448 108.616 71.4448H104.614Z" fill="#2E0F07"/>
<path d="M75.9419 63.0867L77.2062 56.032L70.6456 53.0427L69.6011 47.0306L74.7216 42.0262C72.8172 38.7098 73.0599 39.1301 71.1555 35.812L64.2168 37.7339L59.55 33.8056L60.2533 26.6805L53.5239 24.2188L49.4567 30.1393H43.3603L39.2948 24.2223L32.5654 26.684L33.2687 33.8091L28.6019 37.7374L21.6632 35.819C19.7588 39.1371 20.0015 38.7169 18.0971 42.0332L23.2106 47.0236L22.1661 53.0356L15.6055 56.0249L16.8803 63.0867L24.0212 63.6142L27.0791 68.8965L23.9702 75.4027L29.4706 80.0079L35.2962 75.8141L41.0409 77.8978L42.8257 84.8717H49.993L51.776 77.8978L57.5208 75.8124L63.3464 80.0079L68.845 75.4114L65.7361 68.9053L68.801 63.6213L75.9419 63.0867ZM46.4094 68.9176C27.5152 68.5941 27.5187 40.4929 46.4094 40.1728C65.3018 40.4946 65.2982 68.5976 46.4094 68.9176Z" fill="#FEF6CC"/>
<path d="M75.9426 63.0873L77.2069 56.0325L70.6462 53.0432L69.6017 47.0312L74.7222 42.0267C72.8179 38.7104 73.0605 39.1306 71.1562 35.8125L66.3539 37.1401C67.7835 47.4321 60.567 65.5139 50.2328 68.3994C43.2607 72.5844 33.7811 73.9578 25.6994 71.7879L23.9727 75.4014L29.4712 80.0085L35.2968 75.8147L41.0416 77.8984L42.8264 84.8722H49.9937L51.7767 77.8984L57.5214 75.8129L63.3471 80.0085L68.8456 75.412L65.7367 68.9058L68.8017 63.6218L75.9426 63.0873Z" fill="#FDEC99"/>
<path d="M49.9942 85.4383H42.8269C42.6999 85.439 42.5763 85.3971 42.4759 85.3194C42.3755 85.2416 42.304 85.1324 42.273 85.0093L40.5638 78.3273L35.387 76.4475C27.2403 81.9619 31.3901 81.8107 23.6056 75.8426C23.5081 75.7615 23.4405 75.6502 23.4134 75.5263C23.3864 75.4024 23.4014 75.273 23.4562 75.1586L26.4367 68.9303L23.6742 64.1685L16.834 63.6551C16.7063 63.6469 16.5849 63.5963 16.4893 63.5112C16.3937 63.4261 16.3294 63.3115 16.3065 63.1856L15.0422 56.1326C15.0198 56.0077 15.0396 55.8789 15.0985 55.7665C15.1574 55.6541 15.252 55.5645 15.3675 55.5119L21.6538 52.6404L22.5963 47.2209L17.6903 42.4381C17.5995 42.3498 17.5406 42.2337 17.5231 42.1082C17.5056 41.9828 17.5304 41.855 17.5936 41.7452L21.1597 35.531C21.2229 35.4209 21.321 35.3349 21.4384 35.2865C21.5559 35.2381 21.6861 35.2301 21.8085 35.2637L28.4641 37.103L32.6703 33.5616L32.0038 26.7372C31.9917 26.6109 32.0216 26.4841 32.0891 26.3766C32.1565 26.2691 32.2576 26.1869 32.3766 26.1428L39.1078 23.6811C39.2268 23.6377 39.3568 23.635 39.4774 23.6736C39.598 23.7121 39.7024 23.7895 39.7743 23.8938L43.6691 29.563H49.1642L53.0591 23.8938C53.1309 23.7895 53.2353 23.7121 53.3559 23.6736C53.4765 23.635 53.6065 23.6377 53.7255 23.6811L60.4567 26.1428C60.5757 26.1869 60.6768 26.2691 60.7443 26.3766C60.8117 26.4841 60.8417 26.6109 60.8295 26.7372L60.156 33.5616L64.3586 37.103L71.0072 35.2655C71.1297 35.2319 71.2599 35.2399 71.3773 35.2882C71.4947 35.3366 71.5928 35.4226 71.656 35.5328C76.184 44.2563 77.0386 40.1662 70.2194 47.2227L71.1619 52.6421L77.4483 55.5136C77.5637 55.5663 77.6583 55.6559 77.7172 55.7683C77.7761 55.8807 77.7959 56.0094 77.7736 56.1343L76.5093 63.1873C76.4867 63.3134 76.4224 63.4282 76.3267 63.5133C76.231 63.5985 76.1096 63.649 75.9817 63.6568L69.1415 64.1615L66.3826 68.9303L69.3613 75.1657C69.4161 75.28 69.4311 75.4094 69.4041 75.5333C69.377 75.6572 69.3093 75.7686 69.2119 75.8497C61.4203 81.8283 65.5737 81.9584 57.4305 76.4546L52.252 78.3343L50.5428 85.0163C50.5106 85.1373 50.4394 85.2442 50.3402 85.3205C50.241 85.3968 50.1193 85.4382 49.9942 85.4383ZM43.27 84.2953H49.5493C49.7075 84.0878 51.1125 77.1298 51.582 77.3566C59.8958 74.4641 55.9675 74.4113 63.3212 79.2786L68.1392 75.2501C64.6488 67.1367 63.9876 70.9965 68.3151 63.3263C68.1674 62.8216 75.2538 62.6704 75.4648 62.549L76.5743 56.3682C76.3985 56.1801 69.7816 53.5548 70.0911 53.1345C68.7107 44.455 67.9458 48.327 74.0141 41.9316L70.8876 36.4806C62.2855 38.4975 65.9922 39.8092 59.1907 34.2368C58.6631 34.3001 59.7305 27.2876 59.6478 27.0607L53.7501 24.9067C48.4503 32.0107 52.1588 30.574 43.3755 30.7094C43.0238 31.0963 39.2977 25.0298 39.0902 24.9067L33.1925 27.0607C33.1169 27.3104 34.1649 34.2861 33.6497 34.2368C26.8429 39.8163 30.5514 38.4922 21.9527 36.4806L18.8263 41.9316C24.9016 48.327 24.1261 44.4655 22.7493 53.1345C23.0746 53.5477 16.419 56.1853 16.2678 56.3682L17.3756 62.549C17.6112 62.6686 24.6572 62.8233 24.5253 63.3263C28.8527 71.0035 28.1793 67.1403 24.7011 75.2501L29.5192 79.2786C36.8746 74.406 32.9534 74.4693 41.2584 77.3566C41.705 77.114 43.1152 84.1107 43.27 84.2953ZM46.4105 69.4895C26.7708 69.1378 26.7725 39.9481 46.4105 39.5965C66.0485 39.9534 66.0467 69.1396 46.4105 69.4895ZM46.4105 40.7447C28.2725 41.07 28.2742 68.023 46.4105 68.3518C64.5468 68.0212 64.545 41.0665 46.4105 40.7447Z" fill="#2E0F07"/>
<path d="M46.4095 40.1729C27.5154 40.4946 27.5189 68.5976 46.4095 68.9176C65.3019 68.5941 65.2984 40.4929 46.4095 40.1729ZM46.4095 61.2967C37.5348 61.1384 37.5366 47.9503 46.4095 47.7921C55.2825 47.9521 55.2825 61.1402 46.4095 61.2967Z" fill="#E7EEF7"/>
<path d="M57.5691 45.4883C57.2074 49.2508 55.6325 52.7939 53.0817 55.5833C52.5453 59.6804 47.926 62.4271 44.0311 60.8586C40.4369 61.7044 36.3064 61.2841 33.0234 59.7824C41.9685 79.7791 70.5691 63.2166 57.5691 45.4883Z" fill="#CFDEEE"/>
<path d="M46.4088 69.4897C26.7691 69.138 26.7709 39.9484 46.4088 39.5967C66.0468 39.9536 66.045 69.1398 46.4088 69.4897ZM46.4088 40.7449C28.2708 41.0702 28.2725 68.0232 46.4088 68.352C64.5451 68.0214 64.5433 41.0667 46.4088 40.7449ZM46.4088 61.8687C36.7833 61.6929 36.7833 47.3917 46.4088 47.2212C56.0326 47.3935 56.0326 61.6982 46.4088 61.8687ZM46.4088 48.3641C38.2849 48.5101 38.2867 60.5816 46.4088 60.7258C54.5309 60.5816 54.5292 48.5083 46.4088 48.3571V48.3641Z" fill="#2E0F07"/>
<path d="M141.372 7.87402H68.8634C67.1202 7.87402 65.707 9.28717 65.707 11.0304V58.6992C65.707 60.4424 67.1202 61.8556 68.8634 61.8556H141.372C143.115 61.8556 144.528 60.4424 144.528 58.6992V11.0304C144.528 9.28717 143.115 7.87402 141.372 7.87402Z" fill="#D0F3F3"/>
<path d="M138.295 25.8757C121.33 47.5851 91.8698 52.9429 65.7063 52.3715C66.0439 55.2148 64.2345 61.7684 68.8715 61.8563H141.376C142.213 61.854 143.014 61.5207 143.605 60.9293C144.197 60.3379 144.53 59.5364 144.532 58.7V13.5967C143.15 18.0578 140.929 21.9808 138.295 25.8757Z" fill="#A5E9E7"/>
<path d="M141.376 62.4237H68.8644C67.8758 62.4228 66.928 62.0298 66.2288 61.3309C65.5296 60.6321 65.1362 59.6844 65.1348 58.6959V11.0323C65.1362 10.0436 65.5295 9.09578 66.2287 8.39665C66.9278 7.69752 67.8756 7.30413 68.8644 7.30273H141.376C142.365 7.30413 143.312 7.69757 144.011 8.39676C144.71 9.09594 145.103 10.0438 145.104 11.0323V58.6994C145.102 59.6872 144.709 60.6339 144.01 61.3321C143.311 62.0302 142.364 62.4228 141.376 62.4237ZM68.8644 8.44043C68.1786 8.44136 67.5213 8.71418 67.0364 9.19906C66.5515 9.68395 66.2787 10.3413 66.2777 11.0271V58.6994C66.2787 59.385 66.5515 60.0422 67.0365 60.5268C67.5214 61.0114 68.1788 61.2838 68.8644 61.2843H141.376C142.061 61.2838 142.719 61.0113 143.203 60.5267C143.688 60.042 143.96 59.3848 143.961 58.6994V11.0323C143.961 10.6924 143.895 10.3557 143.765 10.0415C143.636 9.72732 143.445 9.44172 143.205 9.20103C142.965 8.96035 142.68 8.76931 142.366 8.6388C142.052 8.5083 141.716 8.44089 141.376 8.44043H68.8644Z" fill="#2E0F07"/>
<path d="M144.528 17.6668H65.7076C66.0769 14.7742 64.1655 7.96566 68.8727 7.87598H141.377C146.076 7.97269 144.159 14.7707 144.528 17.6668Z" fill="#88ACD5"/>
<path d="M144.527 18.2385C143.945 17.6758 65.0217 19.3199 65.136 17.6688C65.4385 14.3858 63.615 7.41371 68.8638 7.30469H141.376C146.603 7.39613 144.815 14.4016 145.103 17.6688C145.103 17.7441 145.088 17.8187 145.059 17.8882C145.03 17.9576 144.987 18.0207 144.934 18.0736C144.88 18.1266 144.816 18.1684 144.747 18.1967C144.677 18.225 144.602 18.2392 144.527 18.2385ZM66.2772 17.0955H143.955V11.0325C143.956 10.347 143.685 9.68901 143.201 9.20309C142.718 8.71716 142.061 8.44295 141.376 8.44062H68.8638C68.1781 8.44155 67.5207 8.71437 67.0359 9.19926C66.551 9.68414 66.2782 10.3415 66.2772 11.0272V17.0955Z" fill="#2E0F07"/>
<path d="M125.835 12.7713C125.778 16.1123 120.818 16.1123 120.762 12.7713C120.818 9.4356 125.778 9.4356 125.835 12.7713Z" fill="#DEC8FB"/>
<path d="M124.798 10.7266C124.631 11.6079 124.154 12.4003 123.453 12.9605C122.753 13.5207 121.875 13.8117 120.979 13.7809C122.966 17.5844 128.067 13.5084 124.798 10.7266Z" fill="#C59EF8"/>
<path d="M123.298 15.8808C119.221 15.807 119.221 9.73518 123.3 9.67188C127.385 9.73518 127.383 15.807 123.298 15.8808ZM123.298 10.8061C120.715 10.8518 120.717 14.6904 123.298 14.7379C125.883 14.6904 125.881 10.8518 123.298 10.8061Z" fill="#2E0F07"/>
<path d="M123.748 11.361C123.748 11.943 122.841 11.943 122.85 11.361C122.858 10.779 123.757 10.7772 123.748 11.361Z" fill="white"/>
<path d="M122.851 11.8921C122.851 12.388 122.077 12.388 122.084 11.8921C122.091 11.3962 122.858 11.3945 122.851 11.8921Z" fill="white"/>
<path d="M133.419 12.7713C133.361 16.1123 128.4 16.1123 128.344 12.7713C128.402 9.4356 133.362 9.4356 133.419 12.7713Z" fill="#DEC8FB"/>
<path d="M132.379 10.7266C132.213 11.6093 131.735 12.403 131.034 12.9638C130.332 13.5245 129.452 13.8151 128.555 13.7827C130.549 17.5844 135.648 13.5084 132.379 10.7266Z" fill="#C59EF8"/>
<path d="M130.88 15.8808C126.795 15.807 126.795 9.73518 130.88 9.66309C134.965 9.73518 134.965 15.807 130.88 15.8808ZM130.88 10.8061C128.297 10.8518 128.297 14.6904 130.88 14.7379C133.463 14.6904 133.463 10.8518 130.88 10.8061Z" fill="#2E0F07"/>
<path d="M131.33 11.361C131.33 11.943 130.423 11.943 130.432 11.361C130.44 10.779 131.337 10.7772 131.33 11.361Z" fill="white"/>
<path d="M130.433 11.8921C130.433 12.388 129.657 12.388 129.664 11.8921C129.671 11.3962 130.44 11.3945 130.433 11.8921Z" fill="white"/>
<path d="M140.999 12.7713C140.943 16.1123 135.982 16.1123 135.926 12.7713C135.982 9.4356 140.943 9.4356 140.999 12.7713Z" fill="#DEC8FB"/>
<path d="M139.969 10.7266C139.802 11.6094 139.324 12.4032 138.622 12.9639C137.92 13.5246 137.04 13.8151 136.143 13.7827C138.128 17.5844 143.229 13.5084 139.969 10.7266Z" fill="#C59EF8"/>
<path d="M138.463 15.8808C134.376 15.807 134.378 9.73518 138.463 9.66309C142.547 9.73518 142.547 15.807 138.463 15.8808ZM138.463 10.8061C135.88 10.8518 135.88 14.6904 138.463 14.7379C141.046 14.6904 141.044 10.8518 138.463 10.8061Z" fill="#2E0F07"/>
<path d="M138.914 11.361C138.914 11.943 138.007 11.943 138.016 11.361C138.024 10.779 138.914 10.7772 138.914 11.361Z" fill="white"/>
<path d="M138.013 11.8921C138.013 12.388 137.239 12.388 137.246 11.8921C137.253 11.3962 138.02 11.3945 138.013 11.8921Z" fill="white"/>
<path d="M84.2464 39.7617C86.513 40.0009 91.5455 38.6504 91.6141 42.2991V55.3202H81.709V42.2991C81.709 41.6262 81.9763 40.9808 82.4522 40.5049C82.928 40.0291 83.5734 39.7617 84.2464 39.7617Z" fill="#FCD890"/>
<path d="M89.7186 39.8438C90.6769 45.3581 86.8277 51.0695 81.709 51.3649V55.3195H91.6141V42.2985C91.6138 41.7374 91.4276 41.1922 91.0847 40.7481C90.7417 40.304 90.2613 39.986 89.7186 39.8438Z" fill="#F9B122"/>
<path d="M91.6133 55.8911H81.7082C81.5568 55.8906 81.4117 55.8303 81.3046 55.7232C81.1975 55.6161 81.1372 55.471 81.1367 55.3196V42.2985C81.2457 38.1258 86.3873 39.3567 89.076 39.1897C89.9002 39.1906 90.6904 39.5184 91.2732 40.1013C91.8561 40.6841 92.1839 41.4743 92.1848 42.2985V55.3196C92.1844 55.471 92.124 55.6161 92.0169 55.7232C91.9099 55.8303 91.7648 55.8906 91.6133 55.8911ZM82.2797 54.7481H91.0419V42.2985C91.0409 41.7774 90.8335 41.2779 90.465 40.9095C90.0966 40.541 89.5971 40.3336 89.076 40.3326H84.2456C83.7245 40.3336 83.225 40.541 82.8565 40.9095C82.488 41.2779 82.2806 41.7774 82.2797 42.2985V54.7481Z" fill="#2E0F07"/>
<path d="M85.4597 42.7294C85.4597 44.1572 83.2846 44.1572 83.2793 42.7294C83.274 41.3015 85.4597 41.3086 85.4597 42.7294Z" fill="#FFEBF1"/>
<path d="M85.4597 45.4201C85.4597 46.8462 83.2846 46.8462 83.2793 45.4201C83.274 43.9941 85.4597 43.9941 85.4597 45.4201Z" fill="#FFEBF1"/>
<path d="M103.412 32.6626C105.679 32.9018 110.712 31.5495 110.78 35.2V55.3198H100.875V35.2C100.875 34.8668 100.941 34.5368 101.068 34.229C101.196 33.9211 101.383 33.6414 101.618 33.4058C101.854 33.1702 102.134 32.9833 102.441 32.8558C102.749 32.7282 103.079 32.6626 103.412 32.6626Z" fill="#D6BAFA"/>
<path d="M108.885 32.7451C109.843 38.2595 105.994 43.9708 100.875 44.2662V55.3196H110.78V35.1999C110.78 34.6388 110.594 34.0936 110.251 33.6494C109.908 33.2053 109.427 32.8873 108.885 32.7451Z" fill="#AD75F5"/>
<path d="M110.779 55.8912H100.874C100.723 55.8907 100.578 55.8303 100.471 55.7233C100.364 55.6162 100.303 55.4711 100.303 55.3197V35.1999C100.41 31.0272 105.553 32.2581 108.242 32.091C109.066 32.092 109.856 32.4198 110.439 33.0026C111.022 33.5855 111.35 34.3757 111.351 35.1999V55.3197C111.35 55.4711 111.29 55.6162 111.183 55.7233C111.076 55.8303 110.931 55.8907 110.779 55.8912ZM101.446 54.7482H110.208V35.1999C110.207 34.6788 110 34.1793 109.631 33.8108C109.263 33.4424 108.763 33.2349 108.242 33.234H103.412C102.891 33.2349 102.391 33.4424 102.023 33.8108C101.654 34.1793 101.447 34.6788 101.446 35.1999V54.7482Z" fill="#2E0F07"/>
<path d="M104.626 35.636C104.626 37.0638 102.451 37.062 102.445 35.636C102.44 34.2099 104.626 34.2099 104.626 35.636Z" fill="#FFEBF1"/>
<path d="M104.626 38.3215C104.626 39.7476 102.451 39.7476 102.445 38.3215C102.44 36.8954 104.626 36.8954 104.626 38.3215Z" fill="#FFEBF1"/>
<path d="M121.155 28.4038C123.422 28.643 128.453 27.2907 128.523 30.9412V55.3199H118.623V30.9482C118.622 30.6149 118.687 30.2846 118.814 29.9763C118.94 29.668 119.127 29.3877 119.362 29.1514C119.597 28.9151 119.876 28.7274 120.184 28.5992C120.492 28.4709 120.822 28.4045 121.155 28.4038Z" fill="#89E5C4"/>
<path d="M126.633 28.4863C127.589 34.0007 123.742 39.712 118.623 40.0075V55.3197H128.528V30.9481C128.529 30.3858 128.344 29.839 128.001 29.3934C127.658 28.9479 127.177 28.6289 126.633 28.4863Z" fill="#13CC89"/>
<path d="M128.527 55.8916H118.622C118.471 55.8916 118.325 55.8314 118.218 55.7243C118.111 55.6171 118.051 55.4717 118.051 55.3202V30.9485C118.158 26.7776 123.3 28.0067 125.99 27.8397C126.814 27.8406 127.604 28.1684 128.187 28.7513C128.77 29.3341 129.098 30.1243 129.099 30.9485V55.3202C129.098 55.4716 129.038 55.6167 128.931 55.7237C128.824 55.8308 128.679 55.8912 128.527 55.8916ZM119.194 54.7487H127.956V30.9485C127.955 30.4274 127.748 29.9279 127.379 29.5595C127.011 29.191 126.511 28.9836 125.99 28.9826H121.154C120.634 28.985 120.136 29.193 119.769 29.5613C119.401 29.9296 119.195 30.4283 119.194 30.9485V54.7487Z" fill="#2E0F07"/>
<path d="M122.385 31.3772C122.385 32.8032 120.21 32.8032 120.203 31.3772C120.196 29.9511 122.373 29.9511 122.385 31.3772Z" fill="#FFEBF1"/>
<path d="M122.385 34.0627C122.385 35.4888 120.21 35.4888 120.203 34.0627C120.196 32.6366 122.373 32.6366 122.385 34.0627Z" fill="#FFEBF1"/>
<path d="M116.88 13.8089L110.077 15.1066C109.296 15.2543 109.046 16.2162 109.611 16.8932L110.397 17.8357L93.4947 30.9746L83.4718 20.5173C83.088 20.2739 82.6344 20.1647 82.1819 20.2067C81.7295 20.2487 81.3037 20.4395 80.9713 20.7494L69.2005 31.8098C68.8041 32.1829 68.5721 32.6982 68.5556 33.2423C68.5391 33.7864 68.7395 34.3148 69.1126 34.7112C69.4857 35.1076 70.0009 35.3396 70.545 35.356C71.0892 35.3725 71.6175 35.1722 72.0139 34.7991L82.6225 24.8324L92.5135 35.2071C92.8708 35.4345 93.2897 35.546 93.7127 35.5261C94.1358 35.5063 94.5424 35.3562 94.8768 35.0963L113.022 20.9833L114.047 22.2141C114.619 22.9017 115.63 22.8155 115.897 22.0559L118.269 15.4284C118.564 14.5949 117.749 13.6436 116.88 13.8089Z" fill="#ACD350"/>
<path d="M114.874 15.659C114.874 17.0816 112.681 17.0816 112.674 15.659C112.667 14.2365 114.867 14.2435 114.874 15.659Z" fill="#E2F0C2"/>
<path d="M77.9265 25.7404C74.2461 29.0813 73.8012 28.5995 77.4939 25.2656C81.1866 21.9316 81.6192 22.4046 77.9265 25.7404Z" fill="#E2F0C2"/>
<path d="M104.488 24.2873C98.7639 28.7238 98.3577 28.1997 104.095 23.7791C109.833 19.3584 110.225 19.8701 104.488 24.2873Z" fill="#E2F0C2"/>
<path d="M69.0051 32.0206C67.9079 33.2743 68.9488 35.4249 70.6053 35.3616C71.801 35.7326 77.398 29.4709 78.2966 28.8994C75.4931 30.6669 72.3071 31.7372 69.0051 32.0206Z" fill="#87BF02"/>
<path d="M114.622 20.674C114.195 20.919 113.756 21.1403 113.305 21.3369L114.034 22.2161C114.602 22.9195 115.617 22.8315 115.893 22.0666L117.142 18.5762C116.414 19.4001 115.564 20.1076 114.622 20.674Z" fill="#87BF02"/>
<path d="M90.1367 32.7243L92.5106 35.216C92.8678 35.4434 93.2867 35.5549 93.7098 35.5351C94.1329 35.5152 94.5395 35.3651 94.8739 35.1052L101.908 29.6348C97.7331 31.1101 94.9917 34.5249 90.1367 32.7243Z" fill="#87BF02"/>
<path d="M93.6131 36.1071C92.4315 36.9863 83.4143 26.1263 82.5966 25.641L72.3978 35.2173C72.1467 35.4533 71.8516 35.6375 71.5293 35.7595C71.2069 35.8814 70.8638 35.9387 70.5193 35.928C70.1749 35.9173 69.8359 35.8388 69.5218 35.6971C69.2076 35.5554 68.9245 35.3533 68.6885 35.1021C68.4525 34.851 68.2682 34.5559 68.1463 34.2335C68.0244 33.9112 67.9671 33.568 67.9778 33.2236C67.9885 32.8792 68.067 32.5402 68.2087 32.226C68.3503 31.9119 68.5525 31.6288 68.8037 31.3928L80.5745 20.3341C80.9997 19.9348 81.5458 19.6884 82.1266 19.634C82.7074 19.5795 83.2898 19.7201 83.7818 20.0334C83.9489 20.0967 93.4074 30.1162 93.5463 30.2058L109.567 17.7457C108.472 16.7557 108.31 14.9657 109.958 14.5454L116.768 13.2477C118.022 12.9628 119.274 14.4364 118.799 15.6286L116.427 22.256C116.015 23.4676 114.355 23.5678 113.599 22.5884L112.928 21.7813C112.379 21.9642 93.9841 37.1973 93.6131 36.1071ZM92.8711 34.7654C93.1263 34.913 93.4197 34.9811 93.7138 34.961C94.0079 34.941 94.2894 34.8337 94.5222 34.6529L112.667 20.5398C113.351 19.9701 114.086 21.5316 114.482 21.8569C114.777 22.184 115.196 22.2349 115.361 21.871L117.733 15.2435C117.762 15.1344 117.764 15.02 117.739 14.91C117.714 14.7999 117.663 14.6975 117.59 14.6113C117.518 14.5251 117.425 14.4576 117.321 14.4146C117.217 14.3717 117.104 14.3544 116.991 14.3643L110.176 15.6673C110.113 15.6782 110.054 15.706 110.005 15.7479C109.957 15.7897 109.921 15.8439 109.901 15.9047C109.597 16.6942 111.619 17.5118 110.744 18.2855L93.847 31.4262C93.7353 31.5128 93.5955 31.555 93.4546 31.5446C93.3136 31.5342 93.1816 31.472 93.0838 31.3699L83.1189 20.9654C82.8431 20.8052 82.523 20.7384 82.2061 20.7748C81.8893 20.8112 81.5927 20.949 81.3605 21.1676L69.5897 32.2263C68.6173 33.0879 69.296 34.8287 70.6043 34.7865C70.8557 35.6077 81.9372 24.5121 82.2256 24.4119C82.3354 24.3083 82.4818 24.2524 82.6326 24.2564C82.7835 24.2603 82.9267 24.3238 83.031 24.433L92.8711 34.7654Z" fill="#2E0F07"/>
<path d="M83.2911 50.6351L62.6431 43.1198C61.5188 42.7106 60.2757 43.2903 59.8665 44.4146L49.4969 72.9048C49.0877 74.0291 49.6674 75.2722 50.7917 75.6814L71.4397 83.1967C72.564 83.6059 73.8071 83.0262 74.2163 81.9019L84.5859 53.4118C84.9951 52.2875 84.4154 51.0443 83.2911 50.6351Z" fill="#D1B2F9"/>
<path d="M52.3023 65.1931C63.9781 73.3434 81.4919 64.3139 81.3899 49.9424C83.064 50.5086 85.3077 51.0959 84.585 53.41L74.2103 81.8963C74.0133 82.4358 73.6103 82.875 73.0898 83.1177C72.5692 83.3603 71.9736 83.3865 71.4338 83.1905L50.79 75.6803C50.5228 75.5831 50.2774 75.4342 50.0677 75.2422C49.8581 75.0501 49.6883 74.8187 49.5681 74.561C49.4479 74.3033 49.3797 74.0245 49.3673 73.7404C49.3549 73.4564 49.3986 73.1727 49.4958 72.9055L52.3023 65.1931Z" fill="#C39AF8"/>
<path d="M72.1774 83.8991C71.8589 83.8993 71.5428 83.8433 71.2437 83.7338L50.5946 76.2183C49.913 75.9694 49.3581 75.4602 49.0515 74.8025C48.7449 74.1448 48.7117 73.3924 48.9593 72.7103L59.3339 44.224C59.5848 43.5417 60.0955 42.9865 60.7546 42.6797C61.4136 42.373 62.1672 42.3396 62.8508 42.5869L83.4858 50.0971C83.8241 50.2193 84.1348 50.4074 84.4001 50.6503C84.6654 50.8933 84.8799 51.1863 85.0314 51.5126C86.7898 51.5126 74.6462 81.4056 74.7517 82.0984C74.5589 82.6262 74.2085 83.082 73.7481 83.4041C73.2876 83.7262 72.7393 83.8989 72.1774 83.8991ZM71.634 82.6594C72.0314 82.8038 72.4698 82.7845 72.853 82.6058C73.2361 82.4271 73.5326 82.1036 73.6773 81.7063L84.052 53.22C84.1964 52.8213 84.1768 52.3815 83.9975 51.9971C83.8182 51.6128 83.4938 51.3152 83.0954 51.1697L62.4463 43.656C62.2496 43.5843 62.0407 43.552 61.8315 43.5611C61.6223 43.5702 61.4169 43.6204 61.2271 43.7089C61.0373 43.7975 60.8669 43.9225 60.7255 44.077C60.5841 44.2314 60.4745 44.4122 60.4031 44.6091L50.0284 73.0954C49.9564 73.2932 49.9243 73.5033 49.9339 73.7136C49.9435 73.924 49.9947 74.1303 50.0844 74.3207C50.1741 74.5112 50.3007 74.682 50.4568 74.8232C50.6129 74.9645 50.7954 75.0735 50.9938 75.1439L71.634 82.6594Z" fill="#2E0F07"/>
<path d="M80.631 53.6929L62.3161 47.0269C61.9183 46.882 61.4783 47.0872 61.3335 47.4851L59.8348 51.6028C59.6899 52.0007 59.8951 52.4406 60.293 52.5854L78.6078 59.2515C79.0057 59.3963 79.4457 59.1912 79.5905 58.7933L81.0892 54.6756C81.234 54.2777 81.0289 53.8377 80.631 53.6929Z" fill="#C5F1F0"/>
<path d="M78.8679 59.651C78.4354 59.702 60.5804 52.9972 60.1707 52.9163C60.0326 52.867 59.9058 52.7906 59.7977 52.6915C59.6896 52.5925 59.6024 52.4728 59.5412 52.3395C59.0577 51.7698 60.9128 47.9751 61.0025 47.365C61.1043 47.0866 61.3124 46.8601 61.581 46.7348C61.8496 46.6096 62.1569 46.5959 62.4356 46.6968L80.7512 53.3629C80.8895 53.4127 81.0165 53.4895 81.1249 53.5888C81.2333 53.6881 81.3208 53.808 81.3825 53.9414C81.8625 54.5024 80.0127 58.3111 79.9195 58.916C79.8408 59.1316 79.6977 59.3178 79.5096 59.4493C79.3215 59.5808 79.0975 59.6512 78.8679 59.651ZM78.7273 58.923C78.8301 58.9593 78.9432 58.9537 79.0419 58.9073C79.1406 58.8609 79.2171 58.7774 79.2548 58.6751L80.7547 54.5551C80.7906 54.4522 80.7847 54.3394 80.7383 54.2408C80.692 54.1422 80.6089 54.0657 80.5068 54.0276C80.1938 54.0381 62.1859 47.1188 61.8676 47.3755C61.6671 47.1997 60.234 51.6572 60.1532 51.7293C60.1173 51.8322 60.1232 51.9451 60.1696 52.0437C60.2159 52.1423 60.299 52.2188 60.4011 52.2569L78.7273 58.923Z" fill="#2E0F07"/>
<path d="M69.1722 77.8083C66.2831 76.7005 67.8569 72.3765 70.7829 73.3859C73.6773 74.4937 72.0947 78.8158 69.1722 77.8083Z" fill="#FCE469"/>
<path d="M69.9748 78.3028C69.6605 78.3026 69.3486 78.2472 69.0534 78.1393C65.7124 76.8556 67.564 71.8688 70.9261 73.0645C73.729 74.1055 72.929 78.3221 69.9748 78.3028ZM69.9748 73.5938C67.7803 73.5691 67.2141 76.7483 69.2908 77.4781C72.2713 78.3872 73.0855 73.7555 69.9854 73.5938H69.9748Z" fill="#2E0F07"/>
<path d="M62.5824 75.4101C59.6934 74.3023 61.2672 69.9784 64.1914 70.986C67.0805 72.0955 65.5067 76.4177 62.5824 75.4101Z" fill="#FCE469"/>
<path d="M63.3837 75.9027C63.0689 75.9031 62.7564 75.8483 62.4605 75.7409C59.1283 74.4573 60.9676 69.4739 64.335 70.6661C67.1379 71.7071 66.3378 75.922 63.3837 75.9027ZM62.7014 75.085C65.1913 75.9414 66.526 72.261 64.0712 71.322C61.5813 70.4621 60.2467 74.1407 62.7014 75.085Z" fill="#2E0F07"/>
<path d="M55.9907 73.01C53.1016 71.9022 54.6754 67.58 57.5996 68.5876C60.4887 69.6954 58.9149 74.0193 55.9907 73.01Z" fill="#FCE469"/>
<path d="M56.7958 73.5018C52.6073 73.3136 53.7204 66.9957 57.7225 68.2547C60.5465 69.2816 59.7588 73.5211 56.7958 73.5018ZM56.7958 68.7945C54.6154 68.7558 54.0228 71.9597 56.1101 72.6771C59.0818 73.5932 59.9047 68.9598 56.7958 68.7963V68.7945Z" fill="#2E0F07"/>
<path d="M71.3917 71.7243C68.5044 70.6165 70.0781 66.2925 73.0024 67.3019C75.8862 68.4026 74.3106 72.7336 71.3917 71.7243Z" fill="#FFA18A"/>
<path d="M71.3917 71.7243C68.5044 70.6165 70.0781 66.2925 73.0024 67.3019C75.8862 68.4026 74.3106 72.7336 71.3917 71.7243Z" fill="#FCE469"/>
<path d="M72.1925 72.2184C67.9899 72.0021 69.0872 65.7421 73.1157 66.9713C75.9239 67.9577 75.1572 72.2536 72.1925 72.2184ZM72.1925 67.5094C69.998 67.483 69.4336 70.6745 71.5103 71.3937C74.4697 72.3292 75.2926 67.6483 72.189 67.5094H72.1925Z" fill="#2E0F07"/>
<path d="M64.7967 69.3258C61.9077 68.218 63.4832 63.8941 66.4074 64.9034C69.2948 66.0095 67.721 70.3369 64.7967 69.3258Z" fill="#FCE469"/>
<path d="M65.5981 69.8199C65.2837 69.8197 64.9719 69.7643 64.6767 69.6564C61.3357 68.3675 63.1978 63.3648 66.5687 64.5886C69.347 65.6103 68.5223 69.8709 65.5981 69.8199ZM64.9176 68.9952C67.4057 69.8516 68.7421 66.1712 66.2856 65.2322C63.801 64.3741 62.4593 68.051 64.9176 68.9952Z" fill="#2E0F07"/>
<path d="M58.2035 66.9259C55.3145 65.8199 56.8882 61.496 59.8125 62.5035C62.7033 63.6113 61.1295 67.9353 58.2035 66.9259Z" fill="#FFA18A"/>
<path d="M58.2035 66.9259C55.3145 65.8199 56.8882 61.496 59.8125 62.5035C62.7033 63.6113 61.1295 67.9353 58.2035 66.9259Z" fill="#FCE469"/>
<path d="M59.0074 67.4199C58.6925 67.4195 58.3801 67.3641 58.0842 67.2563C54.7432 65.9762 56.6001 60.97 59.978 62.1886C62.7563 63.212 61.9298 67.4726 59.0074 67.4199ZM58.3251 66.5969C60.815 67.4515 62.1496 63.7729 59.6949 62.8339C57.205 61.9776 55.8703 65.6579 58.3251 66.5969Z" fill="#2E0F07"/>
<path d="M73.602 65.6403C70.7129 64.5325 72.2867 60.2086 75.2109 61.2179C78.1 62.3257 76.5262 66.6444 73.602 65.6403Z" fill="#FCE469"/>
<path d="M74.4032 66.1345C70.2041 65.9147 71.3049 59.6582 75.3316 60.8874C78.1574 61.909 77.3696 66.1521 74.4032 66.1345ZM74.4032 61.4272C72.2087 61.3991 71.6425 64.5923 73.7192 65.3098C76.7014 66.2224 77.5156 61.5872 74.405 61.4272H74.4032Z" fill="#2E0F07"/>
<path d="M67.0089 63.2419C64.1215 62.1341 65.6953 57.8101 68.6196 58.8195C71.5086 59.9273 69.9331 64.2494 67.0089 63.2419Z" fill="#FCE469"/>
<path d="M67.8172 63.7355C67.5011 63.735 67.1876 63.6797 66.8905 63.572C63.5495 62.2848 65.4081 57.2856 68.7825 58.5042C71.5467 59.5223 70.759 63.7707 67.8172 63.7355ZM67.8172 59.0265C65.6244 59.0019 65.0582 62.1811 67.1349 62.9108C70.0943 63.8463 70.9172 59.1636 67.8136 59.0265H67.8172Z" fill="#2E0F07"/>
<path d="M60.4198 60.8418C57.5307 59.734 59.1063 55.41 62.0305 56.4176C64.9178 57.5272 63.344 61.8511 60.4198 60.8418Z" fill="#FCE469"/>
<path d="M61.2262 61.3377C60.91 61.3378 60.5962 61.2818 60.2995 61.1724C56.9585 59.8905 58.8101 54.9019 62.1722 56.0976C64.9611 57.1333 64.1962 61.343 61.2262 61.3377ZM60.5404 60.513C63.0268 61.3729 64.3667 57.689 61.9085 56.75C59.4238 55.8919 58.0822 59.5687 60.5404 60.513Z" fill="#2E0F07"/>
<path d="M49.9574 55.0385C46.7289 55.8913 40.6817 60.05 38.7739 55.093L30.1172 31.314L43.555 26.4238L52.2117 50.2081C52.5521 51.1477 52.5059 52.1839 52.0833 53.0894C51.6607 53.995 50.8961 54.6959 49.9574 55.0385Z" fill="#ABC5E1"/>
<path d="M42.3249 58.1542C41.4328 58.1539 40.5624 57.8795 39.8314 57.3681C39.1005 56.8567 38.5443 56.133 38.2383 55.295L29.5799 31.509C29.5294 31.3664 29.5371 31.2098 29.6012 31.0729C29.6654 30.9359 29.7809 30.8298 29.9228 30.7775L43.3606 25.8856C43.5031 25.8341 43.6601 25.8413 43.7973 25.9056C43.9345 25.9699 44.0405 26.086 44.0921 26.2284L52.7523 50.0128C53.1449 51.096 53.092 52.2907 52.6052 53.3349C52.1183 54.3792 51.2372 55.1878 50.1551 55.5834C49.0596 55.8911 43.3834 58.2914 42.3249 58.1542ZM30.8495 31.6514L39.3127 54.8994C41.0412 59.3464 46.8546 55.1631 49.763 54.5037C50.56 54.212 51.2089 53.6162 51.5675 52.8469C51.9261 52.0777 51.9652 51.1976 51.6761 50.3996L43.2146 27.1551L30.8495 31.6514Z" fill="#2E0F07"/>
<path d="M48.6727 11.6829C47.9167 9.60601 46.7591 7.69832 45.2658 6.06881C43.7726 4.4393 41.973 3.11987 39.9698 2.18588C37.9666 1.25189 35.7991 0.721615 33.5909 0.625347C31.3828 0.529079 29.1773 0.868698 27.1005 1.62481C10.3955 7.39417 13.8508 32.8032 31.1642 34.1889L35.0819 44.9539L48.5197 40.0637L44.6512 29.4482C46.9551 27.1848 48.5593 24.3065 49.2724 21.1565C49.9854 18.0065 49.7772 14.7179 48.6727 11.6829Z" fill="#FBF6B8"/>
<path d="M29.1555 8.5957C31.0247 14.0187 23.0011 16.9341 20.956 11.585C19.0869 6.15502 27.1035 3.23957 29.1555 8.5957Z" fill="#FFFBF4"/>
<path d="M23.6524 16.5967C24.7813 19.8726 19.9387 21.6346 18.699 18.3991C17.5683 15.1231 22.4127 13.3647 23.6524 16.5967Z" fill="#FFFBF4"/>
<path d="M41.66 3.09473C47.2869 16.8104 33.2829 31.8026 19.3281 27.454C24.2323 34.4472 30.5714 32.5235 31.9289 36.2813L35.0853 44.9538L48.5231 40.0636L45.4388 31.5898C45.2174 30.9731 45.1576 30.31 45.265 29.6636C45.3725 29.0172 45.6435 28.4091 46.0525 27.8971C52.2773 20.6841 50.0951 7.81607 41.66 3.09473Z" fill="#FCDE4C"/>
<path d="M35.0816 45.5257C34.4328 46.0936 31.7723 37.0149 31.5332 36.8743C31.3063 36.2523 30.9296 35.6958 30.4365 35.2542C29.9433 34.8125 29.3488 34.4992 28.7056 34.3421C18.331 32.0562 12.3524 19.6576 17.0421 10.1393C28.9079 -12.5038 61.1923 6.91793 46.6854 28.0066C46.2791 28.5427 46.0148 29.1727 45.9171 29.8383C45.8193 30.5038 45.8913 31.1833 46.1262 31.8135L49.0593 39.8671C49.085 39.9377 49.0966 40.0128 49.0933 40.0879C49.09 40.163 49.0719 40.2368 49.04 40.3049C49.0082 40.373 48.9632 40.4342 48.9076 40.4849C48.8521 40.5356 48.7871 40.5748 48.7164 40.6003C48.4491 40.6197 35.356 45.5696 35.0816 45.5257ZM32.866 1.17143C13.782 1.40706 10.5184 28.4444 28.9782 33.2343C29.8038 33.4362 30.5669 33.8385 31.2 34.4056C31.833 34.9727 32.3165 35.6871 32.6076 36.4857L35.421 44.2227L47.7862 39.7229L45.0501 32.2057C43.1668 26.4715 52.2191 23.7653 48.1343 11.8802C45.9363 5.55164 39.5269 1.10813 32.866 1.17143Z" fill="#2E0F07"/>
<path d="M49.1045 39.0246L34.2899 44.4177C33.9464 44.543 33.5816 44.5993 33.2163 44.5835C32.8511 44.5677 32.4925 44.48 32.1611 44.3255C31.8298 44.171 31.5321 43.9527 31.2852 43.6831C31.0383 43.4135 30.8469 43.0978 30.722 42.7542C30.4701 42.0607 30.5037 41.2955 30.8156 40.6269C31.1276 39.9582 31.6922 39.4407 32.3855 39.1881L47.2054 33.7933C47.8989 33.5413 48.6641 33.575 49.3328 33.8869C50.0014 34.1989 50.5189 34.7635 50.7715 35.4568C50.8967 35.8005 50.9529 36.1655 50.9368 36.5309C50.9208 36.8964 50.8328 37.255 50.678 37.5864C50.5231 37.9178 50.3045 38.2154 50.0345 38.4622C49.7645 38.709 49.4484 38.9001 49.1045 39.0246Z" fill="#B1C9E3"/>
<path d="M49.1517 33.8125C49.3544 34.1647 49.4777 34.557 49.513 34.9619C49.5483 35.3667 49.4947 35.7744 49.3561 36.1564C49.2174 36.5384 48.997 36.8855 48.7102 37.1734C48.4234 37.4614 48.0772 37.6832 47.6958 37.8234C46.5194 37.9817 31.7874 44.3296 30.9258 43.1989C31.2539 43.765 31.7709 44.1974 32.386 44.4202C33.0011 44.6431 33.6751 44.6421 34.2896 44.4175L49.1078 39.0244C51.4992 38.249 51.4904 34.6126 49.1517 33.8125Z" fill="#96B6DA"/>
<path d="M33.33 45.1602C32.5435 45.1562 31.7834 44.8762 31.1823 44.369C30.5812 43.8618 30.1773 43.1597 30.041 42.3851C29.9047 41.6105 30.0448 40.8127 30.4366 40.1308C30.8285 39.4489 31.4474 38.9262 32.1853 38.6541L47.0052 33.261C51.1902 31.8543 53.4216 37.9419 49.2911 39.5649C48.8322 39.6194 33.3775 45.6121 33.33 45.1602ZM48.1534 34.1965C47.8948 34.197 47.6384 34.2429 47.3956 34.3319L32.5757 39.7249C30.7557 40.3263 30.6414 43.0518 32.3998 43.808C32.8042 45.0389 48.0761 38.5327 48.9096 38.4888C51.2008 37.6834 50.5783 34.1683 48.1534 34.1965Z" fill="#2E0F07"/>
<path d="M51.0195 44.2844L36.1996 49.6775C35.8562 49.8025 35.4916 49.8587 35.1265 49.8427C34.7614 49.8268 34.4031 49.739 34.0719 49.5846C33.7408 49.4301 33.4433 49.2119 33.1965 48.9424C32.9497 48.6729 32.7584 48.3575 32.6335 48.014C32.3807 47.3215 32.4131 46.5569 32.7237 45.8882C33.0343 45.2196 33.5976 44.7015 34.2899 44.448L49.1081 39.0532C49.8018 38.8011 50.5672 38.8347 51.2362 39.1466C51.9052 39.4585 52.423 40.0232 52.6759 40.7166C52.9288 41.4094 52.8964 42.1743 52.5858 42.8432C52.2753 43.5122 51.7119 44.0305 51.0195 44.2844Z" fill="#B1C9E3"/>
<path d="M51.0658 39.0723C51.2682 39.4244 51.3912 39.8166 51.4263 40.2212C51.4614 40.6259 51.4078 41.0333 51.2692 41.4151C51.1305 41.7969 50.9102 42.1438 50.6236 42.4316C50.337 42.7194 49.991 42.9412 49.6098 43.0814C48.4317 43.2397 33.7015 49.5876 32.8398 48.4569C33.1675 49.0221 33.6836 49.4539 34.2976 49.6767C34.9117 49.8995 35.5846 49.899 36.1984 49.6755L51.0183 44.2824C53.4115 43.5087 53.4045 39.8723 51.0658 39.0723Z" fill="#96B6DA"/>
<path d="M35.2503 50.4178C32.9169 50.5075 31.1181 47.7802 32.2065 45.6455C32.3921 45.2455 32.6549 44.8863 32.98 44.5884C33.305 44.2905 33.6858 44.0599 34.1003 43.9099L48.9185 38.5098C53.1123 37.1031 55.3349 43.1978 51.2132 44.8137C50.7138 44.8858 35.3435 50.8609 35.2503 50.4178ZM50.0632 39.4576C49.8059 39.4575 49.5505 39.5027 49.3088 39.5912L34.4907 44.9843C34.2172 45.083 33.966 45.235 33.7517 45.4315C33.5373 45.628 33.3642 45.8651 33.2422 46.129C32.3841 47.8364 34.2181 49.8533 36.0029 49.1412L50.8176 43.7464C53.1334 42.9059 52.4898 39.4435 50.0632 39.4576Z" fill="#2E0F07"/>
<path d="M52.9277 49.5439L38.1078 54.9369C37.4158 55.1881 36.6526 55.1548 35.9851 54.8444C35.3177 54.5339 34.8006 53.9715 34.547 53.2805C34.4219 52.9372 34.3657 52.5727 34.3815 52.2077C34.3973 51.8427 34.4849 51.4844 34.6392 51.1533C34.7935 50.8222 35.0115 50.5246 35.2808 50.2778C35.5501 50.0309 35.8654 49.8395 36.2087 49.7144L51.0286 44.3126C51.3718 44.1875 51.7364 44.1313 52.1013 44.1471C52.4663 44.163 52.8246 44.2505 53.1558 44.4048C53.4869 44.5591 53.7844 44.7772 54.0313 45.0465C54.2782 45.3157 54.4696 45.631 54.5946 45.9743C54.7199 46.3181 54.7761 46.6832 54.76 47.0488C54.744 47.4144 54.6561 47.7732 54.5013 48.1047C54.3464 48.4362 54.1277 48.734 53.8577 48.9809C53.5877 49.2279 53.2717 49.4192 52.9277 49.5439Z" fill="#B1C9E3"/>
<path d="M52.9797 44.332C53.1826 44.6843 53.3061 45.0767 53.3414 45.4817C53.3767 45.8868 53.3231 46.2946 53.1842 46.6767C53.0454 47.0589 52.8246 47.406 52.5375 47.6938C52.2503 47.9816 51.9037 48.2032 51.5219 48.343C50.3438 48.5012 35.6118 54.8491 34.752 53.7184C35.0796 54.2836 35.5957 54.7154 36.2097 54.9382C36.8238 55.161 37.4967 55.1606 38.1105 54.937L52.9287 49.544C55.3272 48.7685 55.3184 45.1321 52.9797 44.332Z" fill="#96B6DA"/>
<path d="M37.1665 55.6774C34.8313 55.767 33.0343 53.0397 34.1227 50.905C34.3077 50.5053 34.5703 50.1462 34.895 49.8486C35.2198 49.551 35.6004 49.3207 36.0148 49.1712L50.8347 43.7852C55.0285 42.3785 57.2494 48.4731 53.1294 50.0891C52.63 50.1454 37.2597 56.1205 37.1665 55.6774ZM51.9794 44.7172C51.722 44.7169 51.4666 44.7621 51.225 44.8508L36.3999 50.2439C36.1263 50.3425 35.8751 50.4945 35.6608 50.691C35.4465 50.8875 35.2733 51.1246 35.1514 51.3886C34.2933 53.096 36.1273 55.1129 37.9121 54.4008L52.7302 49.0077C55.0496 48.1707 54.4042 44.7031 51.9794 44.7172Z" fill="#2E0F07"/>
<path d="M100.76 96.1788V74.5872C100.76 71.9292 98.605 69.7744 95.947 69.7744H28.2973C25.6393 69.7744 23.4845 71.9292 23.4845 74.5872V96.1788C23.4845 98.8368 25.6393 100.992 28.2973 100.992H95.947C98.605 100.992 100.76 98.8368 100.76 96.1788Z" fill="#FEFDEF"/>
<path d="M95.9461 101.561H28.2964C26.8705 101.559 25.5034 100.993 24.4943 99.9853C23.4852 98.9779 22.9163 97.6117 22.9121 96.1858V74.5854C22.914 73.158 23.4818 71.7896 24.4912 70.7802C25.5005 69.7709 26.8689 69.203 28.2964 69.2012H95.9461C97.3736 69.2026 98.7423 69.7703 99.7518 70.7797C100.761 71.7892 101.329 73.1579 101.33 74.5854V96.1858C101.327 97.6118 100.758 98.9783 99.7487 99.9858C98.7395 100.993 97.3721 101.56 95.9461 101.561ZM28.2964 70.3371C27.1719 70.3385 26.094 70.7858 25.2989 71.5809C24.5038 72.376 24.0565 73.454 24.0551 74.5784V96.1858C24.0565 97.3102 24.5038 98.3882 25.2989 99.1833C26.094 99.9784 27.1719 100.426 28.2964 100.427H95.9461C97.0705 100.426 98.1485 99.9784 98.9436 99.1833C99.7387 98.3882 100.186 97.3102 100.187 96.1858V74.5854C100.188 73.4598 99.7413 72.38 98.946 71.5834C98.1507 70.7868 97.0717 70.3385 95.9461 70.3371H28.2964Z" fill="#2E0F07"/>
<path d="M95.9456 73.2891H28.2959C27.5802 73.2891 27 73.8693 27 74.585V96.1766C27 96.8923 27.5802 97.4725 28.2959 97.4725H95.9456C96.6614 97.4725 97.2416 96.8923 97.2416 96.1766V74.585C97.2416 73.8693 96.6614 73.2891 95.9456 73.2891Z" fill="#F8F08A"/>
<path d="M95.9468 98.0442H28.2971C27.8035 98.0437 27.3301 97.8481 26.9803 97.4998C26.6304 97.1516 26.4325 96.6792 26.4297 96.1856V74.5852C26.4302 74.0901 26.627 73.6154 26.9772 73.2652C27.3273 72.9151 27.802 72.7182 28.2971 72.7178H95.9468C96.4419 72.7182 96.9167 72.9151 97.2668 73.2652C97.6169 73.6154 97.8138 74.0901 97.8142 74.5852V96.1856C97.8115 96.6792 97.6135 97.1516 97.2637 97.4998C96.9138 97.8481 96.4404 98.0437 95.9468 98.0442ZM28.2971 73.8537C28.1051 73.8542 27.9211 73.9306 27.7854 74.0664C27.6496 74.2022 27.5731 74.3862 27.5727 74.5782V96.1856C27.5731 96.3776 27.6496 96.5616 27.7854 96.6973C27.9211 96.8331 28.1051 96.9096 28.2971 96.91H95.9468C96.1388 96.9096 96.3228 96.8331 96.4586 96.6973C96.5943 96.5616 96.6708 96.3776 96.6713 96.1856V74.5852C96.6708 74.3932 96.5943 74.2092 96.4586 74.0734C96.3228 73.9377 96.1388 73.8612 95.9468 73.8607L28.2971 73.8537Z" fill="#2E0F07"/>
<path d="M47.1248 89.2506C46.3107 95.0182 35.5017 95.1184 34.524 87.9827C34.2251 86.2718 36.8099 85.8058 37.1353 87.5115C37.5713 89.9258 38.6827 90.3249 40.4604 90.7012C41.672 90.9562 44.2463 90.6221 44.4854 88.9745C44.445 84.6312 35.4648 88.5261 34.5732 82.7198C33.694 75.5103 46.3335 75.702 46.3933 82.2415C46.4062 82.4157 46.3846 82.5908 46.3297 82.7566C46.2747 82.9224 46.1876 83.0757 46.0732 83.2078C45.9588 83.3398 45.8195 83.4479 45.6632 83.5259C45.5069 83.6039 45.3367 83.6503 45.1624 83.6623C42.5811 83.5164 44.918 80.3213 40.9651 79.9908C38.855 79.9802 37.0174 80.3424 37.1827 82.2767C37.6294 85.3012 47.3833 81.881 47.1248 89.2506Z" fill="#2E0F07"/>
<path d="M67.7967 92.1079C67.7967 92.4597 67.6571 92.7971 67.4085 93.046C67.1599 93.2949 66.8226 93.435 66.4708 93.4355C51.454 93.1014 56.1226 96.583 55.377 78.7211C55.377 78.369 55.5169 78.0313 55.7659 77.7823C56.0148 77.5333 56.3525 77.3935 56.7046 77.3935H66.2335C66.4118 77.387 66.5895 77.4165 66.7562 77.4802C66.9228 77.544 67.0749 77.6407 67.2033 77.7645C67.3317 77.8883 67.4339 78.0368 67.5036 78.201C67.5734 78.3652 67.6094 78.5418 67.6094 78.7202C67.6094 78.8986 67.5734 79.0752 67.5036 79.2394C67.4339 79.4036 67.3317 79.552 67.2033 79.6759C67.0749 79.7997 66.9228 79.8964 66.7562 79.9601C66.5895 80.0239 66.4118 80.0534 66.2335 80.0469H58.0269V83.773H65.6778C65.8561 83.7665 66.0339 83.796 66.2005 83.8597C66.3671 83.9235 66.5192 84.0202 66.6476 84.144C66.7761 84.2679 66.8782 84.4163 66.948 84.5805C67.0177 84.7447 67.0537 84.9213 67.0537 85.0997C67.0537 85.2781 67.0177 85.4547 66.948 85.6189C66.8782 85.7831 66.7761 85.9316 66.6476 86.0554C66.5192 86.1792 66.3671 86.2759 66.2005 86.3397C66.0339 86.4034 65.8561 86.4329 65.6778 86.4264H58.0269V90.7803H66.4673C66.6418 90.78 66.8146 90.8142 66.9759 90.8808C67.1372 90.9474 67.2838 91.0452 67.4072 91.1685C67.5307 91.2918 67.6286 91.4382 67.6955 91.5994C67.7623 91.7606 67.7967 91.9334 67.7967 92.1079Z" fill="#2E0F07"/>
<path d="M89.7495 85.4591C89.5737 95.9357 75.4079 95.934 75.2285 85.4591C75.4096 74.9737 89.5701 74.9754 89.7495 85.4591ZM87.0943 85.4591C86.9782 78.4712 77.9998 78.4712 77.8837 85.4591C78.0015 92.4383 86.9782 92.4383 87.0943 85.4591Z" fill="#2E0F07"/>
<path d="M133.735 93.8788C135.363 92.4844 135.581 89.9717 133.97 88.4752L116.852 72.333L111.617 77.8843L128.735 94.0266C129.073 94.3451 129.471 94.594 129.905 94.759C130.339 94.924 130.801 95.0019 131.266 94.9882C131.73 94.9745 132.187 94.8695 132.61 94.6791C133.034 94.4888 133.416 94.2168 133.735 93.8788Z" fill="#FF7371"/>
<path d="M131.161 95.5579C130.115 95.5588 129.108 95.1593 128.348 94.4413L111.229 78.299C111.119 78.195 111.055 78.0515 111.051 77.9002C111.047 77.7489 111.103 77.602 111.207 77.4919L116.44 71.9406C116.545 71.8326 116.688 71.7696 116.839 71.7648C117.366 71.61 133.964 87.9052 134.367 88.0635C136.199 89.7692 136.009 92.66 134.156 94.2742C133.771 94.6817 133.307 95.0059 132.791 95.2267C132.276 95.4475 131.721 95.5602 131.161 95.5579ZM112.427 77.8594L129.132 93.6095C130.495 94.9143 132.619 94.5468 133.704 93.082C134.242 92.5095 134.531 91.7469 134.508 90.9614C134.485 90.1759 134.152 89.4316 133.581 88.8917L116.876 73.1416L112.427 77.8594Z" fill="#2E0F07"/>
<path d="M95.3193 79.3913C110.957 93.6344 132.543 70.7469 117.4 55.9745C101.762 41.7261 80.1828 64.6206 95.3193 79.3913Z" fill="#FFA1A0"/>
<path d="M91.188 62.3118C96.5266 75.6969 116.65 75.1008 121.192 61.4326C122.404 64.3077 122.754 67.4731 122.199 70.5435C121.645 73.6139 120.21 76.4569 118.069 78.7266C106.463 91.4153 85.2305 78.134 91.188 62.3118Z" fill="#FF7371"/>
<path d="M106.349 84.3476C84.7698 84.0152 84.3073 51.9752 105.873 51.0256C128.099 50.7918 128.567 83.9502 106.349 84.3476ZM106.372 52.1686C85.6736 52.5396 86.1185 83.4279 106.817 83.2046C126.907 82.3078 126.467 52.4711 106.372 52.1616V52.1686Z" fill="#2E0F07"/>
<path d="M114.792 75.633C125.042 64.3669 108.574 48.8419 97.9305 59.7335C87.6825 70.9996 104.15 86.5247 114.792 75.633Z" fill="#B7EDEC"/>
<path d="M102.212 60.251C102.27 62.908 109.61 62.6917 109.509 60.0365C109.453 57.3795 102.112 57.5958 102.212 60.251Z" fill="#E4F8F8"/>
<path d="M94.7793 67.4884C101.208 73.8538 111.693 73.6991 117.929 67.1719C118.326 82.8552 94.818 83.1611 94.7793 67.4884Z" fill="#93E4E3"/>
<path d="M106.358 79.8323C95.9539 80.0485 90.181 66.8534 97.5154 59.338C99.7297 56.9951 102.783 55.6262 106.005 55.5316C109.228 55.437 112.356 56.6244 114.704 58.8333C122.78 65.9408 116.935 80.2261 106.358 79.8323ZM106.358 56.6687C100.466 56.4805 94.9832 61.9721 95.3508 68.0034C95.3384 77.5375 108.025 82.389 114.372 75.2375C121.08 68.5995 115.648 56.3451 106.364 56.6722L106.358 56.6687Z" fill="#2E0F07"/>
<path d="M132.954 90.7524C133.125 90.5713 133.216 90.3301 133.209 90.0815C133.202 89.8329 133.096 89.5974 132.915 89.4266L127.359 84.1883C127.269 84.1037 127.164 84.0377 127.049 83.9939C126.934 83.9501 126.811 83.9294 126.688 83.933C126.565 83.9366 126.444 83.9644 126.331 84.0148C126.219 84.0653 126.118 84.1374 126.033 84.2269C125.948 84.3165 125.882 84.4219 125.839 84.537C125.795 84.6521 125.774 84.7748 125.778 84.8979C125.781 85.021 125.809 85.1422 125.86 85.2546C125.91 85.3669 125.982 85.4683 126.072 85.5528L131.627 90.7911C131.716 90.876 131.822 90.9423 131.937 90.9863C132.052 91.0303 132.175 91.0511 132.298 91.0475C132.422 91.0439 132.543 91.016 132.656 90.9654C132.768 90.9147 132.87 90.8424 132.954 90.7524Z" fill="#FFC4C4"/>
<path d="M125.407 83.6359C125.577 83.4548 125.669 83.2135 125.662 82.9649C125.654 82.7164 125.549 82.4808 125.368 82.31L123.353 80.4109C123.263 80.3264 123.158 80.2604 123.043 80.2166C122.928 80.1728 122.805 80.1521 122.682 80.1557C122.559 80.1593 122.438 80.1871 122.325 80.2375C122.213 80.2879 122.112 80.36 122.027 80.4496C121.943 80.5392 121.877 80.6446 121.833 80.7597C121.789 80.8748 121.768 80.9974 121.772 81.1205C121.775 81.2437 121.803 81.3649 121.854 81.4772C121.904 81.5896 121.976 81.6909 122.066 81.7754L124.081 83.6745C124.17 83.7594 124.276 83.8257 124.391 83.8696C124.506 83.9136 124.629 83.9344 124.752 83.9308C124.875 83.9272 124.996 83.8993 125.109 83.8487C125.221 83.7981 125.322 83.7257 125.407 83.6359Z" fill="#FFC4C4"/>
</svg>
