<svg width="150" height="145" viewBox="0 0 150 145" fill="none" xmlns="http://www.w3.org/2000/svg">
<path d="M143.401 78.7666C141.906 166.046 12.0994 166.023 10.6211 78.7666C12.1125 -8.50298 141.925 -8.48989 143.401 78.7666Z" fill="#D4CBFF"/>
<path d="M8.6251 120.002C8.48494 118.234 148.81 120.002 149.413 119.393C150.161 119.382 150.23 120.621 149.413 120.609" fill="#2E0F07"/>
<path d="M61.2116 22.04H58.1596C56.8159 9.29021 37.6369 9.29768 36.2932 22.04C24.9805 20.4309 24.2423 33.6274 33.2412 34.3189H61.2116C62.0178 34.3189 62.8162 34.1601 63.5611 33.8516C64.3059 33.543 64.9827 33.0908 65.5528 32.5207C66.1229 31.9506 66.5751 31.2738 66.8837 30.5289C67.1922 29.7841 67.351 28.9857 67.351 28.1795C67.351 27.3732 67.1922 26.5749 66.8837 25.83C66.5751 25.0851 66.1229 24.4083 65.5528 23.8382C64.9827 23.2681 64.3059 22.8159 63.5611 22.5074C62.8162 22.1988 62.0178 22.04 61.2116 22.04Z" fill="#DFF7F7"/>
<path d="M61.4186 23.9857H58.6843C57.492 13.2637 40.3277 13.2693 39.1372 23.9857C29.073 22.6177 28.3273 33.721 36.4104 34.319H61.4186C64.4369 34.319 66.9076 31.9941 66.9076 29.1533C66.9076 26.3125 64.4369 23.9857 61.4186 23.9857Z" fill="#B7EDEC"/>
<path d="M61.2114 34.9266H33.2429C31.4543 34.9242 29.7397 34.2125 28.4749 32.9478C27.2102 31.6831 26.4986 29.9684 26.4961 28.1798C26.5877 23.0141 31.1329 20.891 35.766 21.433C37.6742 8.66444 56.7821 8.67192 58.6884 21.433C69.5992 19.8332 71.4681 33.9828 61.2114 34.9266ZM33.2429 22.6478C31.7757 22.6478 30.3686 23.2306 29.3312 24.2681C28.2937 25.3055 27.7109 26.7126 27.7109 28.1798C27.7109 29.647 28.2937 31.0541 29.3312 32.0915C30.3686 33.129 31.7757 33.7118 33.2429 33.7118H61.2114C68.4741 33.581 68.4872 22.7786 61.2114 22.6478H58.1595C58.0115 22.6464 57.8691 22.5909 57.7593 22.4917C57.6495 22.3925 57.5797 22.2566 57.5633 22.1095C57.2696 19.5759 56.055 17.2385 54.1505 15.542C52.246 13.8454 49.7843 12.908 47.2337 12.908C44.6831 12.908 42.2215 13.8454 40.3169 15.542C38.4124 17.2385 37.1978 19.5759 36.9042 22.1095C36.8872 22.2577 36.8163 22.3945 36.7049 22.4937C36.5936 22.593 36.4496 22.6478 36.3005 22.6478H33.2429Z" fill="#2E0F07"/>
<path d="M50.1002 63.5433H45.9755C44.1552 46.2856 18.1958 46.2949 16.3773 63.5433C1.05956 61.3697 0.0578146 79.2423 12.2414 80.1767H50.1002C52.3045 80.1767 54.4185 79.3011 55.9771 77.7425C57.5357 76.1838 58.4114 74.0699 58.4114 71.8656C58.4114 69.6614 57.5357 67.5474 55.9771 65.9888C54.4185 64.4301 52.3045 63.5545 50.1002 63.5545V63.5433Z" fill="#DFF7F7"/>
<path d="M50.9033 65.1525H47.1654C45.5189 49.56 22.0657 49.5675 20.4229 65.1525C6.59285 63.1845 5.68268 79.3302 16.6851 80.1693H50.8864C51.8824 80.185 52.8716 80.0024 53.7963 79.6322C54.7211 79.2619 55.5629 78.7113 56.2728 78.0125C56.9827 77.3138 57.5464 76.4807 57.9313 75.5619C58.3161 74.6432 58.5143 73.657 58.5143 72.6609C58.5143 71.6648 58.3161 70.6786 57.9313 69.7599C57.5464 68.8411 56.9827 68.0081 56.2728 67.3093C55.5629 66.6105 54.7211 66.0599 53.7963 65.6897C52.8716 65.3194 51.8824 65.1368 50.8864 65.1525H50.9033Z" fill="#B7EDEC"/>
<path d="M50.1016 80.7768H12.2427C9.87832 80.7738 7.61158 79.8332 5.93967 78.1613C4.26777 76.4894 3.32719 74.2227 3.32422 71.8582C3.51111 64.803 9.57765 62.2426 15.846 62.9397C18.2439 45.6596 44.1117 45.6671 46.5077 62.9397C61.4199 60.7699 63.5336 79.5993 50.1016 80.7768ZM12.2427 64.1545C10.1996 64.1545 8.24012 64.9661 6.79539 66.4109C5.35066 67.8556 4.53902 69.8151 4.53902 71.8582C4.53902 73.9014 5.35066 75.8609 6.79539 77.3056C8.24012 78.7503 10.1996 79.5619 12.2427 79.5619H50.1016C60.2163 79.3751 60.2331 64.3377 50.1016 64.1545H45.9769C45.8277 64.1546 45.6838 64.0997 45.5725 64.0005C45.4611 63.9012 45.3902 63.7644 45.3732 63.6163C44.9673 60.1362 43.2971 56.9265 40.6801 54.597C38.063 52.2674 34.6814 50.9804 31.1778 50.9804C27.6741 50.9804 24.2925 52.2674 21.6755 54.597C19.0584 56.9265 17.3883 60.1362 16.9823 63.6163C16.9654 63.7644 16.8945 63.9012 16.7831 64.0005C16.6718 64.0997 16.5278 64.1546 16.3787 64.1545H12.2427Z" fill="#2E0F07"/>
<path d="M33.6793 107.359H114.18C121.842 106.966 121.758 100.094 121.483 94.1997C121.481 92.2641 120.711 90.4085 119.341 89.0406C117.972 87.6728 116.115 86.9048 114.18 86.9053H33.6793C26.0167 87.2959 26.1008 94.1679 26.3756 100.063C26.378 101.998 27.1486 103.854 28.518 105.222C29.8874 106.59 31.7437 107.358 33.6793 107.359Z" fill="#DEC8FB"/>
<path d="M114.178 107.966H33.6781C25.6567 107.558 25.4062 100.501 25.7669 94.1993C25.7694 92.1018 26.6037 90.091 28.0868 88.6079C29.5699 87.1248 31.5807 86.2906 33.6781 86.2881H114.178C122.2 86.6955 122.45 93.7526 122.09 100.053C122.088 102.151 121.254 104.162 119.771 105.646C118.288 107.129 116.276 107.964 114.178 107.966ZM33.6781 87.5029C26.3893 87.8767 26.793 94.5768 26.9817 100.053C26.9832 101.828 27.6892 103.531 28.9446 104.787C30.2 106.043 31.9024 106.749 33.6781 106.751H114.178C121.467 106.377 121.064 99.6771 120.875 94.1993C120.873 92.4237 120.167 90.7213 118.912 89.4658C117.656 88.2104 115.954 87.5044 114.178 87.5029H33.6781Z" fill="#2E0F07"/>
<path d="M118.554 100.085C118.427 96.4159 119.76 89.9587 114.209 89.8223H33.6395C28.0851 89.9849 29.4195 96.3822 29.2943 100.085C29.2943 101.237 29.7521 102.342 30.567 103.157C31.3819 103.972 32.4871 104.43 33.6395 104.43H114.209C115.361 104.43 116.467 103.972 117.282 103.157C118.096 102.342 118.554 101.237 118.554 100.085Z" fill="#FCE366"/>
<path d="M33.6389 89.8223C28.191 90.0092 29.3853 96.0514 29.2937 99.7276C56.937 100.649 90.8824 102.011 116.573 90.5325C115.866 90.0696 115.04 89.8234 114.195 89.8241L33.6389 89.8223Z" fill="#FEF1B0"/>
<path d="M114.21 105.034H33.64C32.327 105.033 31.0681 104.511 30.1396 103.582C29.2111 102.654 28.6889 101.395 28.6874 100.082C28.7453 95.9232 27.5791 89.4287 33.64 89.2119H114.21C120.231 89.4138 119.129 95.9307 119.162 100.082C119.161 101.395 118.638 102.654 117.71 103.582C116.781 104.511 115.523 105.033 114.21 105.034ZM33.64 90.4305C28.5939 90.5501 30.1096 96.8465 29.9022 100.085C29.9022 101.077 30.296 102.027 30.997 102.728C31.698 103.429 32.6487 103.823 33.64 103.823H114.21C119.256 103.704 117.74 97.4072 117.947 94.1683C117.947 93.177 117.554 92.2262 116.853 91.5252C116.152 90.8243 115.201 90.4305 114.21 90.4305H33.64Z" fill="#2E0F07"/>
<path d="M42.5716 61.8169C46.2254 62.2001 54.3459 60.0246 54.4468 65.908V86.9054H38.4824V65.908C38.4824 64.8233 38.9132 63.783 39.68 63.0158C40.4468 62.2487 41.4869 61.8174 42.5716 61.8169Z" fill="#FCD890"/>
<path d="M51.3949 61.9492C52.9387 70.8397 46.7338 80.046 38.4844 80.5208V86.905H54.4488V65.9076C54.4483 65.0032 54.1485 64.1244 53.5961 63.4083C53.0436 62.6922 52.2696 62.1791 51.3949 61.9492Z" fill="#F9B122"/>
<path d="M54.4468 87.5037H38.4824C38.3213 87.5037 38.1668 87.4397 38.0529 87.3257C37.939 87.2118 37.875 87.0573 37.875 86.8962V65.9082C38.0189 59.4641 46.2665 61.5181 50.3576 61.2097C51.6031 61.2112 52.7971 61.7067 53.6776 62.5876C54.5581 63.4685 55.0532 64.6627 55.0542 65.9082V86.9056C55.0517 87.0651 54.9867 87.2172 54.873 87.3291C54.7594 87.441 54.6063 87.5037 54.4468 87.5037ZM39.0898 86.2888H53.8394V65.9175C53.8404 65.4594 53.7511 65.0056 53.5766 64.5819C53.4021 64.1583 53.1459 63.7733 52.8226 63.4487C52.4992 63.1241 52.1151 62.8665 51.6922 62.6904C51.2692 62.5144 50.8157 62.4234 50.3576 62.4226H42.5716C41.6483 62.4241 40.7633 62.7917 40.1106 63.4447C39.4579 64.0978 39.0908 64.983 39.0898 65.9063V86.2888Z" fill="#2E0F07"/>
<path d="M44.5408 66.61C44.5015 68.9219 41.0627 68.9219 41.0234 66.61C41.0627 64.2907 44.5015 64.3 44.5408 66.61Z" fill="#FFEBF1"/>
<path d="M44.5408 70.939C44.5015 73.249 41.0627 73.249 41.0234 70.939C41.0627 68.6271 44.5015 68.6271 44.5408 70.939Z" fill="#FFEBF1"/>
<path d="M73.47 50.3749C77.1237 50.7487 85.2349 48.5789 85.3452 54.4641V86.905H69.3789V54.4641C69.3789 53.9269 69.4847 53.395 69.6904 52.8988C69.896 52.4026 70.1974 51.9517 70.5773 51.5719C70.9572 51.1922 71.4082 50.891 71.9045 50.6856C72.4009 50.4802 72.9328 50.3746 73.47 50.3749Z" fill="#D6BAFA"/>
<path d="M82.2895 50.5059C83.8332 59.3963 77.6302 68.6027 69.3789 69.0793V86.9051H85.3452V54.4643C85.3449 53.5595 85.045 52.6803 84.4921 51.9641C83.9393 51.248 83.1647 50.7351 82.2895 50.5059Z" fill="#AD75F5"/>
<path d="M85.3454 87.5036H69.3791C69.2208 87.5017 69.0694 87.4382 68.957 87.3265C68.8447 87.2149 68.7802 87.0639 68.7773 86.9056V54.4647C68.9213 48.0225 77.1707 50.0727 81.2599 49.7681C82.5054 49.7691 83.6996 50.2641 84.5805 51.1447C85.4614 52.0252 85.9569 53.2192 85.9584 54.4647V86.9056C85.9555 87.0658 85.8894 87.2185 85.7747 87.3305C85.66 87.4424 85.5057 87.5046 85.3454 87.5036ZM69.9865 86.2888H84.738V54.4647C84.7365 53.5414 84.3689 52.6564 83.7159 52.0037C83.0628 51.351 82.1776 50.9839 81.2543 50.9829H73.4702C72.5469 50.9839 71.6617 51.351 71.0086 52.0037C70.3556 52.6564 69.988 53.5414 69.9865 54.4647V86.2888Z" fill="#2E0F07"/>
<path d="M75.4354 55.1671C75.3961 57.4789 71.9592 57.4789 71.9199 55.1671C71.9536 52.8571 75.3961 52.8571 75.4354 55.1671Z" fill="#F3EAFE"/>
<path d="M75.4354 59.4953C75.3961 61.8072 71.9592 61.8053 71.9199 59.4953C71.9536 57.1891 75.3961 57.1891 75.4354 59.4953Z" fill="#F3EAFE"/>
<path d="M102.075 43.5091C105.729 43.8829 113.838 41.715 113.951 47.5984V86.9057H97.9844V47.6002C97.9844 46.5152 98.4154 45.4746 99.1826 44.7074C99.9499 43.9402 100.99 43.5091 102.075 43.5091Z" fill="#89E5C4"/>
<path d="M110.895 43.6416C112.439 52.5321 106.236 61.7366 97.9844 62.2131V86.9054H113.951V47.6C113.951 46.6952 113.651 45.8158 113.098 45.0996C112.545 44.3833 111.77 43.8706 110.895 43.6416Z" fill="#13CC89"/>
<path d="M113.952 87.5033H97.986C97.8253 87.5048 97.6706 87.4428 97.5555 87.3308C97.4403 87.2188 97.374 87.0659 97.3711 86.9052V47.5998C97.515 41.1576 105.764 43.206 109.854 42.9013C110.472 42.9003 111.084 43.0211 111.655 43.2567C112.226 43.4923 112.745 43.8382 113.183 44.2745C113.62 44.7108 113.968 45.2291 114.205 45.7996C114.442 46.3702 114.564 46.9819 114.565 47.5998V86.9052C114.562 87.0655 114.496 87.2182 114.382 87.3302C114.267 87.4421 114.113 87.5043 113.952 87.5033ZM98.5934 86.2885H113.345V47.6017C113.344 46.6781 112.976 45.7925 112.323 45.1394C111.67 44.4863 110.785 44.119 109.861 44.118H102.077C101.153 44.119 100.268 44.4863 99.6148 45.1394C98.9617 45.7925 98.5944 46.6781 98.5934 47.6017V86.2885Z" fill="#2E0F07"/>
<path d="M104.043 48.3023C104.004 50.6123 100.567 50.6123 100.527 48.3023C100.567 45.9904 104.004 45.9904 104.043 48.3023Z" fill="#D7F6EB"/>
<path d="M104.043 52.629C104.004 54.9408 100.567 54.9408 100.527 52.629C100.567 50.319 104.004 50.319 104.043 52.629Z" fill="#D7F6EB"/>
<path d="M121.898 21.4535C121.524 42.862 89.6868 42.8602 89.3242 21.4535C89.6905 0.0448918 121.535 0.0486302 121.898 21.4535Z" fill="#FDEC99"/>
<path d="M105.612 38.3489C83.4088 37.9508 83.4126 4.95489 105.612 4.56055C127.813 4.95863 127.811 37.9546 105.612 38.3489ZM105.612 5.77535C85.0049 6.14914 85.0086 36.7678 105.612 37.1341C126.217 36.764 126.213 6.14166 105.612 5.77535Z" fill="#2E0F07"/>
<path d="M105.612 34.3105C88.7169 34.0077 88.7188 8.89303 105.612 8.59961C122.507 8.90238 122.503 34.0152 105.612 34.3105Z" fill="#FCDE4C"/>
<path d="M116.712 14.9775C115.404 24.6212 105.923 31.7586 96.1035 30.099C106.353 41.3163 124.343 28.1946 116.712 14.9775Z" fill="#F9B122"/>
<path d="M105.61 34.9169C87.9147 34.5991 87.9184 8.30519 105.61 7.99121C123.303 8.30706 123.299 34.6029 105.61 34.9169ZM105.61 9.20601C89.5201 9.49383 89.5201 33.4161 105.61 33.7021C121.707 33.4142 121.703 9.49196 105.61 9.20601Z" fill="#2E0F07"/>
<path d="M106.26 13.9556L107.615 17.8915C107.661 18.0265 107.749 18.1436 107.865 18.2264C107.982 18.3092 108.121 18.3535 108.264 18.3531H112.312C112.454 18.3534 112.592 18.3978 112.708 18.4803C112.824 18.5627 112.911 18.679 112.958 18.8132C113.005 18.9474 113.009 19.0929 112.969 19.2294C112.93 19.3659 112.849 19.4868 112.738 19.5754L109.476 22.1676C109.367 22.2543 109.286 22.3722 109.245 22.5057C109.204 22.6392 109.205 22.782 109.247 22.9152L110.409 26.7259C110.45 26.8611 110.449 27.0058 110.405 27.1401C110.361 27.2744 110.276 27.3918 110.163 27.4763C110.05 27.5608 109.913 27.6082 109.772 27.6121C109.63 27.6159 109.491 27.576 109.374 27.4978L105.989 25.2551C105.877 25.1811 105.745 25.1416 105.611 25.1416C105.476 25.1416 105.344 25.1811 105.232 25.2551L101.848 27.4978C101.73 27.5753 101.591 27.6147 101.45 27.6105C101.309 27.6063 101.173 27.5588 101.06 27.4744C100.947 27.3901 100.863 27.273 100.819 27.139C100.775 27.0051 100.773 26.8609 100.814 26.7259L101.975 22.9171C102.017 22.7839 102.017 22.641 101.976 22.5074C101.935 22.3739 101.854 22.256 101.745 22.1695L98.4928 19.5848C98.3816 19.4962 98.3008 19.3753 98.2613 19.2387C98.2219 19.1022 98.2258 18.9568 98.2726 18.8226C98.3194 18.6884 98.4067 18.572 98.5225 18.4896C98.6383 18.4072 98.7768 18.3628 98.9189 18.3625H102.969C103.111 18.3624 103.25 18.3179 103.366 18.2352C103.482 18.1524 103.569 18.0356 103.616 17.9009L104.972 13.9649C105.02 13.8327 105.107 13.7183 105.221 13.6371C105.336 13.5559 105.473 13.5118 105.613 13.5108C105.753 13.5097 105.891 13.5518 106.006 13.6314C106.122 13.7109 106.211 13.8241 106.26 13.9556Z" fill="#FDEC99"/>
<path d="M109.752 28.2212C109.145 28.3764 106.126 25.8813 105.566 25.7673L102.183 28.01C101.961 28.1563 101.699 28.2305 101.433 28.2225C101.166 28.2145 100.909 28.1248 100.696 27.9655C100.483 27.8062 100.324 27.5851 100.241 27.3322C100.158 27.0793 100.155 26.807 100.232 26.5523L101.392 22.7434C101.458 22.6163 98.1349 20.1493 98.105 20.0652C97.8923 19.8995 97.7368 19.6712 97.6604 19.4126C97.5839 19.154 97.5904 18.878 97.6788 18.6232C97.7672 18.3684 97.9332 18.1477 98.1534 17.9921C98.3736 17.8364 98.6371 17.7536 98.9067 17.7552H102.957C103.106 17.7833 104.315 13.8305 104.386 13.7669C104.475 13.513 104.64 13.2928 104.859 13.137C105.078 12.9812 105.341 12.8975 105.61 12.8975C105.879 12.8975 106.141 12.9812 106.36 13.137C106.579 13.2928 106.744 13.513 106.833 13.7669L108.188 17.7029C108.208 17.8487 112.24 17.716 112.313 17.7646C113.501 17.7216 114.075 19.3663 113.114 20.0708C113.083 20.1531 109.763 22.6182 109.827 22.7471L110.989 26.5392C111.047 26.7331 111.059 26.9378 111.025 27.1372C110.99 27.3366 110.909 27.5252 110.79 27.6883C110.67 27.8513 110.514 27.9843 110.333 28.0768C110.153 28.1692 109.954 28.2187 109.752 28.2212ZM105.611 14.1015C103.338 19.6242 105.302 18.9607 98.9105 18.97C98.3928 18.97 102.213 21.6688 102.121 21.7024C102.325 21.8632 102.476 22.0818 102.553 22.3296C102.63 22.5774 102.631 22.8428 102.555 23.091L101.394 26.9018C101.387 26.917 101.387 26.9343 101.392 26.9502C101.397 26.9661 101.408 26.9795 101.422 26.9877C101.434 26.9992 101.45 27.0055 101.467 27.0055C101.484 27.0055 101.5 26.9992 101.512 26.9877L104.897 24.745C105.108 24.6053 105.356 24.5307 105.61 24.5307C105.863 24.5307 106.111 24.6053 106.323 24.745L109.707 26.9877C109.72 26.9989 109.736 27.0051 109.753 27.0051C109.77 27.0051 109.786 26.9989 109.799 26.9877C109.813 26.9789 109.823 26.9655 109.828 26.9498C109.833 26.9341 109.833 26.9171 109.827 26.9018L108.666 23.091C108.589 22.8431 108.59 22.5776 108.667 22.3297C108.744 22.0818 108.894 21.8631 109.098 21.7024C108.977 21.6893 112.836 18.9644 112.311 18.97C106.293 18.9588 107.676 19.7176 105.685 14.1538C105.682 14.1373 105.672 14.1227 105.658 14.113C105.644 14.1033 105.627 14.0992 105.611 14.1015Z" fill="#2E0F07"/>
<path d="M38.6511 42.7373H54.2791C54.499 42.7384 54.7139 42.8028 54.8982 42.9228C55.0825 43.0427 55.2283 43.2132 55.3184 43.4137C55.4084 43.6143 55.4389 43.8366 55.406 44.054C55.3732 44.2714 55.2785 44.4748 55.1332 44.6399L47.3192 53.4799C47.2121 53.6016 47.0802 53.699 46.9325 53.7658C46.7847 53.8325 46.6245 53.867 46.4623 53.867C46.3002 53.867 46.1399 53.8325 45.9922 53.7658C45.8444 53.699 45.7126 53.6016 45.6054 53.4799L37.7896 44.6399C37.6439 44.4743 37.549 44.2703 37.5165 44.0522C37.4839 43.8341 37.515 43.6112 37.6059 43.4104C37.6969 43.2095 37.8439 43.0391 38.0293 42.9197C38.2147 42.8003 38.4306 42.737 38.6511 42.7373Z" fill="#FFA1A0"/>
<path d="M54.947 43.3056C54.2966 42.8234 52.9267 44.3447 50.4093 45.481C46.0995 47.2266 42.9336 47.0079 39.5078 46.4659C40.8983 48.9946 43.683 51.2896 45.6192 53.48C45.7264 53.6017 45.8582 53.6991 46.006 53.7659C46.1537 53.8327 46.314 53.8672 46.4761 53.8672C46.6382 53.8672 46.7985 53.8327 46.9463 53.7659C47.094 53.6991 47.2259 53.6017 47.333 53.48C50.2485 50.7832 52.6987 47.5574 55.1582 44.5652C55.2031 44.2251 55.2834 43.5635 54.947 43.3056Z" fill="#FF5B59"/>
<path d="M42.0059 44.8068C42.0152 43.093 44.6224 43.093 44.6224 44.8068C44.6224 46.5206 42.0133 46.5188 42.0059 44.8068Z" fill="#FFD0D0"/>
<path d="M46.4651 54.4733C46.2175 54.4728 45.9729 54.4197 45.7474 54.3176C45.5218 54.2154 45.3206 54.0666 45.1568 53.8809L37.3391 45.0409C36.3299 43.9793 37.1859 42.0749 38.6474 42.1291H54.2753C55.7387 42.0767 56.6003 43.9793 55.5836 45.0409C54.8454 45.5529 47.5136 55.0677 46.4651 54.4733ZM38.6511 43.3439C38.1465 43.3831 37.9577 43.8447 38.2493 44.2353L46.0633 53.0772C46.1136 53.1342 46.1754 53.1797 46.2447 53.211C46.314 53.2422 46.3891 53.2583 46.4651 53.2583C46.5411 53.2583 46.6162 53.2422 46.6854 53.211C46.7547 53.1797 46.8166 53.1342 46.8669 53.0772L54.6809 44.2353C54.9855 43.8354 54.765 43.385 54.2791 43.3439H38.6511Z" fill="#2E0F07"/>
<path d="M84.9126 41.9892H69.2828C69.0626 41.9892 68.8471 41.9257 68.6621 41.8063C68.4771 41.6869 68.3305 41.5166 68.2399 41.3159C68.1494 41.1152 68.1186 40.8926 68.1514 40.6749C68.1843 40.4572 68.2792 40.2535 68.4249 40.0885L76.2408 31.2466C76.3483 31.1254 76.4802 31.0285 76.628 30.9621C76.7757 30.8957 76.9358 30.8613 77.0977 30.8613C77.2597 30.8613 77.4198 30.8957 77.5675 30.9621C77.7152 31.0285 77.8471 31.1254 77.9546 31.2466L85.7686 40.0885C85.9142 40.2534 86.0092 40.4569 86.042 40.6744C86.0749 40.892 86.0444 41.1144 85.954 41.315C85.8637 41.5157 85.7174 41.686 85.5326 41.8055C85.3479 41.9251 85.1327 41.9889 84.9126 41.9892Z" fill="#DEC8FB"/>
<path d="M77.4937 34.7325C77.4937 36.3828 74.9762 36.3828 74.9688 34.7325C74.9613 33.0823 77.4862 33.0804 77.4937 34.7325Z" fill="#EFE3FD"/>
<path d="M85.7686 40.0883L80.0291 33.5938C78.0929 37.2456 73.772 39.5743 69.4529 38.9258L68.4249 40.0883C68.2792 40.2534 68.1843 40.457 68.1514 40.6747C68.1186 40.8924 68.1494 41.115 68.2399 41.3157C68.3305 41.5164 68.4771 41.6867 68.6621 41.8061C68.8471 41.9255 69.0626 41.989 69.2828 41.989H84.9126C85.1327 41.9887 85.3479 41.9249 85.5326 41.8054C85.7174 41.6858 85.8637 41.5155 85.954 41.3149C86.0444 41.1142 86.0749 40.8918 86.042 40.6742C86.0092 40.4567 85.9142 40.2532 85.7686 40.0883Z" fill="#C59EF8"/>
<path d="M84.9125 42.5967H69.2826C67.8211 42.6509 66.9596 40.7483 67.9744 39.6868L75.7846 30.8374C75.9487 30.6522 76.1501 30.5038 76.3756 30.4021C76.601 30.3003 76.8455 30.2474 77.0929 30.2468C78.1115 29.6132 85.5031 39.2177 86.2207 39.6793C87.2318 40.7427 86.3777 42.6509 84.9125 42.5967ZM77.0966 31.4691C77.0202 31.4697 76.9448 31.4867 76.8754 31.5189C76.8061 31.5512 76.7445 31.5979 76.6948 31.656L68.8808 40.4979C68.8125 40.5753 68.7679 40.6707 68.7525 40.7728C68.737 40.8749 68.7514 40.9793 68.7938 41.0734C68.8363 41.1675 68.9049 41.2474 68.9917 41.3034C69.0784 41.3595 69.1794 41.3893 69.2826 41.3894H84.9125C85.4152 41.3501 85.604 40.8885 85.3143 40.4979L77.4985 31.656C77.449 31.5976 77.3874 31.5507 77.3181 31.5184C77.2487 31.4862 77.1731 31.4693 77.0966 31.4691Z" fill="#2E0F07"/>
<path d="M51.1534 99.5129C50.6357 102.967 44.2384 103.025 43.6272 98.756C43.6084 98.6535 43.61 98.5483 43.6319 98.4464C43.6539 98.3445 43.6958 98.248 43.7552 98.1623C43.8146 98.0767 43.8903 98.0037 43.9781 97.9474C44.0658 97.8912 44.1638 97.8528 44.2664 97.8346C45.8942 97.7654 44.5168 100.068 47.1726 100.378C47.8958 100.531 49.434 100.331 49.576 99.3484C49.6265 98.2551 48.6808 98.0551 47.4828 97.9C45.0869 97.9729 42.2984 96.2965 44.2346 93.5024C46.083 91.4615 50.6282 92.2745 50.7161 95.3265C50.8076 96.3488 49.206 96.4684 49.1349 95.4498C49.1125 95.2125 48.9256 94.0425 47.4791 93.9809C46.2232 93.9809 45.1205 94.1864 45.2195 95.3452C45.5279 97.1636 51.316 95.1172 51.1534 99.5129Z" fill="#2E0F07"/>
<path d="M47.673 102.043C46.0414 101.856 44.3089 101.806 43.5912 98.7577C43.572 98.6507 43.574 98.5409 43.5971 98.4347C43.6203 98.3285 43.6641 98.2278 43.7262 98.1385C43.8515 97.9582 44.0433 97.835 44.2594 97.7961C44.4755 97.7572 44.6982 97.8058 44.8785 97.9311C45.0589 98.0564 45.182 98.2482 45.2209 98.4643C45.2209 101.081 50.5567 100.911 49.3531 98.6156C47.9028 97.2382 44.1855 98.668 43.6211 95.6142C43.0941 91.2577 50.7118 91.3698 50.7511 95.3189C50.7594 95.4273 50.7462 95.5363 50.7122 95.6396C50.6782 95.7428 50.6241 95.8384 50.553 95.9207C50.1044 96.4813 49.1401 96.158 49.1008 95.4497C49.0784 95.2198 48.8952 94.0723 47.4767 94.0125C46.2432 94.0125 45.1611 94.1994 45.2527 95.3357C45.5573 97.1074 51.351 95.0871 51.1866 99.5127C51.0202 101.185 49.2989 102.053 47.673 102.043ZM44.4061 97.8569C44.2954 97.8574 44.1861 97.8821 44.0859 97.9292C43.9857 97.9763 43.8969 98.0446 43.8258 98.1294C43.7546 98.2143 43.7028 98.3136 43.6739 98.4205C43.645 98.5273 43.6398 98.6392 43.6585 98.7483C44.2734 103.002 50.6259 102.896 51.1155 99.509C51.2725 95.1357 45.4957 97.2196 45.1836 95.3506C45.077 94.1657 46.2002 93.9396 47.4767 93.9471C48.955 94.0087 49.1457 95.2067 49.1681 95.4422C49.1831 95.5895 49.2406 95.7292 49.3335 95.8444C49.4264 95.9597 49.5507 96.0454 49.6914 96.0914C49.8322 96.1373 49.9832 96.1413 50.1262 96.1031C50.2691 96.0648 50.3979 95.9859 50.4969 95.8758C50.5634 95.8011 50.6141 95.7138 50.6462 95.6191C50.6783 95.5244 50.6911 95.4242 50.6838 95.3245C50.652 91.4651 43.1782 91.3511 43.694 95.6029C44.2547 98.6082 47.9926 97.1654 49.4111 98.5708C49.4958 98.6794 49.5575 98.8041 49.5925 98.9373C49.6274 99.0706 49.6349 99.2095 49.6145 99.3457C49.594 99.4819 49.546 99.6126 49.4735 99.7296C49.4009 99.8467 49.3053 99.9478 49.1924 100.027C48.6317 100.434 47.7328 100.528 47.1684 100.4C44.5145 100.051 45.8564 98.0793 44.4061 97.8569Z" fill="#2E0F07"/>
<path d="M61.244 101.22C61.244 101.324 61.2235 101.427 61.1837 101.523C61.1438 101.619 61.0855 101.706 61.0119 101.78C60.9383 101.854 60.8509 101.912 60.7548 101.952C60.6587 101.992 60.5556 102.012 60.4516 102.012C51.3312 101.904 54.3233 103.595 53.8262 93.228C53.8262 93.0179 53.9097 92.8163 54.0583 92.6677C54.2069 92.5191 54.4085 92.4356 54.6186 92.4356H60.3095C61.3374 92.4225 61.3393 94.0354 60.3095 94.0223H55.4111V96.2501H59.9806C60.1907 96.2501 60.3923 96.3336 60.5409 96.4822C60.6895 96.6308 60.773 96.8324 60.773 97.0425C60.773 97.2527 60.6895 97.4543 60.5409 97.6029C60.3923 97.7515 60.1907 97.835 59.9806 97.835H55.4111V100.437H60.4572C60.6647 100.438 60.8635 100.521 61.0106 100.667C61.1577 100.814 61.2415 101.012 61.244 101.22Z" fill="#2E0F07"/>
<path d="M60.4504 102.044C51.2927 101.943 54.283 103.595 53.7896 93.2186C53.7901 92.9993 53.8775 92.7892 54.0327 92.6344C54.188 92.4795 54.3983 92.3925 54.6175 92.3925H60.3084C60.4203 92.3872 60.5321 92.4047 60.6371 92.4438C60.7421 92.483 60.838 92.543 60.9191 92.6204C61.0002 92.6977 61.0647 92.7906 61.1088 92.8936C61.1529 92.9966 61.1757 93.1075 61.1757 93.2195C61.1757 93.3316 61.1529 93.4424 61.1088 93.5454C61.0647 93.6484 61.0002 93.7414 60.9191 93.8187C60.838 93.896 60.7421 93.9561 60.6371 93.9953C60.5321 94.0344 60.4203 94.0519 60.3084 94.0465H55.4492V96.2014H59.9832C60.2028 96.2014 60.4134 96.2886 60.5687 96.4439C60.7239 96.5992 60.8111 96.8098 60.8111 97.0293C60.8111 97.2489 60.7239 97.4595 60.5687 97.6148C60.4134 97.7701 60.2028 97.8573 59.9832 97.8573H55.4455V100.388H60.4504C60.67 100.388 60.8806 100.475 61.0359 100.63C61.1912 100.786 61.2784 100.996 61.2784 101.216C61.2784 101.435 61.1912 101.646 61.0359 101.801C60.8806 101.956 60.67 102.044 60.4504 102.044ZM54.6175 92.4617C54.518 92.4617 54.4194 92.4813 54.3274 92.5195C54.2355 92.5576 54.1519 92.6136 54.0816 92.684C54.0113 92.7545 53.9556 92.8382 53.9177 92.9302C53.8798 93.0223 53.8604 93.1209 53.8606 93.2205V101.216C53.8606 101.315 53.8802 101.413 53.9184 101.504C53.9565 101.595 54.0124 101.678 54.0829 101.748C54.1533 101.817 54.2368 101.872 54.3286 101.909C54.4203 101.946 54.5186 101.965 54.6175 101.963H60.4504C61.4298 101.976 61.4335 100.436 60.4504 100.449H55.3744V97.7769H59.9795C60.1802 97.7769 60.3727 97.6972 60.5147 97.5552C60.6566 97.4133 60.7364 97.2208 60.7364 97.02C60.7364 96.8193 60.6566 96.6267 60.5147 96.4848C60.3727 96.3428 60.1802 96.2631 59.9795 96.2631H55.3744V93.9811H60.3084C61.2915 93.9942 61.2915 92.4523 60.3084 92.4654L54.6175 92.4617Z" fill="#2E0F07"/>
<path d="M70.5332 101.958C70.3372 102.035 70.1188 102.03 69.9261 101.946C69.7334 101.861 69.5821 101.704 69.5053 101.508L68.5709 99.1006H65.6086L64.6648 101.51C64.3041 102.47 62.7959 101.883 63.1902 100.93L66.3674 92.8733C66.6029 92.2154 67.6102 92.2154 67.8438 92.8733L70.993 100.93C71.0308 101.028 71.0489 101.132 71.0462 101.237C71.0436 101.341 71.0202 101.444 70.9774 101.54C70.9347 101.636 70.8734 101.722 70.7972 101.794C70.7209 101.865 70.6312 101.921 70.5332 101.958ZM67.9448 97.5157L67.0944 95.3347L66.2366 97.5157H67.9448Z" fill="#2E0F07"/>
<path d="M70.2424 102.043C70.0758 102.044 69.9131 101.993 69.7756 101.899C69.6382 101.805 69.5324 101.672 69.4724 101.516L68.5379 99.1315H65.6299L64.6954 101.518C64.6334 101.668 64.5289 101.797 64.3948 101.889C64.2606 101.98 64.1026 102.031 63.9402 102.034C63.7778 102.036 63.6181 101.992 63.4806 101.905C63.3432 101.819 63.234 101.694 63.1666 101.546C62.6751 101.524 66.327 93.0781 66.3288 92.8557C66.5718 92.1679 67.6277 92.1679 67.8688 92.8557L71.018 100.922C71.0641 101.047 71.0795 101.182 71.0626 101.315C71.0458 101.447 70.9973 101.574 70.9212 101.684C70.8452 101.794 70.7438 101.884 70.6257 101.947C70.5075 102.009 70.3761 102.042 70.2424 102.043ZM65.5831 99.053H68.5884L69.5397 101.483C69.7546 102.101 70.6984 102.118 70.9395 101.511C71.0196 101.326 71.0237 101.117 70.9507 100.929L67.7978 92.8856C67.5773 92.2557 66.611 92.252 66.3886 92.8856L63.2115 100.941C63.1744 101.033 63.1563 101.133 63.1583 101.232C63.1602 101.332 63.1821 101.431 63.2227 101.522C63.2837 101.658 63.3832 101.772 63.5089 101.852C63.6345 101.932 63.7808 101.973 63.9297 101.971C64.0785 101.968 64.2233 101.922 64.3461 101.838C64.4689 101.754 64.5644 101.635 64.6206 101.498L65.5831 99.053ZM67.9941 97.5392H66.1793L67.0932 95.2367L67.9941 97.5392ZM66.2821 97.4682H67.8913L67.0895 95.4124L66.2821 97.4682Z" fill="#2E0F07"/>
<path d="M81.2153 101.747C81.137 101.816 81.0459 101.869 80.947 101.902C80.8482 101.936 80.7437 101.95 80.6395 101.943C80.5353 101.936 80.4334 101.909 80.3398 101.863C80.2462 101.817 80.1626 101.752 80.094 101.674L77.1485 98.3059H74.9638V101.214C74.9638 101.424 74.8803 101.626 74.7317 101.774C74.5831 101.923 74.3815 102.006 74.1713 102.006C73.9612 102.006 73.7596 101.923 73.611 101.774C73.4624 101.626 73.3789 101.424 73.3789 101.214V93.1869C73.3787 93.0827 73.399 92.9794 73.4387 92.8831C73.4784 92.7867 73.5367 92.6991 73.6103 92.6253C73.6839 92.5516 73.7714 92.493 73.8677 92.4531C73.9639 92.4131 74.0671 92.3926 74.1713 92.3926H78.1858C78.3503 92.3926 79.737 92.4412 80.6322 93.3999C82.1105 94.9399 81.092 97.9433 79.1707 98.2106L81.2976 100.629C81.3658 100.708 81.4178 100.799 81.4506 100.898C81.4834 100.997 81.4963 101.101 81.4887 101.205C81.481 101.309 81.453 101.41 81.406 101.503C81.3591 101.596 81.2943 101.679 81.2153 101.747ZM74.9638 96.721H78.2792C78.7259 96.7434 79.6566 96.6949 79.7463 95.3997C79.8417 93.2074 76.1823 94.1886 74.9638 93.9793V96.721Z" fill="#2E0F07"/>
<path d="M74.1717 102.044C73.9523 102.043 73.742 101.956 73.5868 101.801C73.4316 101.646 73.3442 101.435 73.3438 101.216V93.1871C73.3438 92.9676 73.431 92.757 73.5862 92.6017C73.7415 92.4464 73.9521 92.3592 74.1717 92.3592C76.1527 92.5797 78.8291 91.664 80.6587 93.3759C82.1109 94.8916 81.1839 97.9267 79.2365 98.2351L81.3166 100.605C81.4191 100.725 81.4852 100.872 81.5072 101.029C81.5292 101.186 81.5063 101.345 81.4411 101.489C81.3758 101.633 81.271 101.756 81.1387 101.842C81.0065 101.929 80.8523 101.976 80.6942 101.979C80.1336 102.19 77.5171 98.6145 77.1321 98.3416H74.9996V101.214C74.9996 101.434 74.9124 101.645 74.7572 101.8C74.602 101.956 74.3914 102.043 74.1717 102.044ZM78.1843 92.4302H74.1717C73.9708 92.4307 73.7782 92.5109 73.6364 92.6531C73.4945 92.7954 73.4148 92.9881 73.4148 93.189V101.216C73.4148 101.417 73.4945 101.609 73.6365 101.751C73.7784 101.893 73.9709 101.973 74.1717 101.973C74.3724 101.973 74.565 101.893 74.7069 101.751C74.8489 101.609 74.9286 101.417 74.9286 101.216V98.2706H77.1713L80.1317 101.65C80.2645 101.8 80.4514 101.892 80.6516 101.905C80.8518 101.919 81.0492 101.852 81.2007 101.721C81.3512 101.588 81.4431 101.401 81.4564 101.201C81.4697 101.001 81.4033 100.803 81.2717 100.652L79.115 98.1903C80.4233 97.7922 81.1035 97.2184 81.3016 95.4859C81.5278 93.3722 79.3206 92.3611 78.1843 92.4284V92.4302ZM78.4347 96.7624C78.3786 96.7624 78.3319 96.7624 78.2796 96.7624H74.9286V93.9441C76.0238 94.0842 78.5861 93.5404 79.5037 94.4617C80.298 95.5121 79.3561 96.9138 78.4347 96.7605V96.7624ZM74.9996 96.6876H78.2796C78.7207 96.7119 79.6234 96.6652 79.7112 95.4C79.8046 93.2544 76.1901 94.2244 74.9996 94.0151V96.6876Z" fill="#2E0F07"/>
<path d="M92.488 98.8516C90.8059 103.855 83.6479 102.451 83.7133 97.2013C83.7133 94.5493 85.743 92.3926 88.2361 92.3926C89.9686 92.3926 91.5236 93.4186 92.2917 95.0689C92.3406 95.1637 92.3698 95.2675 92.3775 95.3739C92.3853 95.4803 92.3716 95.5872 92.337 95.6881C92.3025 95.7891 92.248 95.882 92.1766 95.9614C92.1053 96.0407 92.0187 96.1049 91.922 96.1499C91.8253 96.195 91.7205 96.2201 91.6139 96.2237C91.5073 96.2273 91.401 96.2093 91.3015 96.1708C91.202 96.1324 91.1113 96.0742 91.0348 95.9998C90.9583 95.9254 90.8976 95.8364 90.8564 95.738C89.479 92.714 85.2496 93.9232 85.2982 97.2013C85.2552 100.691 89.8565 101.674 90.9872 98.3358C91.3068 97.3583 92.8374 97.8854 92.488 98.8516Z" fill="#2E0F07"/>
<path d="M88.2359 102.044C82.2553 101.934 82.2553 92.4659 88.2359 92.3575C89.9815 92.3444 92.3475 93.7125 92.3475 95.6842C92.127 96.3664 91.0991 96.4094 90.8206 95.7515C90.3197 94.6787 89.3255 94.0115 88.2321 94.0115C86.6323 94.0115 85.3297 95.4431 85.3297 97.1999C85.2867 100.65 89.8319 101.624 90.9514 98.3213C90.9863 98.2184 91.0413 98.1234 91.1131 98.0419C91.185 97.9604 91.2723 97.894 91.3701 97.8466C91.9999 97.5101 92.7736 98.1923 92.5157 98.8595C91.8672 100.766 90.1441 102.044 88.2359 102.044ZM88.2359 92.4267C85.7614 92.4267 83.7504 94.5685 83.7504 97.1999C83.685 102.41 90.7851 103.805 92.4559 98.839C92.7886 97.9045 91.3346 97.413 91.0224 98.3474C90.5889 99.6089 89.4694 100.459 88.2377 100.459C84.3354 100.386 84.3317 94.0134 88.2377 93.9424C89.3591 93.9424 90.3758 94.6245 90.8879 95.7216C90.9528 95.8554 91.0554 95.9672 91.1831 96.0434C91.3108 96.1196 91.4579 96.1569 91.6065 96.1505C91.7551 96.1442 91.8985 96.0945 92.0192 96.0077C92.1399 95.9208 92.2326 95.8006 92.2858 95.6618C92.2354 93.7368 89.9497 92.4211 88.2359 92.4285V92.4267Z" fill="#2E0F07"/>
<path d="M102.906 93.2162V101.213C102.906 101.424 102.823 101.625 102.674 101.774C102.526 101.922 102.324 102.006 102.114 102.006C101.904 102.006 101.702 101.922 101.553 101.774C101.405 101.625 101.321 101.424 101.321 101.213V97.7091H96.7294V101.213C96.7444 102.239 95.1277 102.243 95.1427 101.213V93.2162C95.1526 93.0125 95.2405 92.8204 95.3882 92.6797C95.5359 92.539 95.7321 92.4605 95.936 92.4605C96.14 92.4605 96.3362 92.539 96.4839 92.6797C96.6316 92.8204 96.7195 93.0125 96.7294 93.2162V96.1243H101.321V93.2162C101.306 92.1883 102.921 92.1883 102.906 93.2162Z" fill="#2E0F07"/>
<path d="M102.115 102.044C101.896 102.043 101.685 101.956 101.53 101.801C101.375 101.646 101.288 101.435 101.287 101.216V97.7453H96.7643V101.214C96.7793 102.285 95.0954 102.289 95.1103 101.214V93.2169C95.105 93.105 95.1224 92.9931 95.1616 92.8882C95.2008 92.7832 95.2608 92.6873 95.3381 92.6062C95.4154 92.5251 95.5084 92.4606 95.6114 92.4164C95.7144 92.3723 95.8253 92.3496 95.9373 92.3496C96.0494 92.3496 96.1602 92.3723 96.2632 92.4164C96.3662 92.4606 96.4592 92.5251 96.5365 92.6062C96.6138 92.6873 96.6739 92.7832 96.713 92.8882C96.7522 92.9931 96.7696 93.105 96.7643 93.2169V96.0894H101.296V93.2169C101.282 92.146 102.967 92.1422 102.952 93.2169V101.214C102.952 101.324 102.931 101.432 102.888 101.533C102.846 101.634 102.785 101.726 102.707 101.803C102.629 101.881 102.536 101.942 102.435 101.983C102.333 102.024 102.225 102.045 102.115 102.044ZM96.6952 97.678H101.367V101.216C101.353 102.197 102.896 102.201 102.881 101.216V93.2169C102.881 93.0161 102.802 92.8236 102.66 92.6817C102.518 92.5397 102.325 92.46 102.124 92.46C101.924 92.46 101.731 92.5397 101.589 92.6817C101.447 92.8236 101.367 93.0161 101.367 93.2169V96.1604H96.6952V93.2169C96.6855 93.0224 96.6014 92.8391 96.4604 92.7048C96.3193 92.5706 96.132 92.4957 95.9373 92.4957C95.7426 92.4957 95.5553 92.5706 95.4142 92.7048C95.2732 92.8391 95.1891 93.0224 95.1795 93.2169V101.214C95.1664 102.193 96.7082 102.199 96.6952 101.214V97.678Z" fill="#2E0F07"/>
<path d="M146.795 110.28C148.421 108.987 148.718 106.563 147.21 105.047L131.199 88.834L125.938 94.0259L141.95 110.25C142.266 110.57 142.643 110.825 143.057 111C143.472 111.175 143.917 111.266 144.366 111.269C144.816 111.272 145.262 111.186 145.679 111.016C146.096 110.846 146.475 110.596 146.795 110.28Z" fill="#AD75F5"/>
<path d="M144.39 111.877C143.855 111.878 143.326 111.773 142.833 111.567C142.34 111.361 141.893 111.058 141.519 110.677L125.506 94.4544C125.393 94.3397 125.33 94.1853 125.33 94.0245C125.33 93.8637 125.393 93.7093 125.506 93.5947L130.771 88.4009C130.827 88.3444 130.894 88.2996 130.968 88.269C131.042 88.2384 131.121 88.2227 131.201 88.2227C131.281 88.2227 131.36 88.2384 131.433 88.269C131.507 88.2996 131.574 88.3444 131.631 88.4009L147.645 104.631C149.38 106.367 149.098 109.195 147.225 110.714C146.471 111.461 145.451 111.879 144.39 111.877ZM126.796 94.032L142.382 109.823C142.908 110.354 143.623 110.655 144.37 110.66C145.118 110.665 145.836 110.373 146.369 109.849C147.741 108.783 148.051 106.756 146.778 105.485L131.199 89.6942L126.796 94.032Z" fill="#2E0F07"/>
<path d="M110.106 94.9208C124.751 109.259 146.445 87.8394 132.297 73.0151C117.651 58.6841 95.958 80.0927 110.106 94.9208Z" fill="#FDE0A7"/>
<path d="M106.698 78.2393C111.402 91.3834 130.904 91.5086 135.776 78.4262C136.85 81.2516 137.079 84.328 136.435 87.2811C135.792 90.2343 134.304 92.9367 132.153 95.0596C120.476 106.95 100.379 93.3514 106.698 78.2393Z" fill="#FBD07A"/>
<path d="M121.205 100.175C107.15 100.603 99.4801 82.046 109.825 72.449C112.884 69.4353 117.014 67.7584 121.308 67.7865C125.603 67.8145 129.71 69.5451 132.73 72.5986C142.871 82.2572 135.16 100.586 121.205 100.175ZM121.205 69.0009C108.217 68.7374 101.158 85.326 110.552 94.5024C116.091 100.35 126.124 100.418 131.742 94.6407C141.355 85.7633 134.072 68.5224 121.201 68.9915L121.205 69.0009Z" fill="#2E0F07"/>
<path d="M129.088 91.9513C139.401 81.3993 123.997 65.7975 113.314 75.9738C103 86.5314 118.405 102.133 129.088 91.9513Z" fill="#B7EDEC"/>
<path d="M117.444 76.6264C117.406 79.2018 124.521 79.2429 124.516 76.6731C124.553 74.0977 117.438 74.0529 117.444 76.6264Z" fill="#E4F8F8"/>
<path d="M109.997 83.377C111.43 84.8941 113.15 86.1115 115.057 86.9584C116.964 87.8054 119.021 88.2651 121.107 88.3108C123.194 88.3566 125.269 87.9874 127.211 87.2248C129.154 86.4622 130.926 85.3214 132.424 83.8685C132.259 99.0722 109.488 98.5526 109.997 83.377Z" fill="#93E4E3"/>
<path d="M121.204 95.7957C110.858 96.0629 105.363 82.6253 112.884 75.5458C124.254 64.8724 140.334 81.1283 129.517 92.3905C127.306 94.5813 124.317 95.8059 121.204 95.7957ZM121.204 73.3536C111.988 73.1218 107.028 85.0362 113.648 91.428C117.573 95.5658 124.693 95.6106 128.665 91.5252C135.438 85.2231 130.42 73.0751 121.2 73.3536H121.204Z" fill="#2E0F07"/>
<path d="M146.15 107.226C146.235 107.142 146.302 107.042 146.348 106.932C146.394 106.821 146.417 106.703 146.417 106.584C146.417 106.465 146.394 106.346 146.348 106.236C146.302 106.126 146.235 106.026 146.15 105.942L140.952 100.675C140.868 100.59 140.769 100.523 140.659 100.477C140.548 100.43 140.43 100.406 140.311 100.405C140.192 100.405 140.073 100.427 139.963 100.472C139.852 100.518 139.751 100.584 139.667 100.668C139.582 100.752 139.514 100.852 139.468 100.962C139.421 101.072 139.397 101.19 139.396 101.309C139.396 101.429 139.419 101.547 139.464 101.658C139.509 101.768 139.575 101.869 139.659 101.954L144.857 107.218C144.94 107.305 145.041 107.374 145.151 107.421C145.262 107.468 145.381 107.493 145.502 107.493C145.622 107.494 145.741 107.471 145.853 107.425C145.964 107.379 146.065 107.311 146.15 107.226Z" fill="#EADCFD"/>
<path d="M139.087 100.076C139.258 99.9049 139.353 99.6737 139.353 99.4327C139.353 99.1916 139.258 98.9604 139.087 98.7898L137.202 96.8797C137.032 96.7082 136.802 96.611 136.561 96.6094C136.32 96.6078 136.088 96.702 135.917 96.8713C135.745 97.0406 135.648 97.271 135.647 97.512C135.645 97.753 135.739 97.9847 135.908 98.1562L137.792 100.066C137.876 100.153 137.977 100.221 138.087 100.269C138.198 100.316 138.317 100.341 138.438 100.342C138.558 100.342 138.678 100.319 138.789 100.274C138.901 100.228 139.002 100.161 139.087 100.076Z" fill="#EADCFD"/>
<path d="M10.9949 70.709C10.8957 70.709 10.8007 70.6696 10.7306 70.5995C10.6605 70.5294 10.6211 70.4343 10.6211 70.3352V55.3015C10.6211 55.2024 10.6605 55.1073 10.7306 55.0372C10.8007 54.9671 10.8957 54.9277 10.9949 54.9277C11.094 54.9277 11.1891 54.9671 11.2592 55.0372C11.3293 55.1073 11.3687 55.2024 11.3687 55.3015V70.3352C11.3687 70.4343 11.3293 70.5294 11.2592 70.5995C11.1891 70.6696 11.094 70.709 10.9949 70.709Z" fill="#2E0F07"/>
<path d="M17.815 47.0971C8.30964 56.2828 -5.75405 42.2154 3.42426 32.7063C12.939 23.5205 27.0027 37.5861 17.815 47.0971Z" fill="#FDE880"/>
<path d="M20.7274 40.3916C14.6815 43.6361 7.24126 43.5968 0.630859 41.3448C2.52221 53.2517 20.1929 52.5172 20.7274 40.3916Z" fill="#FAD100"/>
<path d="M7.16826 48.3023C4.62838 47.8052 1.89227 43.6655 1.58203 41.5928L2.30904 41.4209C2.32026 41.4695 3.51076 46.3212 7.4 47.5884L7.16826 48.3023Z" fill="#FDFAD4"/>
<path d="M17.1322 39.8981C16.9883 48.3587 4.25719 48.3568 4.11328 39.8981C4.25906 31.4393 16.9883 31.4412 17.1322 39.8981Z" fill="#D3B4FA"/>
<path d="M10.6231 46.7233C1.55698 46.5607 1.55884 33.2352 10.6231 33.0801C19.6893 33.2352 19.6874 46.5625 10.6231 46.7233ZM10.6231 33.8519C2.58675 33.9959 2.58675 45.8131 10.6231 45.9458C18.6689 45.8019 18.667 33.994 10.6231 33.8519Z" fill="#2E0F07"/>
<path d="M8.45514 34.1341C8.41216 36.6684 4.59767 36.6665 4.55469 34.1341C4.59954 31.5998 8.41029 31.5998 8.45514 34.1341Z" fill="#FDFAD4"/>
<path d="M10.0213 44.8092C9.85683 44.6822 9.93533 44.1663 9.91851 43.9738C8.84574 43.8374 8.02528 43.7458 7.58422 43.1889C7.573 43.1085 7.97108 42.546 8.00846 42.4619C8.11312 42.1759 8.96909 42.8132 9.31671 42.8076C10.5035 43.1814 12.6602 42.9123 11.8173 41.2901C11.0698 40.5574 9.24569 40.3406 8.5056 39.5669C7.08895 38.3315 8.03276 36.1019 9.90916 36.0159C9.92972 35.6608 9.76899 34.9712 10.3465 35.0273C11.281 34.9862 11.3258 35.0572 11.281 35.9823C12.0285 36.0514 12.8247 36.1449 13.2489 36.7205C13.2695 36.8196 12.8752 37.3354 12.8452 37.427C12.7518 37.5597 12.7126 37.5485 12.5817 37.4718C11.8528 36.999 10.3876 36.814 9.65499 37.2719C9.12048 37.6456 9.16533 38.7259 9.85496 38.967C10.524 39.2847 11.9556 39.7426 12.507 40.1257C14.2768 41.2471 13.4134 43.9084 11.281 43.9645C11.2623 44.3196 11.4137 44.9569 10.8436 44.899C10.6642 44.8915 10.1577 44.9606 10.0213 44.8092Z" fill="#2E0F07"/>
<path d="M10.6228 50.5617C-3.54185 50.3075 -3.53998 29.4858 10.6228 29.2354C24.7892 29.4877 24.7874 50.3113 10.6228 50.5617ZM10.6228 30.4502C-1.94579 30.6744 -1.94392 49.1245 10.6228 49.3469C23.1932 49.1226 23.1913 30.6726 10.6228 30.4502Z" fill="#2E0F07"/>
<path d="M64.0191 29.6134C63.178 30.0563 63.8471 18.7437 63.6453 18.6091C63.6453 18.51 63.6847 18.4149 63.7548 18.3448C63.8248 18.2747 63.9199 18.2353 64.0191 18.2353C64.8582 17.7924 64.1891 29.1069 64.3928 29.2396C64.3928 29.3387 64.3535 29.4338 64.2834 29.5039C64.2133 29.574 64.1182 29.6134 64.0191 29.6134Z" fill="#2E0F07"/>
<path d="M68.8399 12.8035C62.1117 19.298 52.1746 9.35157 58.6692 2.63091C65.3917 -3.86362 75.3363 6.08282 68.8399 12.8035Z" fill="#FDE880"/>
<path d="M70.8992 8.06641C66.6249 10.3614 61.3676 10.3334 56.6953 8.74109C58.026 17.1606 70.5216 16.6336 70.8992 8.06641Z" fill="#FAD100"/>
<path d="M61.2777 13.7652C58.1828 12.7541 57.2913 9.09286 57.2539 8.94147L57.9828 8.76953C57.9828 8.80317 58.8201 12.1766 61.5095 13.055L61.2777 13.7652Z" fill="#FDFAD4"/>
<path d="M68.3587 7.71855C68.2559 13.6991 59.2551 13.6991 59.1523 7.71855C59.2551 1.73611 68.2578 1.73798 68.3587 7.71855Z" fill="#D3B4FA"/>
<path d="M63.7559 12.6585C57.196 12.5407 57.196 2.89517 63.7559 2.7793C70.3158 2.89517 70.3158 12.5407 63.7559 12.6585ZM63.7559 3.55677C58.2183 3.65582 58.2183 11.7801 63.7559 11.881C69.2954 11.7744 69.2935 3.65396 63.7559 3.55116V3.55677Z" fill="#2E0F07"/>
<path d="M62.2234 3.64258C62.214 5.42367 59.4723 5.42367 59.4649 3.64258C59.4574 1.8615 62.214 1.86897 62.2234 3.64258Z" fill="#FDFAD4"/>
<path d="M63.3286 11.1915C63.2127 11.0999 63.2688 10.7374 63.2557 10.5991C62.4969 10.5038 61.9176 10.4383 61.6055 10.0384C61.6522 9.92813 61.8802 9.49828 61.9961 9.45155C62.8035 9.96364 65.2798 10.2664 64.6126 8.70398C64.0799 8.18442 62.796 8.03678 62.2633 7.4761C61.2691 6.62013 61.9344 5.00724 63.2557 4.97173C63.2707 4.7213 63.1567 4.23351 63.566 4.27275C64.222 4.23911 64.2631 4.30266 64.2313 4.94744C64.7565 4.9979 65.3228 5.06331 65.6218 5.47074C65.543 5.68766 65.4151 5.8834 65.248 6.04263C64.6873 5.70622 63.6482 5.50438 63.0819 5.85574C62.7081 6.11365 62.7362 6.88365 63.224 7.05372C63.6968 7.27799 64.7098 7.60132 65.0929 7.87418C66.3376 8.64044 65.7246 10.5692 64.2257 10.586C64.2126 10.8383 64.3192 11.2887 63.9173 11.2457C63.7828 11.2495 63.4239 11.2981 63.3286 11.1915Z" fill="#2E0F07"/>
<path d="M63.754 15.4355C53.5029 15.2486 53.5048 0.181286 63.754 0C74.0088 0.186893 74.0088 15.2542 63.754 15.4355ZM63.754 1.2148C55.1009 1.36992 55.1009 14.0674 63.754 14.2207C72.409 14.0674 72.4071 1.36806 63.754 1.2148Z" fill="#2E0F07"/>
</svg>
