<svg width="150" height="127" viewBox="0 0 150 127" fill="none" xmlns="http://www.w3.org/2000/svg">
<path d="M131.837 68.6256C130.511 146.001 15.432 145.981 14.123 68.6256C15.4436 -8.74169 130.526 -8.73009 131.837 68.6256Z" fill="#D4CBFF"/>
<path d="M137.101 107.314C136.532 106.779 12.1947 108.339 12.2892 106.775C12.1632 105.208 136.567 106.775 137.102 106.235C137.764 106.225 137.826 107.324 137.101 107.314Z" fill="#2E0F07"/>
<path d="M24.418 53.5461C25.48 115.748 118.006 115.74 119.06 53.5461C117.998 -8.65754 25.4701 -8.64926 24.418 53.5461Z" fill="#A4DDF4"/>
<path d="M61.9674 7.2334C27.2031 41.5305 67.4351 99.5092 111.89 78.5913C88.3812 118.315 23.495 100.488 24.408 53.5428C24.4196 30.7592 40.5243 11.7351 61.9674 7.2334Z" fill="#5FC4EC"/>
<path d="M48.2148 94.6184C55.0693 77.4036 68.7235 100.653 76.9863 91.5383C82.9842 85.8039 85.9135 72.7544 91.4656 72.6351C97.0178 72.5158 104.523 65.3697 102.645 71.694C100.766 78.0183 91.9064 79.7944 93.0844 82.7817C94.2624 85.7691 95.5697 81.4016 95.2565 88.097C94.9898 101.309 70.2213 106.067 48.2148 94.6184Z" fill="#ABD24E"/>
<path d="M43.7602 15.3789C43.7602 15.3789 49.2792 23.6318 45.7335 25.7923C42.1878 27.9529 36.1817 30.5972 41.8879 32.9003C65.7252 45.2687 34.432 40.328 31.3651 43.7859C30.83 45.8917 33.2308 50.5011 31.7628 52.8025C30.2948 55.1039 24.4395 52.1712 24.4395 52.1712C24.4395 52.1712 25.185 29.7373 43.7602 15.3789Z" fill="#ABD24E"/>
<path d="M71.7414 101.402C38.1782 102.048 14.0245 65.5652 27.6406 34.9165C43.8364 -3.8094 99.6446 -3.8094 115.837 34.9165C129.447 65.5635 105.303 102.051 71.7414 101.402ZM71.7414 6.75974C38.9354 6.13178 15.3251 41.7958 28.633 71.7552C44.4644 109.611 99.0167 109.611 114.845 71.7552C128.148 41.7975 104.547 6.13178 71.7414 6.76305V6.75974Z" fill="#2E0F07"/>
<path d="M53.7459 15.0794C53.9994 13.6694 53.9663 13.8483 54.2198 12.4383L51.7627 11.3166C51.597 10.3573 51.539 10.0243 51.3717 9.06496L53.2887 7.19602C52.5762 5.95337 52.6673 6.11077 51.9532 4.87641L49.3553 5.59383L47.6089 4.12253L47.8707 1.45498L45.3506 0.520508L43.8296 2.73574H41.5464L40.0238 0.520508L37.5054 1.44007L37.7754 4.10762L36.0291 5.57892L33.4311 4.86149C32.717 6.10249 32.8081 5.94508 32.0957 7.1811L34.0127 9.05005C33.847 10.0094 33.7873 10.3424 33.6217 11.3017L31.1562 12.4284C31.4098 13.8384 31.3766 13.6594 31.6301 15.0694L34.3043 15.2666L35.4558 17.2466L34.296 19.6838L36.3538 21.4053L38.5359 19.8346L40.6898 20.615L41.3526 23.2262H44.0367L44.6995 20.615L46.8534 19.8346L49.0355 21.4053L51.0933 19.6838L49.9335 17.2466L51.08 15.2683L53.7459 15.0794ZM42.688 17.2631C35.6132 17.1422 35.6149 6.61943 42.688 6.49351C49.7612 6.6128 49.7612 17.1355 42.688 17.2548V17.2631Z" fill="#EFE3FD"/>
<path d="M53.7473 15.079C54.0008 13.669 53.9676 13.8479 54.2211 12.4379L51.764 11.3162C51.5983 10.3569 51.5403 10.0239 51.373 9.06453L53.29 7.19559C52.5775 5.95294 52.6687 6.11034 51.9546 4.87598L50.1569 5.37304C50.6539 9.33129 48.0642 15.8941 44.1209 17.0788C41.5113 18.6445 37.9607 19.1598 34.9352 18.3463L34.2891 19.6999L36.3469 21.4214L38.529 19.8507L40.6829 20.6311L41.3456 23.2423H44.0298L44.6925 20.6311L46.8464 19.8507L49.0285 21.4214L51.0864 19.6999L49.9266 17.2627L51.0731 15.2844L53.7473 15.079Z" fill="#DEC8FB"/>
<path d="M44.0304 23.7643C40.4963 23.6234 41.1325 24.6374 40.2279 21.0238L38.6041 20.4373C35.5936 22.6343 36.7236 22.2366 33.9351 20.096C33.8432 20.0195 33.7795 19.9146 33.754 19.7979C33.7285 19.6811 33.7426 19.5592 33.7943 19.4514L34.8364 17.271L33.9732 15.7798C30.2519 15.5247 31.3901 15.9604 30.6197 12.5191C30.5987 12.4017 30.6175 12.2806 30.673 12.1749C30.7285 12.0693 30.8176 11.9852 30.9262 11.9359L33.1365 10.9368L33.4297 9.24349C30.7473 6.66541 31.3454 7.70261 32.9608 4.59267C33.0202 4.48903 33.1123 4.40804 33.2226 4.36245C33.333 4.31686 33.4554 4.30925 33.5706 4.34083L35.8902 4.98369L37.2041 3.87856L36.9688 1.49268C36.9572 1.37383 36.9853 1.25449 37.0489 1.15341C37.1125 1.05234 37.2079 0.975263 37.3201 0.934313C40.6769 -0.139335 39.7407 -0.888238 41.83 2.19684H43.5466C45.6375 -0.888238 44.7064 -0.134365 48.0565 0.934313C48.1687 0.975263 48.2641 1.05234 48.3277 1.15341C48.3913 1.25449 48.4195 1.37383 48.4078 1.49268L48.1725 3.87856L49.4864 4.98369L51.806 4.34083C51.9212 4.30925 52.0436 4.31686 52.154 4.36245C52.2643 4.40804 52.3564 4.48903 52.4158 4.59267C54.0362 7.70758 54.6244 6.66872 51.9452 9.24349L52.2451 10.9368C55.65 12.4694 54.7586 11.6658 54.2764 15.1668C54.255 15.2854 54.1944 15.3933 54.1042 15.4733C54.0141 15.5532 53.8996 15.6005 53.7794 15.6075L51.3951 15.7848L50.5336 17.276L51.5741 19.4564C51.6259 19.564 51.6403 19.6858 51.6151 19.8026C51.5899 19.9193 51.5265 20.0243 51.4349 20.1009C48.6596 22.2383 49.7598 22.6343 46.7658 20.4422L45.1487 21.0288L44.5523 23.3633C44.5219 23.4784 44.4541 23.5802 44.3597 23.6528C44.2653 23.7253 44.1494 23.7645 44.0304 23.7643ZM41.7638 22.6873H43.6112C43.7769 22.3559 44.0304 20.1821 44.5142 20.1092C47.4336 19.0704 46.4792 18.9196 49.0059 20.7222L50.4225 19.5376C49.0971 16.7209 49.0656 17.6935 50.6065 14.9978C50.7556 14.5372 52.941 14.6664 53.2906 14.5653L53.622 12.7428C53.3187 12.5175 51.2261 11.8845 51.2394 11.3974C50.7307 8.3521 50.4109 9.2584 52.6212 7.08957L51.6934 5.49069C48.6928 6.30587 49.6422 6.49972 47.2596 4.51977C46.8338 4.29444 47.3358 2.16371 47.2927 1.80251L45.563 1.1613C43.7802 3.72779 44.66 3.24067 41.55 3.26718C41.0778 3.3699 40.0854 1.40983 39.8203 1.1613L38.0855 1.79588C38.0425 2.17033 38.5445 4.28118 38.1187 4.51314C35.7344 6.50138 36.6772 6.29593 33.6849 5.48406L32.7653 7.08625C34.9822 9.26006 34.6525 8.35044 34.1472 11.3941C34.1687 11.8762 32.0545 12.5208 31.7646 12.7395L32.096 14.562C32.4588 14.6664 34.6227 14.5322 34.7801 14.9945C36.3259 17.6918 36.2895 16.7242 34.964 19.5343L36.3806 20.7206C38.914 18.9096 37.9546 19.0637 40.8724 20.1059C41.3429 20.1722 41.5997 22.3692 41.7638 22.6873ZM42.6883 17.7879C34.901 17.6488 34.9093 6.08716 42.6883 5.94799C50.4689 6.09213 50.4673 17.6537 42.6883 17.7929V17.7879ZM42.6883 7.01832C36.3243 7.13264 36.3243 16.5917 42.6883 16.7044C49.0523 16.6016 49.0523 7.14259 42.6883 7.02992V7.01832Z" fill="#2E0F07"/>
<path d="M42.6883 6.49121C35.6135 6.61216 35.6151 17.1349 42.6883 17.2608C49.7615 17.1333 49.7615 6.61051 42.6883 6.49121Z" fill="#FEF6CC"/>
<path d="M46.8684 8.48145C46.7324 9.89041 46.1429 11.2172 45.1883 12.2624C44.9878 13.795 43.2581 14.8239 41.7984 14.2391C40.4171 14.5483 38.973 14.4072 37.6777 13.8364C41.0279 21.3221 51.7362 15.1205 46.8684 8.48145Z" fill="#FDEC99"/>
<path d="M42.6889 17.7931C34.9016 17.6539 34.9099 6.0923 42.6889 5.95312C50.4695 6.0923 50.4679 17.6539 42.6889 17.7931ZM42.6889 7.02346C36.3249 7.13778 36.3249 16.5968 42.6889 16.7095C49.0529 16.6018 49.0529 7.14275 42.6889 7.03009V7.02346Z" fill="#2E0F07"/>
<path d="M71.7422 101.402C70.1831 101.523 71.7422 6.75863 71.2037 6.22015C71.2051 6.0782 71.2624 5.94251 71.3632 5.84259C71.4641 5.74268 71.6003 5.68663 71.7422 5.68664C73.303 5.56569 71.7422 100.33 72.2824 100.869C72.2806 101.011 72.2229 101.146 72.1218 101.246C72.0207 101.346 71.8843 101.402 71.7422 101.402Z" fill="#2E0F07"/>
<path d="M119.06 55.6439C118.5 55.1121 23.7783 56.6662 23.881 55.1071C23.7584 53.5447 118.523 55.1071 119.061 54.5653C119.731 54.557 119.779 55.6539 119.06 55.6439Z" fill="#2E0F07"/>
<path d="M110.755 80.0745C110.211 79.551 32.0733 81.0852 32.1876 79.5377C32.0667 77.9869 110.226 79.5211 110.755 78.9959C111.431 78.9876 111.469 80.0845 110.755 80.0745Z" fill="#2E0F07"/>
<path d="M112.708 31.2139C112.162 30.6854 29.6349 32.2329 29.7443 30.6771C29.6266 29.1164 112.17 30.6672 112.71 30.137C113.384 30.127 113.424 31.2239 112.708 31.2139Z" fill="#2E0F07"/>
<path d="M71.7418 101.402C43.7027 97.7564 43.4211 38.9228 54.527 19.844C63.5188 1.11153 79.945 1.07839 88.9517 19.844C100.051 38.8897 99.7826 97.7564 71.7418 101.402ZM71.7418 6.75978C44.9006 10.4049 44.6637 68.4797 55.4946 86.7615C64.1203 104.695 79.3535 104.73 87.9907 86.7615C98.8117 68.5178 98.593 10.4099 71.7418 6.76309V6.75978Z" fill="#2E0F07"/>
<path d="M7.27842 90.3684C4.52637 90.3766 1.21264 89.9541 0.173787 87.5832C-2.01162 80.1555 16.981 69.8365 25.3084 64.571L26.7267 67.0033C-41.0904 108.297 55.9439 76.7291 79.2924 65.0763C107.872 54.2056 194.895 4.79627 111.808 29.4537L110.952 26.7696C122.79 23.6299 144.308 15.4333 149.752 22.6275C150.837 25.8368 148.16 28.4961 145.557 31.1056C114.706 55.8012 46.5909 85.9926 7.27842 90.3684Z" fill="#2E0F07"/>
<path d="M27.2264 19.0552H29.4748C30.4689 9.65749 44.6036 9.66246 45.5928 19.0552C53.9318 17.8689 54.4769 27.6013 47.8428 28.1067H27.2264C26.6248 28.1182 26.0269 28.0096 25.4678 27.7874C24.9086 27.5651 24.3994 27.2336 23.9698 26.8122C23.5403 26.3908 23.1991 25.888 22.9662 25.3332C22.7333 24.7784 22.6133 24.1827 22.6133 23.581C22.6133 22.9792 22.7333 22.3835 22.9662 21.8287C23.1991 21.2739 23.5403 20.7711 23.9698 20.3497C24.3994 19.9283 24.9086 19.5968 25.4678 19.3745C26.0269 19.1523 26.6248 19.0437 27.2264 19.0552Z" fill="white"/>
<path d="M47.8435 28.6401H27.2255C25.8831 28.6384 24.5963 28.1044 23.6471 27.1552C22.6979 26.206 22.1639 24.9191 22.1621 23.5768C22.2234 19.766 25.5653 18.1091 29.0099 18.5117C30.4928 9.09908 44.5845 9.10405 46.0607 18.5117C54.0534 17.337 55.5811 27.9128 47.8435 28.6401ZM27.2255 19.5887C21.9931 19.6798 21.9815 27.4704 27.2255 27.5632H47.8435C48.9007 27.5623 49.9143 27.1421 50.662 26.3947C51.4096 25.6474 51.8303 24.6339 51.8316 23.5768C51.255 17.612 45.1097 20.5944 45.0583 19.1115C44.1172 10.3301 30.9518 10.3301 30.0107 19.1115C29.9956 19.2429 29.9328 19.3641 29.8341 19.4521C29.7354 19.5401 29.6077 19.5887 29.4755 19.5887H27.2255Z" fill="#2E0F07"/>
<path d="M29.284 83.6727H31.085C31.8787 76.1522 43.1917 76.1572 43.9837 83.6727C50.6559 82.725 51.0933 90.5122 45.7831 90.9165H29.284C28.3234 90.9165 27.4022 90.5349 26.7229 89.8557C26.0437 89.1764 25.6621 88.2552 25.6621 87.2946C25.6621 86.334 26.0437 85.4128 26.7229 84.7335C27.4022 84.0543 28.3234 83.6727 29.284 83.6727Z" fill="white"/>
<path d="M45.7847 91.4608H29.2857C28.1828 91.4595 27.1256 91.0207 26.3459 90.2407C25.5662 89.4607 25.1278 88.4033 25.127 87.3004C25.1485 84.2833 27.8608 82.7937 30.6228 83.14C31.9019 75.6079 43.1719 75.6112 44.4477 83.14C50.8282 82.1989 52.1355 90.8892 45.7847 91.4608ZM29.2857 84.217C25.2396 84.2882 25.2313 90.3126 29.2857 90.3838H45.7847C46.6022 90.383 47.386 90.0578 47.9641 89.4798C48.5422 88.9017 48.8673 88.1179 48.8682 87.3004C48.3877 82.5552 43.5066 85.1316 43.4502 83.7415C42.7096 76.839 32.3608 76.839 31.6219 83.7415C31.6064 83.8725 31.5434 83.9934 31.4447 84.081C31.3461 84.1687 31.2187 84.2171 31.0867 84.217H29.2857Z" fill="#2E0F07"/>
<path d="M101.812 60.414H104.241C105.311 50.2657 120.576 50.2707 121.638 60.414C130.643 59.1333 131.231 69.6428 124.068 70.1896H101.812C100.515 70.1896 99.2721 69.6746 98.3554 68.758C97.4388 67.8413 96.9238 66.5981 96.9238 65.3018C96.9238 64.0055 97.4388 62.7623 98.3554 61.8456C99.2721 60.929 100.515 60.414 101.812 60.414Z" fill="white"/>
<path d="M124.073 70.7262H101.809C100.371 70.7245 98.9924 70.1524 97.9755 69.1355C96.9586 68.1185 96.3865 66.7398 96.3848 65.3017C96.4544 61.1926 100.066 59.433 103.771 59.8754C105.338 49.7122 120.547 49.7172 122.113 59.8754C130.761 58.6046 132.349 69.9525 124.073 70.7262ZM101.809 60.9507C100.671 60.973 99.5863 61.4409 98.789 62.2539C97.9916 63.067 97.545 64.1604 97.545 65.2992C97.545 66.438 97.9916 67.5313 98.789 68.3444C99.5863 69.1575 100.671 69.6254 101.809 69.6476H124.073C129.782 69.5465 129.792 61.0535 124.073 60.9507H121.644C121.513 60.9492 121.388 60.9003 121.291 60.8131C121.194 60.7259 121.132 60.6064 121.117 60.4769C120.885 58.4733 119.924 56.625 118.418 55.2834C116.912 53.9418 114.965 53.2005 112.948 53.2005C110.931 53.2005 108.985 53.9418 107.479 55.2834C105.973 56.625 105.012 58.4733 104.78 60.4769C104.765 60.6081 104.703 60.7293 104.604 60.8173C104.506 60.9054 104.379 60.954 104.247 60.954L101.809 60.9507Z" fill="#2E0F07"/>
<path d="M81.0202 28.1861C80.2747 28.5788 80.8678 18.5481 80.6889 18.4305C80.6889 18.3426 80.7238 18.2583 80.7859 18.1962C80.8481 18.134 80.9324 18.0991 81.0202 18.0991C81.7658 17.7064 81.1727 27.7371 81.3516 27.8547C81.3516 27.9426 81.3167 28.0269 81.2546 28.0891C81.1924 28.1512 81.1081 28.1861 81.0202 28.1861Z" fill="#2E0F07"/>
<path d="M85.2925 13.2833C79.3278 19.0426 70.5166 10.2247 76.2758 4.26665C82.2339 -1.48929 91.0501 7.32688 85.2925 13.2833Z" fill="#FDE880"/>
<path d="M87.1176 9.08398C83.3267 11.117 78.6676 11.0921 74.5254 9.68046C75.7051 17.1446 86.7812 16.6857 87.1176 9.08398Z" fill="#FAD100"/>
<path d="M78.5887 14.1358C75.8449 13.2395 75.053 9.99367 75.0215 9.85946L75.666 9.70703C75.6743 9.73685 76.4083 12.7275 78.7942 13.5062L78.5887 14.1358Z" fill="#FDFAD4"/>
<path d="M84.8632 8.78312C84.7737 14.0851 76.7926 14.0851 76.7031 8.78312C76.7943 3.48115 84.7737 3.48115 84.8632 8.78312Z" fill="#D3B4FA"/>
<path d="M80.7842 13.1537C74.9669 13.051 74.9686 4.49989 80.7842 4.39551C86.5998 4.49989 86.5981 13.051 80.7842 13.1537ZM80.7842 5.08476C75.8732 5.17258 75.8749 12.375 80.7842 12.4644C85.6935 12.3766 85.6935 5.17258 80.7842 5.08476Z" fill="#2E0F07"/>
<path d="M79.4224 5.16045C79.4224 6.7411 76.9852 6.7411 76.9785 5.16045C76.9719 3.5798 79.4158 3.58146 79.4224 5.16045Z" fill="#FDFAD4"/>
<path d="M80.4062 11.8532C80.3019 11.7737 80.3516 11.4506 80.3416 11.3297C79.6689 11.2435 79.1536 11.1872 78.877 10.8326C78.9184 10.7349 79.1205 10.3554 79.2232 10.3124C79.939 10.7663 82.1343 11.0364 81.5428 9.64961C81.0756 9.19066 79.9307 9.05314 79.4668 8.56934C78.5837 7.80884 79.1735 6.37896 80.3466 6.34914C80.3598 6.12546 80.2588 5.69468 80.62 5.72947C81.2015 5.69799 81.238 5.75598 81.2115 6.3276C81.6771 6.37233 82.1791 6.43033 82.4442 6.79152C82.4177 6.89259 82.2089 7.25544 82.1128 7.29687C81.6158 7.00029 80.6945 6.82135 80.1908 7.13118C79.8595 7.36148 79.8843 8.04411 80.3168 8.19323C80.736 8.39371 81.634 8.68035 81.9736 8.92059C83.0788 9.60156 82.5353 11.3114 81.2065 11.3264C81.1949 11.55 81.2893 11.9493 80.9315 11.9112C80.8089 11.9046 80.4907 11.9493 80.4062 11.8532Z" fill="#2E0F07"/>
<path d="M80.7841 15.6176C71.6962 15.452 71.6978 2.09431 80.7841 1.93359C89.8703 2.09597 89.8686 15.4569 80.7841 15.6176ZM80.7841 3.01056C73.1111 3.14642 73.1128 14.4048 80.7841 14.5407C88.4553 14.4032 88.4537 3.14973 80.7841 3.01056Z" fill="#2E0F07"/>
<path d="M71.325 27.1743H72.8261C73.4889 20.9064 82.9164 20.9097 83.5775 27.1743C89.1396 26.384 89.5041 32.8756 85.0787 33.2136H71.3267C70.5381 33.1951 69.788 32.8689 69.2368 32.3046C68.6855 31.7403 68.377 30.9828 68.377 30.1939C68.377 29.4051 68.6855 28.6476 69.2368 28.0833C69.788 27.519 70.5381 27.1928 71.3267 27.1743H71.325Z" fill="white"/>
<path d="M85.0782 33.7504H71.3262C70.3823 33.75 69.4772 33.3749 68.8096 32.7076C68.142 32.0403 67.7665 31.1354 67.7656 30.1915C67.7656 27.6979 70.0571 26.331 72.3634 26.6342C73.5017 20.3547 82.8978 20.358 84.036 26.6342C89.4093 25.877 90.4498 33.3047 85.0782 33.7504ZM71.3262 27.7111C68.0705 27.7675 68.0639 32.6155 71.3262 32.6734H85.0782C85.7373 32.6734 86.3695 32.4116 86.8356 31.9455C87.3017 31.4794 87.5635 30.8473 87.5635 30.1882C87.1509 26.2713 83.1248 28.5578 83.0469 27.2323C82.4421 21.5824 73.9706 21.5824 73.3658 27.2323C73.3504 27.3634 73.2874 27.4842 73.1887 27.5719C73.0901 27.6595 72.9626 27.7079 72.8307 27.7078L71.3262 27.7111Z" fill="#2E0F07"/>
<path d="M14.3548 66.9591C14.2669 66.9591 14.1826 66.9242 14.1205 66.8621C14.0583 66.7999 14.0234 66.7156 14.0234 66.6277V53.7357C14.0234 53.6478 14.0583 53.5635 14.1205 53.5014C14.1826 53.4392 14.2669 53.4043 14.3548 53.4043C14.4427 53.4043 14.527 53.4392 14.5891 53.5014C14.6513 53.5635 14.6862 53.6478 14.6862 53.7357V66.6277C14.6862 66.7156 14.6513 66.7999 14.5891 66.8621C14.527 66.9242 14.4427 66.9591 14.3548 66.9591Z" fill="#2E0F07"/>
<path d="M20.2011 46.6932C12.0493 54.5716 -0.0126657 42.5079 7.86738 34.3595C16.0192 26.4811 28.0795 38.5447 20.2011 46.6932Z" fill="#FDE880"/>
<path d="M22.6982 40.9492C17.5122 43.7311 11.1333 43.698 5.4668 41.7661C7.08721 51.9773 22.2409 51.3477 22.6982 40.9492Z" fill="#FAD100"/>
<path d="M11.0701 47.7444C8.88963 47.3169 6.54019 43.7679 6.27344 41.9818L6.91796 41.8311C6.9279 41.8725 7.94687 46.0262 11.2772 47.1148L11.0701 47.7444Z" fill="#FDFAD4"/>
<path d="M19.6171 40.5272C19.4928 47.781 8.57573 47.7793 8.45312 40.5272C8.57739 33.2735 19.4945 33.2735 19.6171 40.5272Z" fill="#D3B4FA"/>
<path d="M14.0358 46.3933C6.2485 46.2541 6.2485 34.7953 14.0358 34.666C21.8247 34.7953 21.823 46.2508 14.0358 46.3933ZM14.0358 35.3553C7.15314 35.4779 7.15314 45.5814 14.0358 45.704C20.92 45.5781 20.9184 35.4746 14.0358 35.352V35.3553Z" fill="#2E0F07"/>
<path d="M12.1736 35.5822C12.1372 37.756 8.8599 37.756 8.83008 35.5822C8.86819 33.4101 12.1372 33.4101 12.1736 35.5822Z" fill="#FDFAD4"/>
<path d="M13.5189 44.7369C13.3764 44.6276 13.4444 44.1852 13.4294 44.0195C12.5099 43.9019 11.8057 43.824 11.4279 43.3468C11.418 43.2772 11.7593 42.7951 11.7925 42.7222C11.8886 42.4803 12.6126 43.0254 12.9208 43.0204C13.9398 43.3518 15.7888 43.1099 15.0747 41.7181C14.4352 41.0902 12.8694 40.9046 12.2348 40.2418C11.0204 39.1815 11.8273 37.2694 13.4377 37.2032C13.4559 36.8983 13.3184 36.3068 13.8122 36.3565C14.6191 36.32 14.6522 36.3814 14.6207 37.175C15.2586 37.2346 15.9462 37.3142 16.3074 37.8079C16.3256 37.8924 15.9959 38.3348 15.9628 38.4127C15.8816 38.527 15.8485 38.5187 15.7358 38.4524C15.1112 38.0482 13.8536 37.8874 13.2256 38.2867C12.7684 38.5999 12.8065 39.5327 13.3913 39.7398C13.9646 40.0115 15.1923 40.4026 15.6646 40.7339C17.1822 41.6899 16.4416 43.9781 14.6141 44.0245C14.5992 44.3293 14.7268 44.8761 14.2396 44.8247C14.069 44.8082 13.6332 44.8678 13.5189 44.7369Z" fill="#2E0F07"/>
<path d="M14.0355 49.6875C1.86413 49.4705 1.86744 31.5813 14.0355 31.3643C26.2068 31.583 26.2051 49.4721 14.0355 49.6875ZM14.0355 32.4412C3.28075 32.6334 3.2824 48.42 14.0355 48.6106C24.7902 48.42 24.7885 32.6318 14.0355 32.4412Z" fill="#2E0F07"/>
<path d="M117.552 35.0142C111.726 35.0821 106.151 31.3691 103.937 25.9893C103.167 24.1694 102.773 22.2127 102.777 20.2366V8.38508C102.779 6.92892 103.358 5.5329 104.388 4.50323C105.418 3.47357 106.814 2.89433 108.27 2.89258H126.838C128.295 2.89433 129.691 3.47357 130.72 4.50323C131.75 5.5329 132.329 6.92892 132.331 8.38508C132.049 12.5041 133.138 22.2597 131.171 25.9893C128.954 31.3691 123.379 35.0821 117.552 35.0142Z" fill="#D7BDFA"/>
<path d="M117.55 35.5531C111.513 35.6227 105.734 31.7754 103.439 26.2001C102.641 24.313 102.231 22.2844 102.234 20.2354V8.38548C102.236 6.7865 102.872 5.25351 104.003 4.12287C105.133 2.99222 106.666 2.35625 108.265 2.35449H126.837C128.436 2.35625 129.969 2.99222 131.1 4.12287C132.23 5.25351 132.866 6.7865 132.868 8.38548C132.588 12.6237 133.685 22.3562 131.662 26.2001C129.367 31.7754 123.59 35.6243 117.55 35.5531ZM108.272 3.43145C106.959 3.43321 105.7 3.95571 104.771 4.88439C103.842 5.81307 103.32 7.07213 103.318 8.38548V20.237C103.317 22.1071 103.684 23.9591 104.4 25.6869C105.116 27.4147 106.165 28.9843 107.488 30.3058C112.774 35.8232 122.34 35.8232 127.628 30.3058C133.516 24.9889 131.463 15.3493 131.798 8.38548C131.796 7.07213 131.274 5.81307 130.345 4.88439C129.416 3.95571 128.157 3.43321 126.844 3.43145H108.272Z" fill="#2E0F07"/>
<path d="M117.551 32.2559C103.84 31.623 105.366 18.3068 105.542 8.38549C105.542 7.66087 105.83 6.96594 106.342 6.45355C106.855 5.94117 107.55 5.65332 108.274 5.65332H126.838C127.562 5.6542 128.256 5.94244 128.767 6.45472C129.279 6.96701 129.567 7.66145 129.567 8.38549C129.732 18.3085 131.261 31.6263 117.551 32.2559Z" fill="#FDEC99"/>
<path d="M126.839 5.65332H126.507C129.008 17.1536 117.852 27.8553 106.473 24.8879C111.176 36.7378 129.76 33.2004 129.568 20.2354V8.38549C129.568 7.66145 129.28 6.96701 128.769 6.45472C128.257 5.94244 127.563 5.6542 126.839 5.65332Z" fill="#FBDA33"/>
<path d="M117.551 32.7938C103.49 32.1311 104.745 18.684 104.996 8.38491C104.997 7.51775 105.341 6.68635 105.955 6.07318C106.568 5.46 107.399 5.11514 108.266 5.11426H126.838C127.705 5.11514 128.537 5.46 129.15 6.07318C129.763 6.68635 130.108 7.51775 130.109 8.38491C130.359 18.6823 131.612 32.1444 117.551 32.7938ZM108.273 6.19122C107.984 6.19078 107.699 6.24718 107.432 6.35719C107.165 6.4672 106.923 6.62866 106.718 6.83236C106.514 7.03607 106.352 7.27802 106.241 7.5444C106.13 7.81079 106.073 8.09639 106.073 8.38491V20.2365C106.341 35.3139 128.763 35.3239 129.032 20.2365C128.861 1.04168 132.312 7.20191 108.266 6.19122H108.273Z" fill="#2E0F07"/>
<path d="M122.469 20.1838H112.86C113.075 16.0731 111.32 8.2643 117.665 8.13672C124.007 8.25933 122.256 16.0847 122.469 20.1838ZM114.561 18.4756H120.761C120.514 15.7484 122.017 9.92613 117.661 9.84495C113.307 9.92116 114.806 15.7583 114.561 18.4756Z" fill="#A7B2BD"/>
<path d="M119.534 8.51562C119.53 9.11455 119.426 9.70864 119.227 10.2736C119.694 10.5466 120.081 10.9369 120.35 11.4057C120.619 11.8745 120.761 12.4055 120.762 12.9461V18.475H114.562V13.8656C113.989 13.9125 113.412 13.8678 112.854 13.7331V20.1833H122.463C122.165 16.7652 123.839 10.0515 119.534 8.51562Z" fill="#66798C"/>
<path d="M115.078 10.0043C114.25 9.85514 116.548 8.43852 116.659 8.977C116.666 9.00159 116.667 9.02727 116.664 9.05256C116.661 9.07784 116.652 9.10222 116.64 9.12427C116.627 9.14632 116.61 9.1656 116.589 9.18099C116.569 9.19639 116.546 9.20758 116.521 9.21393C115.545 9.484 115.36 9.96615 115.078 10.0043Z" fill="white"/>
<path d="M117.995 9.05989C117.683 8.97432 117.353 8.97432 117.041 9.05989C116.993 9.07001 116.944 9.06196 116.902 9.03732C116.86 9.01269 116.829 8.97326 116.815 8.92684C116.801 8.88042 116.805 8.83037 116.826 8.7866C116.847 8.74282 116.883 8.7085 116.928 8.69041C116.955 8.69041 117.578 8.4949 118.04 8.69041C118.078 8.70774 118.109 8.73653 118.129 8.77266C118.149 8.80878 118.157 8.85037 118.152 8.89144C118.147 8.93251 118.129 8.97095 118.101 9.00122C118.073 9.03148 118.036 9.05203 117.995 9.05989Z" fill="white"/>
<path d="M122.885 20.5982H112.447C112.655 16.1478 110.841 7.8668 117.669 7.72266C124.537 7.91982 122.655 16.1114 122.885 20.5982ZM113.275 19.7697H122.056C121.834 15.9987 123.528 8.66873 117.662 8.55109C111.762 8.70352 113.507 15.9705 113.268 19.7697H113.275ZM121.177 18.8899H114.148C114.393 15.8148 112.806 9.53692 117.662 9.43088C122.515 9.53361 120.933 15.8247 121.177 18.8899ZM114.977 18.0615H120.348C120.096 15.6657 121.525 10.3322 117.662 10.2593C113.802 10.3272 115.228 15.6756 114.977 18.0615Z" fill="#2E0F07"/>
<path d="M121.895 17.6523H113.696C112.825 17.6523 112.119 18.3585 112.119 19.2297V24.5896C112.119 25.4608 112.825 26.167 113.696 26.167H121.895C122.766 26.167 123.472 25.4608 123.472 24.5896V19.2297C123.472 18.3585 122.766 17.6523 121.895 17.6523Z" fill="#FFA1A0"/>
<path d="M121.733 17.6516C121.526 17.6698 121.162 17.5803 121.09 17.8554C120.474 19.7497 119.326 21.4264 117.781 22.6849C116.237 23.9434 114.363 24.7304 112.384 24.9517C111.681 25.2218 112.485 26.259 113.046 26.1679H121.846C122.06 26.1679 122.272 26.1257 122.469 26.0439C122.667 25.962 122.846 25.8421 122.998 25.6908C123.149 25.5396 123.269 25.36 123.351 25.1624C123.433 24.9648 123.475 24.753 123.475 24.5392V19.3863C123.472 18.9258 123.288 18.4848 122.962 18.1597C122.636 17.8347 122.194 17.652 121.733 17.6516Z" fill="#FF5B59"/>
<path d="M121.897 26.5826H113.697C113.17 26.5826 112.664 26.3731 112.291 26.0003C111.918 25.6274 111.709 25.1217 111.709 24.5944V19.2294C111.709 18.7021 111.918 18.1964 112.291 17.8236C112.664 17.4507 113.17 17.2412 113.697 17.2412H121.897C122.424 17.2412 122.93 17.4507 123.303 17.8236C123.676 18.1964 123.885 18.7021 123.885 19.2294V24.5911C123.886 24.8524 123.835 25.1113 123.735 25.3529C123.635 25.5946 123.489 25.8141 123.304 25.9991C123.119 26.1841 122.9 26.3308 122.659 26.431C122.417 26.5311 122.158 26.5826 121.897 26.5826ZM113.697 18.0614C113.39 18.0614 113.095 18.1836 112.877 18.4011C112.66 18.6186 112.537 18.9136 112.537 19.2212C112.526 28.1351 111.419 25.2737 121.9 25.7459C122.208 25.7459 122.503 25.6237 122.72 25.4062C122.938 25.1887 123.06 24.8937 123.06 24.5861C123.072 15.6771 124.179 18.5385 113.697 18.0614Z" fill="#2E0F07"/>
<path d="M119.406 20.6656C119.405 20.4393 119.357 20.2157 119.266 20.0084C119.176 19.8012 119.043 19.6147 118.878 19.4606C118.712 19.3064 118.517 19.1878 118.303 19.1121C118.09 19.0364 117.864 19.0052 117.638 19.0203C115.885 19.1197 115.555 21.6597 117.19 22.2148V23.9197C117.198 24.064 117.261 24.1999 117.366 24.2993C117.471 24.3987 117.61 24.4541 117.755 24.4541C117.899 24.4541 118.038 24.3987 118.143 24.2993C118.248 24.1999 118.311 24.064 118.319 23.9197V22.2148C118.637 22.0996 118.912 21.8891 119.107 21.6119C119.301 21.3347 119.406 21.0042 119.406 20.6656Z" fill="#2E0F07"/>
<path d="M104.564 68.2623V47.9177C104.564 45.4131 102.534 43.3828 100.03 43.3828L36.2867 43.3828C33.7822 43.3828 31.7519 45.4131 31.7519 47.9177V68.2623C31.7519 70.7668 33.7822 72.7971 36.2867 72.7971H100.03C102.534 72.7971 104.564 70.7668 104.564 68.2623Z" fill="#FEFDEF"/>
<path d="M94.2597 53.1953C75.7028 64.9872 53.4411 67.8337 32.0742 69.9296C32.4089 70.7741 32.9892 71.4987 33.74 72.01C34.4908 72.5213 35.3776 72.7956 36.286 72.7977H100.031C101.232 72.7964 102.385 72.3183 103.235 71.4685C104.084 70.6186 104.562 69.4664 104.564 68.2645C104.469 67.5752 104.895 45.988 104.186 46.1089C101.316 48.7798 98.0771 51.6279 94.2597 53.1953Z" fill="#FBF7C1"/>
<path d="M100.029 73.336H36.2843C34.9396 73.3343 33.6504 72.7994 32.6994 71.8487C31.7484 70.898 31.2131 69.6091 31.2109 68.2643V47.9181C31.2123 46.5729 31.7472 45.2833 32.6983 44.3321C33.6495 43.381 34.9391 42.846 36.2843 42.8447H100.029C101.374 42.846 102.663 43.381 103.614 44.3322C104.565 45.2834 105.1 46.5731 105.1 47.9181V68.2643C105.099 69.6089 104.564 70.8979 103.613 71.8486C102.662 72.7994 101.373 73.3343 100.029 73.336ZM36.2843 43.9217C35.2248 43.923 34.209 44.3445 33.4599 45.0936C32.7107 45.8428 32.2892 46.8586 32.2879 47.9181V68.2643C32.2897 69.3236 32.7113 70.3389 33.4604 71.0877C34.2096 71.8365 35.225 72.2577 36.2843 72.259H100.029C101.088 72.2577 102.103 71.8364 102.852 71.0876C103.601 70.3387 104.022 69.3234 104.024 68.2643V47.9181C104.023 46.8587 103.602 45.843 102.853 45.0938C102.104 44.3445 101.088 43.923 100.029 43.9217H36.2843Z" fill="#2E0F07"/>
<path d="M55.4677 52.8304C55.105 52.7328 54.7184 52.7826 54.3922 52.9688C54.066 53.155 53.8266 53.4626 53.7263 53.8246L52.2782 59.1762L50.6511 53.7848C50.564 53.4954 50.3867 53.2414 50.1451 53.0598C49.9034 52.8782 49.6101 52.7786 49.3078 52.7755C49.0056 52.7723 48.7103 52.8658 48.4649 53.0423C48.2195 53.2188 48.037 53.4691 47.9438 53.7566L46.1345 59.3171L44.7013 53.8792C44.423 52.6813 42.6883 52.4477 42.1034 53.528C41.2998 53.6605 44.6384 64.1949 44.6202 64.7019C44.9283 66.0274 46.9613 66.1052 47.3424 64.7797L49.2412 58.9426L50.9941 64.7416C51.3503 66.0837 53.4015 66.0489 53.723 64.7019L56.4667 54.5652C56.5613 54.2028 56.5095 53.8177 56.3226 53.4931C56.1356 53.1686 55.8286 52.9305 55.4677 52.8304Z" fill="#2E0F07"/>
<path d="M74.411 52.8303C74.0485 52.7328 73.6621 52.7826 73.3362 52.9688C73.0103 53.155 72.7712 53.4626 72.6712 53.8245L71.2231 59.1761L69.5878 53.7897C69.5007 53.5003 69.3234 53.2462 69.0817 53.0647C68.8401 52.8831 68.5468 52.7835 68.2445 52.7804C67.9423 52.7772 67.6469 52.8707 67.4016 53.0472C67.1562 53.2237 66.9736 53.474 66.8805 53.7615L65.0795 59.317L63.6447 53.8791C63.368 52.6812 61.6316 52.4476 61.0467 53.5279C60.2431 53.6604 63.5833 64.1948 63.5651 64.7018C63.8716 66.0273 65.9046 66.1051 66.2857 64.7797L68.1861 58.9425L69.9391 64.7415C70.2936 66.0836 72.3465 66.0488 72.6679 64.7018L75.4101 54.5651C75.505 54.2027 75.4534 53.8174 75.2665 53.4927C75.0795 53.168 74.7721 52.9301 74.411 52.8303Z" fill="#2E0F07"/>
<path d="M94.2182 53.4932C94.1257 53.3314 94.0021 53.1896 93.8545 53.0758C93.7069 52.9621 93.5383 52.8787 93.3583 52.8304C92.9956 52.7328 92.609 52.7826 92.2828 52.9688C91.9566 53.155 91.7173 53.4626 91.6169 53.8246L90.1688 59.1762L88.5418 53.7848C88.4546 53.4954 88.2773 53.2414 88.0357 53.0598C87.794 52.8782 87.5007 52.7786 87.1985 52.7755C86.8962 52.7723 86.6009 52.8658 86.3555 53.0423C86.1102 53.2188 85.9276 53.4691 85.8345 53.7566L84.0252 59.3171L82.592 53.8792C82.3136 52.6813 80.5789 52.4477 79.994 53.528C79.1904 53.6605 82.529 64.1949 82.5108 64.7019C82.819 66.0274 84.8519 66.1052 85.233 64.7797L87.1318 58.9426L88.8847 64.7416C89.241 66.0854 91.2922 66.0489 91.6136 64.7019C91.607 64.1783 95.0152 53.6589 94.2182 53.4932Z" fill="#2E0F07"/>
<path d="M131.185 95.2711C132.57 94.0848 132.756 91.9474 131.385 90.6733L116.817 76.9346L112.361 81.6583L126.93 95.397C127.511 95.9444 128.286 96.2386 129.084 96.215C129.882 96.1914 130.637 95.8519 131.185 95.2711Z" fill="#CEACF9"/>
<path d="M128.993 96.7623C128.088 96.7642 127.217 96.4177 126.561 95.7947L111.992 82.0576C111.889 81.9591 111.828 81.8237 111.824 81.681C111.82 81.5383 111.873 81.3997 111.97 81.2955L116.424 76.5717C116.522 76.4681 116.658 76.4076 116.801 76.4035C116.944 76.3995 117.082 76.4522 117.186 76.5502L131.753 90.2873C134.247 92.5108 132.148 96.7938 128.993 96.7623ZM113.124 81.6434L127.3 95.011C127.778 95.4569 128.413 95.6963 129.067 95.677C129.721 95.6578 130.341 95.3816 130.792 94.9083C131.962 93.9324 132.173 92.1446 131.016 91.071L116.838 77.7084L113.124 81.6434Z" fill="#2E0F07"/>
<path d="M98.4929 82.9478C111.801 95.0744 130.172 75.5897 117.285 63.0174C103.975 50.8908 85.6058 70.3755 98.4929 82.9478Z" fill="#DEC8FB"/>
<path d="M94.9754 68.41C99.5185 79.801 116.646 79.2956 120.511 67.6611C121.543 70.1074 121.842 72.8008 121.371 75.4138C120.901 78.0268 119.681 80.4467 117.86 82.3791C107.977 93.1802 89.9054 81.8754 94.9754 68.41Z" fill="#CEACF9"/>
<path d="M107.876 87.2172C89.3361 86.6837 88.9484 59.8143 107.47 58.7539C126.569 58.8086 126.962 86.6191 107.876 87.2172ZM107.898 59.8242C90.2523 60.3793 90.6251 86.0889 108.274 86.1353C125.398 85.1478 125.032 60.3114 107.898 59.8242Z" fill="#2E0F07"/>
<path d="M115.063 79.7476C123.787 70.1593 109.771 56.9475 100.713 66.216C91.9913 75.8059 106.005 89.0178 115.063 79.7476Z" fill="#B7EDEC"/>
<path d="M104.356 66.6551C104.406 68.9167 110.652 68.7328 110.568 66.4728C110.513 64.2128 104.272 64.3951 104.356 66.6551Z" fill="#E4F8F8"/>
<path d="M98.0312 72.817C99.3371 74.1032 100.885 75.1173 102.586 75.8005C104.287 76.4836 106.107 76.8223 107.94 76.7967C109.772 76.7711 111.582 76.3818 113.263 75.6515C114.944 74.9211 116.464 73.8642 117.733 72.542C118.069 85.8947 98.0627 86.1581 98.0312 72.817Z" fill="#93E4E3"/>
<path d="M107.886 83.3782C99.1207 83.6847 93.9927 72.1115 100.322 65.8469C109.877 56.0714 124.655 70.0089 115.456 80.1175C114.484 81.1494 113.31 81.9712 112.008 82.532C110.706 83.0928 109.303 83.3808 107.886 83.3782ZM107.886 63.6615C102.898 63.4958 98.2591 68.1499 98.569 73.2547C98.559 81.3237 109.296 85.4294 114.667 79.3769C120.345 73.7568 115.747 63.3865 107.89 63.6632L107.886 63.6615Z" fill="#2E0F07"/>
<path d="M130.52 92.6198C130.592 92.5435 130.648 92.4537 130.686 92.3556C130.723 92.2574 130.741 92.1529 130.738 92.048C130.734 91.943 130.711 91.8397 130.668 91.7439C130.625 91.6481 130.563 91.5618 130.487 91.4898L125.756 87.0279C125.6 86.895 125.4 86.827 125.195 86.8381C124.99 86.8491 124.798 86.9383 124.657 87.0872C124.517 87.2361 124.439 87.4334 124.439 87.6382C124.44 87.843 124.52 88.0397 124.661 88.1877L129.39 92.648C129.544 92.7938 129.749 92.8728 129.961 92.8675C130.172 92.8622 130.374 92.7732 130.52 92.6198Z" fill="#EADCFD"/>
<path d="M124.098 86.5595C124.243 86.4052 124.321 86.1999 124.314 85.9885C124.308 85.777 124.218 85.5766 124.065 85.4311L122.35 83.814C122.194 83.6811 121.993 83.6132 121.789 83.6242C121.584 83.6353 121.392 83.7244 121.251 83.8734C121.111 84.0223 121.033 84.2195 121.033 84.4243C121.034 84.6291 121.113 84.8259 121.255 84.9738L122.97 86.5909C123.046 86.6631 123.135 86.7195 123.233 86.757C123.331 86.7945 123.436 86.8123 123.54 86.8094C123.645 86.8065 123.748 86.7829 123.844 86.74C123.94 86.6971 124.026 86.6358 124.098 86.5595Z" fill="#EADCFD"/>
</svg>
