<svg xmlns="http://www.w3.org/2000/svg" width="360" height="360" viewbox="0 0 360 360" preserveAspectRatio="none"><rect x="0" y="0" width="100%" height="100%" fill="rgb(133, 130, 141)" /><path d="M0 95 C 63 0, 117 0, 180 95 S 297 190, 360 95 S 477 0, 540, 95" fill="none" stroke="#222" style="opacity:0.13266666666667;stroke-width:10px;" transform="translate(-90, -142.5)" /><path d="M0 95 C 63 0, 117 0, 180 95 S 297 190, 360 95 S 477 0, 540, 95" fill="none" stroke="#222" style="opacity:0.13266666666667;stroke-width:10px;" transform="translate(-90, 217.5)" /><path d="M0 95 C 63 0, 117 0, 180 95 S 297 190, 360 95 S 477 0, 540, 95" fill="none" stroke="#ddd" style="opacity:0.14133333333333;stroke-width:10px;" transform="translate(-90, -132.5)" /><path d="M0 95 C 63 0, 117 0, 180 95 S 297 190, 360 95 S 477 0, 540, 95" fill="none" stroke="#ddd" style="opacity:0.14133333333333;stroke-width:10px;" transform="translate(-90, 227.5)" /><path d="M0 95 C 63 0, 117 0, 180 95 S 297 190, 360 95 S 477 0, 540, 95" fill="none" stroke="#ddd" style="opacity:0.054666666666667;stroke-width:10px;" transform="translate(-90, -122.5)" /><path d="M0 95 C 63 0, 117 0, 180 95 S 297 190, 360 95 S 477 0, 540, 95" fill="none" stroke="#ddd" style="opacity:0.054666666666667;stroke-width:10px;" transform="translate(-90, 237.5)" /><path d="M0 95 C 63 0, 117 0, 180 95 S 297 190, 360 95 S 477 0, 540, 95" fill="none" stroke="#ddd" style="opacity:0.037333333333333;stroke-width:10px;" transform="translate(-90, -112.5)" /><path d="M0 95 C 63 0, 117 0, 180 95 S 297 190, 360 95 S 477 0, 540, 95" fill="none" stroke="#ddd" style="opacity:0.037333333333333;stroke-width:10px;" transform="translate(-90, 247.5)" /><path d="M0 95 C 63 0, 117 0, 180 95 S 297 190, 360 95 S 477 0, 540, 95" fill="none" stroke="#222" style="opacity:0.15;stroke-width:10px;" transform="translate(-90, -102.5)" /><path d="M0 95 C 63 0, 117 0, 180 95 S 297 190, 360 95 S 477 0, 540, 95" fill="none" stroke="#222" style="opacity:0.15;stroke-width:10px;" transform="translate(-90, 257.5)" /><path d="M0 95 C 63 0, 117 0, 180 95 S 297 190, 360 95 S 477 0, 540, 95" fill="none" stroke="#222" style="opacity:0.046;stroke-width:10px;" transform="translate(-90, -92.5)" /><path d="M0 95 C 63 0, 117 0, 180 95 S 297 190, 360 95 S 477 0, 540, 95" fill="none" stroke="#222" style="opacity:0.046;stroke-width:10px;" transform="translate(-90, 267.5)" /><path d="M0 95 C 63 0, 117 0, 180 95 S 297 190, 360 95 S 477 0, 540, 95" fill="none" stroke="#ddd" style="opacity:0.037333333333333;stroke-width:10px;" transform="translate(-90, -82.5)" /><path d="M0 95 C 63 0, 117 0, 180 95 S 297 190, 360 95 S 477 0, 540, 95" fill="none" stroke="#ddd" style="opacity:0.037333333333333;stroke-width:10px;" transform="translate(-90, 277.5)" /><path d="M0 95 C 63 0, 117 0, 180 95 S 297 190, 360 95 S 477 0, 540, 95" fill="none" stroke="#222" style="opacity:0.063333333333333;stroke-width:10px;" transform="translate(-90, -72.5)" /><path d="M0 95 C 63 0, 117 0, 180 95 S 297 190, 360 95 S 477 0, 540, 95" fill="none" stroke="#222" style="opacity:0.063333333333333;stroke-width:10px;" transform="translate(-90, 287.5)" /><path d="M0 95 C 63 0, 117 0, 180 95 S 297 190, 360 95 S 477 0, 540, 95" fill="none" stroke="#222" style="opacity:0.098;stroke-width:10px;" transform="translate(-90, -62.5)" /><path d="M0 95 C 63 0, 117 0, 180 95 S 297 190, 360 95 S 477 0, 540, 95" fill="none" stroke="#222" style="opacity:0.098;stroke-width:10px;" transform="translate(-90, 297.5)" /><path d="M0 95 C 63 0, 117 0, 180 95 S 297 190, 360 95 S 477 0, 540, 95" fill="none" stroke="#ddd" style="opacity:0.054666666666667;stroke-width:10px;" transform="translate(-90, -52.5)" /><path d="M0 95 C 63 0, 117 0, 180 95 S 297 190, 360 95 S 477 0, 540, 95" fill="none" stroke="#ddd" style="opacity:0.054666666666667;stroke-width:10px;" transform="translate(-90, 307.5)" /><path d="M0 95 C 63 0, 117 0, 180 95 S 297 190, 360 95 S 477 0, 540, 95" fill="none" stroke="#ddd" style="opacity:0.072;stroke-width:10px;" transform="translate(-90, -42.5)" /><path d="M0 95 C 63 0, 117 0, 180 95 S 297 190, 360 95 S 477 0, 540, 95" fill="none" stroke="#ddd" style="opacity:0.072;stroke-width:10px;" transform="translate(-90, 317.5)" /><path d="M0 95 C 63 0, 117 0, 180 95 S 297 190, 360 95 S 477 0, 540, 95" fill="none" stroke="#222" style="opacity:0.098;stroke-width:10px;" transform="translate(-90, -32.5)" /><path d="M0 95 C 63 0, 117 0, 180 95 S 297 190, 360 95 S 477 0, 540, 95" fill="none" stroke="#222" style="opacity:0.098;stroke-width:10px;" transform="translate(-90, 327.5)" /><path d="M0 95 C 63 0, 117 0, 180 95 S 297 190, 360 95 S 477 0, 540, 95" fill="none" stroke="#ddd" style="opacity:0.124;stroke-width:10px;" transform="translate(-90, -22.5)" /><path d="M0 95 C 63 0, 117 0, 180 95 S 297 190, 360 95 S 477 0, 540, 95" fill="none" stroke="#ddd" style="opacity:0.124;stroke-width:10px;" transform="translate(-90, 337.5)" /><path d="M0 95 C 63 0, 117 0, 180 95 S 297 190, 360 95 S 477 0, 540, 95" fill="none" stroke="#222" style="opacity:0.098;stroke-width:10px;" transform="translate(-90, -12.5)" /><path d="M0 95 C 63 0, 117 0, 180 95 S 297 190, 360 95 S 477 0, 540, 95" fill="none" stroke="#222" style="opacity:0.098;stroke-width:10px;" transform="translate(-90, 347.5)" /><path d="M0 95 C 63 0, 117 0, 180 95 S 297 190, 360 95 S 477 0, 540, 95" fill="none" stroke="#222" style="opacity:0.046;stroke-width:10px;" transform="translate(-90, -2.5)" /><path d="M0 95 C 63 0, 117 0, 180 95 S 297 190, 360 95 S 477 0, 540, 95" fill="none" stroke="#222" style="opacity:0.046;stroke-width:10px;" transform="translate(-90, 357.5)" /><path d="M0 95 C 63 0, 117 0, 180 95 S 297 190, 360 95 S 477 0, 540, 95" fill="none" stroke="#ddd" style="opacity:0.072;stroke-width:10px;" transform="translate(-90, 7.5)" /><path d="M0 95 C 63 0, 117 0, 180 95 S 297 190, 360 95 S 477 0, 540, 95" fill="none" stroke="#ddd" style="opacity:0.072;stroke-width:10px;" transform="translate(-90, 367.5)" /><path d="M0 95 C 63 0, 117 0, 180 95 S 297 190, 360 95 S 477 0, 540, 95" fill="none" stroke="#ddd" style="opacity:0.10666666666667;stroke-width:10px;" transform="translate(-90, 17.5)" /><path d="M0 95 C 63 0, 117 0, 180 95 S 297 190, 360 95 S 477 0, 540, 95" fill="none" stroke="#ddd" style="opacity:0.10666666666667;stroke-width:10px;" transform="translate(-90, 377.5)" /><path d="M0 95 C 63 0, 117 0, 180 95 S 297 190, 360 95 S 477 0, 540, 95" fill="none" stroke="#ddd" style="opacity:0.10666666666667;stroke-width:10px;" transform="translate(-90, 27.5)" /><path d="M0 95 C 63 0, 117 0, 180 95 S 297 190, 360 95 S 477 0, 540, 95" fill="none" stroke="#ddd" style="opacity:0.10666666666667;stroke-width:10px;" transform="translate(-90, 387.5)" /><path d="M0 95 C 63 0, 117 0, 180 95 S 297 190, 360 95 S 477 0, 540, 95" fill="none" stroke="#ddd" style="opacity:0.054666666666667;stroke-width:10px;" transform="translate(-90, 37.5)" /><path d="M0 95 C 63 0, 117 0, 180 95 S 297 190, 360 95 S 477 0, 540, 95" fill="none" stroke="#ddd" style="opacity:0.054666666666667;stroke-width:10px;" transform="translate(-90, 397.5)" /><path d="M0 95 C 63 0, 117 0, 180 95 S 297 190, 360 95 S 477 0, 540, 95" fill="none" stroke="#222" style="opacity:0.028666666666667;stroke-width:10px;" transform="translate(-90, 47.5)" /><path d="M0 95 C 63 0, 117 0, 180 95 S 297 190, 360 95 S 477 0, 540, 95" fill="none" stroke="#222" style="opacity:0.028666666666667;stroke-width:10px;" transform="translate(-90, 407.5)" /><path d="M0 95 C 63 0, 117 0, 180 95 S 297 190, 360 95 S 477 0, 540, 95" fill="none" stroke="#ddd" style="opacity:0.054666666666667;stroke-width:10px;" transform="translate(-90, 57.5)" /><path d="M0 95 C 63 0, 117 0, 180 95 S 297 190, 360 95 S 477 0, 540, 95" fill="none" stroke="#ddd" style="opacity:0.054666666666667;stroke-width:10px;" transform="translate(-90, 417.5)" /><path d="M0 95 C 63 0, 117 0, 180 95 S 297 190, 360 95 S 477 0, 540, 95" fill="none" stroke="#ddd" style="opacity:0.14133333333333;stroke-width:10px;" transform="translate(-90, 67.5)" /><path d="M0 95 C 63 0, 117 0, 180 95 S 297 190, 360 95 S 477 0, 540, 95" fill="none" stroke="#ddd" style="opacity:0.14133333333333;stroke-width:10px;" transform="translate(-90, 427.5)" /><path d="M0 95 C 63 0, 117 0, 180 95 S 297 190, 360 95 S 477 0, 540, 95" fill="none" stroke="#222" style="opacity:0.063333333333333;stroke-width:10px;" transform="translate(-90, 77.5)" /><path d="M0 95 C 63 0, 117 0, 180 95 S 297 190, 360 95 S 477 0, 540, 95" fill="none" stroke="#222" style="opacity:0.063333333333333;stroke-width:10px;" transform="translate(-90, 437.5)" /><path d="M0 95 C 63 0, 117 0, 180 95 S 297 190, 360 95 S 477 0, 540, 95" fill="none" stroke="#222" style="opacity:0.15;stroke-width:10px;" transform="translate(-90, 87.5)" /><path d="M0 95 C 63 0, 117 0, 180 95 S 297 190, 360 95 S 477 0, 540, 95" fill="none" stroke="#222" style="opacity:0.15;stroke-width:10px;" transform="translate(-90, 447.5)" /><path d="M0 95 C 63 0, 117 0, 180 95 S 297 190, 360 95 S 477 0, 540, 95" fill="none" stroke="#ddd" style="opacity:0.124;stroke-width:10px;" transform="translate(-90, 97.5)" /><path d="M0 95 C 63 0, 117 0, 180 95 S 297 190, 360 95 S 477 0, 540, 95" fill="none" stroke="#ddd" style="opacity:0.124;stroke-width:10px;" transform="translate(-90, 457.5)" /><path d="M0 95 C 63 0, 117 0, 180 95 S 297 190, 360 95 S 477 0, 540, 95" fill="none" stroke="#ddd" style="opacity:0.072;stroke-width:10px;" transform="translate(-90, 107.5)" /><path d="M0 95 C 63 0, 117 0, 180 95 S 297 190, 360 95 S 477 0, 540, 95" fill="none" stroke="#ddd" style="opacity:0.072;stroke-width:10px;" transform="translate(-90, 467.5)" /><path d="M0 95 C 63 0, 117 0, 180 95 S 297 190, 360 95 S 477 0, 540, 95" fill="none" stroke="#222" style="opacity:0.15;stroke-width:10px;" transform="translate(-90, 117.5)" /><path d="M0 95 C 63 0, 117 0, 180 95 S 297 190, 360 95 S 477 0, 540, 95" fill="none" stroke="#222" style="opacity:0.15;stroke-width:10px;" transform="translate(-90, 477.5)" /><path d="M0 95 C 63 0, 117 0, 180 95 S 297 190, 360 95 S 477 0, 540, 95" fill="none" stroke="#222" style="opacity:0.080666666666667;stroke-width:10px;" transform="translate(-90, 127.5)" /><path d="M0 95 C 63 0, 117 0, 180 95 S 297 190, 360 95 S 477 0, 540, 95" fill="none" stroke="#222" style="opacity:0.080666666666667;stroke-width:10px;" transform="translate(-90, 487.5)" /><path d="M0 95 C 63 0, 117 0, 180 95 S 297 190, 360 95 S 477 0, 540, 95" fill="none" stroke="#222" style="opacity:0.063333333333333;stroke-width:10px;" transform="translate(-90, 137.5)" /><path d="M0 95 C 63 0, 117 0, 180 95 S 297 190, 360 95 S 477 0, 540, 95" fill="none" stroke="#222" style="opacity:0.063333333333333;stroke-width:10px;" transform="translate(-90, 497.5)" /><path d="M0 95 C 63 0, 117 0, 180 95 S 297 190, 360 95 S 477 0, 540, 95" fill="none" stroke="#222" style="opacity:0.046;stroke-width:10px;" transform="translate(-90, 147.5)" /><path d="M0 95 C 63 0, 117 0, 180 95 S 297 190, 360 95 S 477 0, 540, 95" fill="none" stroke="#222" style="opacity:0.046;stroke-width:10px;" transform="translate(-90, 507.5)" /><path d="M0 95 C 63 0, 117 0, 180 95 S 297 190, 360 95 S 477 0, 540, 95" fill="none" stroke="#222" style="opacity:0.028666666666667;stroke-width:10px;" transform="translate(-90, 157.5)" /><path d="M0 95 C 63 0, 117 0, 180 95 S 297 190, 360 95 S 477 0, 540, 95" fill="none" stroke="#222" style="opacity:0.028666666666667;stroke-width:10px;" transform="translate(-90, 517.5)" /><path d="M0 95 C 63 0, 117 0, 180 95 S 297 190, 360 95 S 477 0, 540, 95" fill="none" stroke="#ddd" style="opacity:0.037333333333333;stroke-width:10px;" transform="translate(-90, 167.5)" /><path d="M0 95 C 63 0, 117 0, 180 95 S 297 190, 360 95 S 477 0, 540, 95" fill="none" stroke="#ddd" style="opacity:0.037333333333333;stroke-width:10px;" transform="translate(-90, 527.5)" /><path d="M0 95 C 63 0, 117 0, 180 95 S 297 190, 360 95 S 477 0, 540, 95" fill="none" stroke="#222" style="opacity:0.063333333333333;stroke-width:10px;" transform="translate(-90, 177.5)" /><path d="M0 95 C 63 0, 117 0, 180 95 S 297 190, 360 95 S 477 0, 540, 95" fill="none" stroke="#222" style="opacity:0.063333333333333;stroke-width:10px;" transform="translate(-90, 537.5)" /><path d="M0 95 C 63 0, 117 0, 180 95 S 297 190, 360 95 S 477 0, 540, 95" fill="none" stroke="#ddd" style="opacity:0.124;stroke-width:10px;" transform="translate(-90, 187.5)" /><path d="M0 95 C 63 0, 117 0, 180 95 S 297 190, 360 95 S 477 0, 540, 95" fill="none" stroke="#ddd" style="opacity:0.124;stroke-width:10px;" transform="translate(-90, 547.5)" /><path d="M0 95 C 63 0, 117 0, 180 95 S 297 190, 360 95 S 477 0, 540, 95" fill="none" stroke="#ddd" style="opacity:0.10666666666667;stroke-width:10px;" transform="translate(-90, 197.5)" /><path d="M0 95 C 63 0, 117 0, 180 95 S 297 190, 360 95 S 477 0, 540, 95" fill="none" stroke="#ddd" style="opacity:0.10666666666667;stroke-width:10px;" transform="translate(-90, 557.5)" /><path d="M0 95 C 63 0, 117 0, 180 95 S 297 190, 360 95 S 477 0, 540, 95" fill="none" stroke="#ddd" style="opacity:0.10666666666667;stroke-width:10px;" transform="translate(-90, 207.5)" /><path d="M0 95 C 63 0, 117 0, 180 95 S 297 190, 360 95 S 477 0, 540, 95" fill="none" stroke="#ddd" style="opacity:0.10666666666667;stroke-width:10px;" transform="translate(-90, 567.5)" /></svg>