<svg width="24" height="24" viewBox="0 0 24 24" fill="none" xmlns="http://www.w3.org/2000/svg">
<path d="M22 12C22 6.47715 17.5228 2 12 2C6.47715 2 2 6.47715 2 12C2 17.5228 6.47715 22 12 22C17.5228 22 22 17.5228 22 12Z" fill="#DCD7FE"/>
<path d="M22 12C22 6.47715 17.5228 2 12 2C6.47715 2 2 6.47715 2 12C2 17.5228 6.47715 22 12 22C17.5228 22 22 17.5228 22 12Z" stroke="#9061F9" stroke-width="1.5"/>
<path d="M13.0394 8.65861C14.039 9.30556 15.5385 9.14361 17.0379 7.20277C17.8049 6.21001 18.8852 5.82557 19.7823 5.71967C17.9491 3.45091 15.144 2 12 2C11.4201 2 10.8518 2.04936 10.2989 2.1441C9.74756 3.30993 9.93895 4.72765 11.0401 5.26215C12.8 6.11636 11.54 7.6882 13.0394 8.65861Z" fill="white"/>
<path d="M16.4444 6.74424C15.7577 7.6331 15.1298 8.03733 14.6395 8.18161C14.1662 8.32089 13.767 8.23616 13.4469 8.02897L12.6319 9.28826C13.3114 9.72801 14.1618 9.88578 15.0629 9.62061C15.9471 9.36044 16.8187 8.71328 17.6314 7.6613L16.4444 6.74424ZM13.4469 8.02897C13.0141 7.74885 12.9763 7.45899 12.8793 6.80643C12.8332 6.49678 12.7657 6.07056 12.5439 5.66012C12.3081 5.22385 11.9323 4.86152 11.3676 4.58743L10.7126 5.93687C11.0279 6.08989 11.1546 6.24437 11.2243 6.37339C11.308 6.52824 11.3493 6.7158 11.3956 7.02718C11.4833 7.6167 11.5653 8.59796 12.6319 9.28826L13.4469 8.02897ZM11.3676 4.58743C11.0589 4.43759 10.8618 4.16491 10.7845 3.78883C10.7044 3.39966 10.7622 2.91885 10.9769 2.46475L9.62099 1.82344C9.28437 2.53517 9.16211 3.34615 9.31524 4.09092C9.47106 4.84878 9.9202 5.55222 10.7126 5.93687L11.3676 4.58743ZM10.9769 2.46475C10.9945 2.42762 11.013 2.39082 11.0325 2.35444L9.71067 1.64556C9.67919 1.70426 9.64929 1.76359 9.62099 1.82344L10.9769 2.46475ZM12 1.25C11.3775 1.25 10.7668 1.30299 10.1723 1.40487L10.4256 2.88332C10.9368 2.79572 11.4628 2.75 12 2.75V1.25ZM19.9461 4.95093C19.8638 4.95686 19.7798 4.96476 19.6944 4.97484L19.8702 6.4645C19.9326 6.45714 19.9939 6.45137 20.0539 6.44705L19.9461 4.95093ZM19.6944 4.97484C18.6676 5.09605 17.3721 5.54346 16.4444 6.74424L17.6314 7.6613C18.2377 6.87657 19.1028 6.55509 19.8702 6.4645L19.6944 4.97484ZM20.3657 5.2483C18.3962 2.81089 15.3801 1.25 12 1.25V2.75C14.9079 2.75 17.502 4.09092 19.1989 6.19104L20.3657 5.2483Z" fill="#9061F9"/>
<path d="M8.20837 14.7517C8.20837 12.7648 7.68843 12.2681 5.08874 12.2681C3.85532 12.2681 2.80478 11.6857 2.04556 11.0391C2.01542 11.3553 2 11.6758 2 11.9999C2 16.1969 4.5856 19.7901 8.25083 21.2733L8.5106 20.9999C9.18472 20.1673 9.06651 19.198 8.72831 18.2287C8.20837 16.7386 8.20837 16.7386 8.20837 14.7517Z" fill="white"/>
<path d="M8.5106 20.9999L9.05435 21.5165C9.06798 21.5021 9.08104 21.4872 9.09349 21.4719L8.5106 20.9999ZM5.08874 13.0181C5.72248 13.0181 6.18832 13.049 6.53484 13.1139C6.88024 13.1786 7.05378 13.2677 7.14827 13.3451C7.30794 13.4758 7.45837 13.7551 7.45837 14.7517H8.95837C8.95837 13.7614 8.84883 12.7989 8.09861 12.1845C7.73816 11.8894 7.29426 11.7301 6.81102 11.6396C6.32888 11.5493 5.75485 11.5181 5.08874 11.5181V13.0181ZM7.45837 14.7517C7.45837 15.7196 7.45634 16.2841 7.53161 16.7874C7.60918 17.3061 7.76722 17.7508 8.02018 18.4758L9.43644 17.9817C9.16946 17.2165 9.06753 16.9161 9.01512 16.5656C8.9604 16.1997 8.95837 15.7706 8.95837 14.7517H7.45837ZM8.02018 18.4758C8.33482 19.3776 8.34746 20.0095 7.92771 20.5279L9.09349 21.4719C10.022 20.3251 9.7982 19.0185 9.43644 17.9817L8.02018 18.4758ZM1.50826 11.5662C1.52511 11.5808 1.54211 11.5955 1.55925 11.6101L2.53187 10.4681C2.5184 10.4566 2.50502 10.4451 2.49174 10.4336L1.50826 11.5662ZM1.55925 11.6101C2.39792 12.3244 3.61502 13.0181 5.08874 13.0181V11.5181C4.09563 11.5181 3.21164 11.0471 2.53187 10.4681L1.55925 11.6101ZM1.29895 10.9679C1.26655 11.3077 1.25 11.652 1.25 11.9999H2.75C2.75 11.6996 2.76429 11.4028 2.79218 11.1103L1.29895 10.9679ZM7.96685 20.4833L7.70708 20.7568L8.79459 21.7899L9.05435 21.5165L7.96685 20.4833ZM1.25 11.9999C1.25 16.5129 4.03075 20.3746 7.96949 21.9686L8.53218 20.5781C5.14046 19.2055 2.75 15.881 2.75 11.9999H1.25ZM7.96949 21.9686C7.96948 21.9686 7.96862 21.9682 7.96745 21.9677C7.96711 21.9676 7.96644 21.9673 7.96561 21.967C7.96517 21.9668 7.963 21.9659 7.96025 21.9647C7.95951 21.9644 7.95779 21.9637 7.95682 21.9633C7.95549 21.9627 7.95222 21.9613 7.95029 21.9604C7.94721 21.9591 7.93853 21.9552 7.93294 21.9526C7.91938 21.946 7.82971 21.8936 7.75941 21.8393C7.575 20.9516 8.42803 20.5448 8.47512 20.5578C8.48634 20.5614 8.50246 20.5669 8.50741 20.5687C8.51022 20.5697 8.51482 20.5714 8.51662 20.5721C8.51788 20.5725 8.52006 20.5734 8.52098 20.5737C8.52291 20.5745 8.52443 20.575 8.52519 20.5753C8.52606 20.5757 8.52677 20.576 8.52724 20.5761C8.52816 20.5765 8.52888 20.5768 8.52925 20.5769C8.53001 20.5772 8.5306 20.5775 8.53082 20.5776C8.53187 20.578 8.53276 20.5783 8.53218 20.5781C8.53208 20.5781 8.5324 20.5782 8.53218 20.5781C8.53196 20.578 8.53092 20.5776 8.53082 20.5776C8.53073 20.5776 8.53077 20.5776 8.53082 20.5776C8.53092 20.5776 8.53196 20.578 8.53218 20.5781C8.53208 20.5781 8.5324 20.5782 8.53218 20.5781C8.5324 20.5782 8.53327 20.5786 8.53403 20.5789C8.53439 20.579 8.53512 20.5793 8.53603 20.5797C8.53649 20.5799 8.5372 20.5802 8.53807 20.5805C8.53882 20.5809 8.54034 20.5815 8.54225 20.5823C8.54316 20.5827 8.54532 20.5836 8.54657 20.5841C8.54835 20.5849 8.5529 20.5869 8.55566 20.5881C8.56053 20.5903 8.57627 20.5977 8.58708 20.6031C8.63222 20.6278 8.95741 21.5204 8.19803 22.021C8.11598 22.0108 8.02153 21.9873 8.0076 21.9827C8.00187 21.9807 7.99304 21.9776 7.98991 21.9764C7.98796 21.9757 7.98465 21.9745 7.9833 21.974C7.98232 21.9736 7.98059 21.9729 7.97984 21.9727C7.97707 21.9716 7.9749 21.9707 7.97445 21.9706C7.97362 21.9702 7.97296 21.97 7.97261 21.9698C7.97144 21.9694 7.97052 21.969 7.97051 21.969L8.53082 20.5776C8.5306 20.5775 8.53001 20.5772 8.52925 20.5769C8.52909 20.5769 8.52956 20.577 8.52925 20.5769C8.52888 20.5768 8.52816 20.5765 8.52724 20.5761C8.52677 20.576 8.52606 20.5757 8.52519 20.5753C8.52474 20.5751 8.52184 20.574 8.51906 20.5729C8.51831 20.5726 8.51658 20.572 8.5156 20.5716C8.51425 20.5711 8.51095 20.5698 8.50899 20.5691C8.50587 20.568 8.49703 20.5648 8.4913 20.5629C8.47737 20.5583 8.38292 20.5348 8.30087 20.5245C7.54149 21.0252 7.86669 21.9178 7.91182 21.9425C7.92263 21.9478 7.93837 21.9552 7.94324 21.9574C7.94601 21.9587 7.95056 21.9607 7.95233 21.9614C7.95358 21.962 7.9559 21.9629 7.95682 21.9633C7.95873 21.9641 7.9595 21.9644 7.96025 21.9647C7.96112 21.9651 7.96242 21.9657 7.96289 21.9659C7.9638 21.9663 7.96524 21.9669 7.96561 21.967C7.96537 21.9669 7.96638 21.9673 7.96561 21.967C7.96644 21.9673 7.96711 21.9676 7.96745 21.9677C7.9677 21.9678 7.96931 21.9685 7.96949 21.9686C7.96988 21.9688 7.97013 21.9688 7.97051 21.969C7.97026 21.9689 7.97056 21.969 7.97051 21.969C7.97052 21.969 7.97144 21.9694 7.97261 21.9698C7.97296 21.97 7.97362 21.9702 7.97445 21.9706C7.97368 21.9702 7.97469 21.9707 7.97445 21.9706C7.97482 21.9707 7.97626 21.9713 7.97718 21.9717C7.97765 21.9718 7.97897 21.9723 7.97984 21.9727C7.9806 21.973 7.98138 21.9732 7.9833 21.974C7.98423 21.9743 7.98655 21.9753 7.98781 21.9757C7.98961 21.9764 7.99421 21.9781 7.99703 21.9792C8.00198 21.9809 8.01809 21.9864 8.02931 21.99C8.0764 22.003 8.92943 21.5962 8.74502 20.7085C8.67472 20.6542 8.58506 20.6018 8.57149 20.5953C8.5659 20.5927 8.55722 20.5887 8.55414 20.5874C8.55221 20.5865 8.54894 20.5851 8.54761 20.5845C8.54664 20.5841 8.54492 20.5834 8.54418 20.5831C8.54142 20.5819 8.53852 20.5807 8.53807 20.5805C8.53723 20.5802 8.5373 20.5802 8.53695 20.5801C8.53576 20.5796 8.5341 20.579 8.53403 20.5789C8.53372 20.5788 8.53419 20.579 8.53403 20.5789C8.53327 20.5786 8.5324 20.5782 8.53218 20.5781L7.96949 21.9686Z" fill="#9061F9"/>
<path d="M14.5624 15.0889C15.2319 13.806 16.7182 15.0898 18.8739 13.5405C19.9598 12.76 21.033 12.9272 21.9035 13.3982C21.3234 17.5451 18.1998 20.8769 14.1602 21.7662C16.9719 17.5495 13.5946 16.9437 14.5624 15.0889Z" fill="white"/>
<path d="M22 13.4523C21.968 13.4339 21.9356 13.4158 21.903 13.3982M21.903 13.3982C21.0325 12.9272 19.9593 12.76 18.8734 13.5405C16.7177 15.0898 15.2314 13.806 14.5619 15.0889C13.5941 16.9437 16.9714 17.5495 14.1597 21.7662M21.903 13.3982C21.3229 17.5451 18.1993 20.8769 14.1597 21.7662M14 22C14.0553 21.9208 14.1085 21.8429 14.1597 21.7662" stroke="#9061F9" stroke-width="1.5" stroke-linejoin="round"/>
</svg>
