<svg width="24" height="24" viewBox="0 0 24 24" fill="none" xmlns="http://www.w3.org/2000/svg">
<path d="M3.89124 20.1088C5.28249 21.5 7.52166 21.5 12 21.5C16.4783 21.5 18.7175 21.5 20.1088 20.1088C21.5 18.7175 21.5 16.4783 21.5 12C21.5 10.1509 21.5 8.68354 21.4021 7.5H2.59793C2.5 8.68354 2.5 10.1509 2.5 12C2.5 16.4783 2.5 18.7175 3.89124 20.1088Z" fill="#C3DDFD"/>
<path d="M20.1085 3.89124C18.7172 2.5 16.4781 2.5 11.9997 2.5C7.52138 2.5 5.28221 2.5 3.89097 3.89124C3.07416 4.70804 2.73691 5.81712 2.59766 7.5H21.4018C21.2625 5.81712 20.9253 4.70804 20.1085 3.89124Z" fill="white"/>
<path d="M2.5 12C2.5 7.52166 2.5 5.28249 3.89124 3.89124C5.28249 2.5 7.52166 2.5 12 2.5C16.4783 2.5 18.7175 2.5 20.1088 3.89124C21.5 5.28249 21.5 7.52166 21.5 12C21.5 16.4783 21.5 18.7175 20.1088 20.1088C18.7175 21.5 16.4783 21.5 12 21.5C7.52166 21.5 5.28249 21.5 3.89124 20.1088C2.5 18.7175 2.5 16.4783 2.5 12Z" stroke="#3F83F8" stroke-width="1.5"/>
<path d="M2.5 8H21.5" stroke="#3F83F8" stroke-width="1.5" stroke-linejoin="round"/>
<path d="M11 17H17M7 17H8" stroke="#3F83F8" stroke-width="1.5" stroke-linecap="round" stroke-linejoin="round"/>
<path d="M11 13H17M7 13H8" stroke="#3F83F8" stroke-width="1.5" stroke-linecap="round" stroke-linejoin="round"/>
</svg>
