<svg width="24" height="25" viewBox="0 0 24 25" fill="none" xmlns="http://www.w3.org/2000/svg">
<path d="M21.3175 7.64139L20.8239 6.78479C20.4506 6.13696 20.264 5.81305 19.9464 5.68388C19.6288 5.55472 19.2696 5.65664 18.5513 5.86048L17.3311 6.20418C16.8725 6.30994 16.3913 6.24994 15.9726 6.03479L15.6357 5.84042C15.2766 5.61043 15.0004 5.27133 14.8475 4.87274L14.5136 3.87536C14.294 3.21534 14.1842 2.88533 13.9228 2.69657C13.6615 2.50781 13.3143 2.50781 12.6199 2.50781H11.5051C10.8108 2.50781 10.4636 2.50781 10.2022 2.69657C9.94085 2.88533 9.83106 3.21534 9.61149 3.87536L9.27753 4.87274C9.12465 5.27133 8.84845 5.61043 8.48937 5.84042L8.15249 6.03479C7.73374 6.24994 7.25259 6.30994 6.79398 6.20418L5.57375 5.86048C4.85541 5.65664 4.49625 5.55472 4.17867 5.68388C3.86109 5.81305 3.67445 6.13696 3.30115 6.78479L2.80757 7.64139C2.45766 8.24864 2.2827 8.55227 2.31666 8.87549C2.35061 9.19871 2.58483 9.45918 3.05326 9.98012L4.0843 11.1328C4.3363 11.4518 4.51521 12.0078 4.51521 12.5077C4.51521 13.0078 4.33636 13.5636 4.08433 13.8827L3.05326 15.0354C2.58483 15.5564 2.35062 15.8168 2.31666 16.1401C2.2827 16.4633 2.45766 16.7669 2.80757 17.3741L3.30114 18.2307C3.67443 18.8785 3.86109 19.2025 4.17867 19.3316C4.49625 19.4608 4.85542 19.3589 5.57377 19.155L6.79394 18.8113C7.25263 18.7055 7.73387 18.7656 8.15267 18.9808L8.4895 19.1752C8.84851 19.4052 9.12464 19.7442 9.2775 20.1428L9.61149 21.1403C9.83106 21.8003 9.94085 22.1303 10.2022 22.3191C10.4636 22.5078 10.8108 22.5078 11.5051 22.5078H12.6199C13.3143 22.5078 13.6615 22.5078 13.9228 22.3191C14.1842 22.1303 14.294 21.8003 14.5136 21.1403L14.8476 20.1428C15.0004 19.7442 15.2765 19.4052 15.6356 19.1752L15.9724 18.9808C16.3912 18.7656 16.8724 18.7055 17.3311 18.8113L18.5513 19.155C19.2696 19.3589 19.6288 19.4608 19.9464 19.3316C20.264 19.2025 20.4506 18.8785 20.8239 18.2307L21.3175 17.3741C21.6674 16.7669 21.8423 16.4633 21.8084 16.1401C21.7744 15.8168 21.5402 15.5564 21.0718 15.0354L20.0407 13.8827C19.7887 13.5636 19.6098 13.0078 19.6098 12.5077C19.6098 12.0078 19.7888 11.4518 20.0407 11.1328L21.0718 9.98012C21.5402 9.45918 21.7744 9.19871 21.8084 8.87549C21.8423 8.55227 21.6674 8.24864 21.3175 7.64139Z" fill="#EDEBFE"/>
<path d="M21.3175 7.64139L20.8239 6.78479C20.4506 6.13696 20.264 5.81305 19.9464 5.68388C19.6288 5.55472 19.2696 5.65664 18.5513 5.86048L17.3311 6.20418C16.8725 6.30994 16.3913 6.24994 15.9726 6.03479L15.6357 5.84042C15.2766 5.61043 15.0004 5.27133 14.8475 4.87274L14.5136 3.87536C14.294 3.21534 14.1842 2.88533 13.9228 2.69657C13.6615 2.50781 13.3143 2.50781 12.6199 2.50781H11.5051C10.8108 2.50781 10.4636 2.50781 10.2022 2.69657C9.94085 2.88533 9.83106 3.21534 9.61149 3.87536L9.27753 4.87274C9.12465 5.27133 8.84845 5.61043 8.48937 5.84042L8.15249 6.03479C7.73374 6.24994 7.25259 6.30994 6.79398 6.20418L5.57375 5.86048C4.85541 5.65664 4.49625 5.55472 4.17867 5.68388C3.86109 5.81305 3.67445 6.13696 3.30115 6.78479L2.80757 7.64139C2.45766 8.24864 2.2827 8.55227 2.31666 8.87549C2.35061 9.19871 2.58483 9.45918 3.05326 9.98012L4.0843 11.1328C4.3363 11.4518 4.51521 12.0078 4.51521 12.5077C4.51521 13.0078 4.33636 13.5636 4.08433 13.8827L3.05326 15.0354C2.58483 15.5564 2.35062 15.8168 2.31666 16.1401C2.2827 16.4633 2.45766 16.7669 2.80757 17.3741L3.30114 18.2307C3.67443 18.8785 3.86109 19.2025 4.17867 19.3316C4.49625 19.4608 4.85542 19.3589 5.57377 19.155L6.79394 18.8113C7.25263 18.7055 7.73387 18.7656 8.15267 18.9808L8.4895 19.1752C8.84851 19.4052 9.12464 19.7442 9.2775 20.1428L9.61149 21.1403C9.83106 21.8003 9.94085 22.1303 10.2022 22.3191C10.4636 22.5078 10.8108 22.5078 11.5051 22.5078H12.6199C13.3143 22.5078 13.6615 22.5078 13.9228 22.3191C14.1842 22.1303 14.294 21.8003 14.5136 21.1403L14.8476 20.1428C15.0004 19.7442 15.2765 19.4052 15.6356 19.1752L15.9724 18.9808C16.3912 18.7656 16.8724 18.7055 17.3311 18.8113L18.5513 19.155C19.2696 19.3589 19.6288 19.4608 19.9464 19.3316C20.264 19.2025 20.4506 18.8785 20.8239 18.2307L21.3175 17.3741C21.6674 16.7669 21.8423 16.4633 21.8084 16.1401C21.7744 15.8168 21.5402 15.5564 21.0718 15.0354L20.0407 13.8827C19.7887 13.5636 19.6098 13.0078 19.6098 12.5077C19.6098 12.0078 19.7888 11.4518 20.0407 11.1328L21.0718 9.98012C21.5402 9.45918 21.7744 9.19871 21.8084 8.87549C21.8423 8.55227 21.6674 8.24864 21.3175 7.64139Z" stroke="#AC94FA" stroke-width="1.5" stroke-linecap="round"/>
<path d="M15.5195 12.5C15.5195 14.433 13.9525 16 12.0195 16C10.0865 16 8.51953 14.433 8.51953 12.5C8.51953 10.567 10.0865 9 12.0195 9C13.9525 9 15.5195 10.567 15.5195 12.5Z" fill="white"/>
<path d="M15.5195 12.5C15.5195 14.433 13.9525 16 12.0195 16C10.0865 16 8.51953 14.433 8.51953 12.5C8.51953 10.567 10.0865 9 12.0195 9C13.9525 9 15.5195 10.567 15.5195 12.5Z" stroke="#AC94FA" stroke-width="1.5"/>
</svg>
