<svg width="24" height="25" viewBox="0 0 24 25" fill="none" xmlns="http://www.w3.org/2000/svg">
<path d="M20.1055 4.39905C18.7143 3.00781 16.4751 3.00781 11.9968 3.00781C7.51844 3.00781 5.27927 3.00781 3.88803 4.39905C2.83445 5.45262 2.5816 6.87749 2.51953 9.50781H21.474C21.4115 6.88438 21.1576 5.45111 20.1055 4.39905Z" fill="white"/>
<path d="M3.88734 20.6166C5.27858 22.0078 7.51775 22.0078 11.9961 22.0078C16.4744 22.0078 18.7136 22.0078 20.1049 20.6166C21.4961 19.2253 21.4961 16.9862 21.4961 12.5078V9.50781H2.51884C2.49609 10.3787 2.49609 11.3711 2.49609 12.5078C2.49609 16.9862 2.49609 19.2253 3.88734 20.6166Z" fill="#C3DDFD"/>
<path d="M3.89124 20.6088C2.5 19.2175 2.5 16.9783 2.5 12.5C2.5 8.02166 2.5 5.78249 3.89124 4.39124C5.28248 3 7.52166 3 12 3C16.4783 3 18.7175 3 20.1088 4.39124C21.5 5.78248 21.5 8.02166 21.5 12.5C21.5 16.9783 21.5 19.2175 20.1088 20.6088C18.7175 22 16.4783 22 12 22C7.52166 22 5.28249 22 3.89124 20.6088Z" stroke="#3F83F8" stroke-width="1.5" stroke-linecap="round" stroke-linejoin="round"/>
<path d="M2.5 9.5H21.5" stroke="#3F83F8" stroke-width="1.5"/>
<path d="M16 22V9.5" stroke="#3F83F8" stroke-width="1.5"/>
<path d="M8 22V9.5" stroke="#3F83F8" stroke-width="1.5"/>
</svg>
